<svg width="18" height="16" viewBox="0 0 18 16" fill="none" xmlns="http://www.w3.org/2000/svg">
<path d="M10.6533 9.79422C11.0308 9.37937 11.2393 8.83832 11.2379 8.27748C11.2379 7.03396 10.2355 6.02748 9 6.02748C7.76451 6.02748 6.76205 7.03396 6.76205 8.27748C6.76205 8.86208 6.98304 9.39244 7.34665 9.79422C6.91097 10.0642 6.54711 10.4356 6.28614 10.8768C6.02517 11.3179 5.87484 11.8156 5.84799 12.3275C5.8469 12.3493 5.85025 12.371 5.85784 12.3915C5.86543 12.4119 5.87709 12.4306 5.89212 12.4464C5.90716 12.4621 5.92525 12.4747 5.94529 12.4833C5.96533 12.4919 5.98691 12.4963 6.00871 12.4962H6.89062C6.975 12.4962 7.0433 12.4299 7.04933 12.3456C7.12567 11.329 7.97344 10.5275 9.00201 10.5275C10.0306 10.5275 10.8783 11.3311 10.9547 12.3456C10.9607 12.4299 11.029 12.4962 11.1134 12.4962H11.9933C12.0151 12.4963 12.0367 12.4919 12.0567 12.4833C12.0768 12.4747 12.0948 12.4621 12.1099 12.4464C12.1249 12.4306 12.1366 12.4119 12.1442 12.3915C12.1518 12.371 12.1551 12.3493 12.154 12.3275C12.0978 11.2567 11.5112 10.3246 10.6533 9.79422ZM9 9.32213C8.42745 9.32213 7.96138 8.85405 7.96138 8.27748C7.96138 7.70092 8.42745 7.23284 9 7.23284C9.57254 7.23284 10.0386 7.70092 10.0386 8.27748C10.0386 8.85405 9.57254 9.32213 9 9.32213ZM17.3571 2.21052H14.1429V1.08552C14.1429 0.997126 14.0705 0.924805 13.9821 0.924805H12.8571C12.7688 0.924805 12.6964 0.997126 12.6964 1.08552V2.21052H9.72321V1.08552C9.72321 0.997126 9.65089 0.924805 9.5625 0.924805H8.4375C8.34911 0.924805 8.27679 0.997126 8.27679 1.08552V2.21052H5.30357V1.08552C5.30357 0.997126 5.23125 0.924805 5.14286 0.924805H4.01786C3.92946 0.924805 3.85714 0.997126 3.85714 1.08552V2.21052H0.642857C0.287277 2.21052 0 2.4978 0 2.85338V14.4248C0 14.7804 0.287277 15.0677 0.642857 15.0677H17.3571C17.7127 15.0677 18 14.7804 18 14.4248V2.85338C18 2.4978 17.7127 2.21052 17.3571 2.21052ZM16.5536 13.6212H1.44643V3.65695H3.85714V4.78195C3.85714 4.87034 3.92946 4.94266 4.01786 4.94266H5.14286C5.23125 4.94266 5.30357 4.87034 5.30357 4.78195V3.65695H8.27679V4.78195C8.27679 4.87034 8.34911 4.94266 8.4375 4.94266H9.5625C9.65089 4.94266 9.72321 4.87034 9.72321 4.78195V3.65695H12.6964V4.78195C12.6964 4.87034 12.7688 4.94266 12.8571 4.94266H13.9821C14.0705 4.94266 14.1429 4.87034 14.1429 4.78195V3.65695H16.5536V13.6212Z" fill="black" fill-opacity="0.85"/>
</svg>
