<svg width="16" height="16" viewBox="0 0 16 16" fill="none" xmlns="http://www.w3.org/2000/svg">
<path d="M9.08955 6.77535C8.67705 6.77535 8.35741 7.09499 8.35741 7.48964C8.35741 7.88428 8.67705 8.20392 9.08955 8.20392C9.46634 8.20392 9.78598 7.88428 9.78598 7.48964C9.78598 7.09499 9.46634 6.77535 9.08955 6.77535ZM4.08955 6.77535C3.67705 6.77535 3.35741 7.09499 3.35741 7.48964C3.35741 7.88428 3.67705 8.20392 4.08955 8.20392C4.46634 8.20392 4.78598 7.88428 4.78598 7.48964C4.78598 7.09499 4.46634 6.77535 4.08955 6.77535Z" fill="black" fill-opacity="0.45"/>
<path d="M14.8212 5.41681C13.995 4.27957 12.8037 3.46015 11.4462 3.09539V3.09717C11.1408 2.75789 10.7962 2.44539 10.4105 2.16681C7.48726 0.0418143 3.38369 0.690029 1.24976 3.61324C-0.469881 5.98824 -0.396667 9.18289 1.3569 11.4525L1.37119 13.8204C1.37119 13.8775 1.38012 13.9347 1.39798 13.9882C1.42044 14.0598 1.45679 14.1262 1.50494 14.1837C1.5531 14.2412 1.61212 14.2887 1.67863 14.3233C1.74514 14.358 1.81783 14.3792 1.89254 14.3857C1.96726 14.3923 2.04253 14.384 2.11405 14.3615L4.37476 13.649C4.97298 13.8615 5.59083 13.9829 6.20512 14.0168L6.19619 14.024C7.78726 15.1829 9.87298 15.5311 11.7855 14.899L14.0551 15.6382C14.1123 15.6561 14.1712 15.6668 14.2319 15.6668C14.548 15.6668 14.8033 15.4115 14.8033 15.0954V12.7025C16.3765 10.5668 16.4176 7.61503 14.8212 5.41681ZM4.62476 12.3811L4.41048 12.2918L2.64262 12.8454L2.62476 10.9882L2.4819 10.8275C0.97119 8.98467 0.87119 6.32931 2.28548 4.3811C4.00691 2.02039 7.30691 1.49896 9.66048 3.20253C12.0212 4.9186 12.5444 8.21324 10.839 10.5597C9.40869 12.5222 6.84798 13.2472 4.62476 12.3811ZM13.6426 12.0775L13.4998 12.2561L13.5176 14.1132L11.7676 13.524L11.5533 13.6132C10.5533 13.9847 9.48726 14.015 8.49976 13.7382L8.49619 13.7365C9.85339 13.3203 11.0389 12.475 11.8748 11.3275C13.239 9.44717 13.4605 7.08467 12.6676 5.07039L12.6783 5.07753C13.089 5.37217 13.4658 5.74003 13.7855 6.18467C15.0819 7.96324 15.0087 10.3847 13.6426 12.0775Z" fill="black" fill-opacity="0.45"/>
<path d="M6.58955 6.77535C6.17705 6.77535 5.85741 7.09499 5.85741 7.48964C5.85741 7.88428 6.17705 8.20392 6.58955 8.20392C6.96634 8.20392 7.28598 7.88428 7.28598 7.48964C7.28598 7.09499 6.96634 6.77535 6.58955 6.77535Z" fill="black" fill-opacity="0.45"/>
</svg>
