<svg width="65" height="65" viewBox="0 0 65 65" fill="none" xmlns="http://www.w3.org/2000/svg">
<rect width="65" height="65" fill="#E5E5E5"/>
<rect width="1441" height="1387" transform="translate(-654 -198)" fill="#F0F2F5"/>
<g clip-path="url(#clip0_84_26667)">
<path d="M-20 -18C-20 -19.1046 -19.1046 -20 -18 -20H359C360.105 -20 361 -19.1046 361 -18V85H-20V-18Z" fill="white"/>
<circle cx="32.5" cy="32.5" r="32.5" fill="#E80054" fill-opacity="0.1"/>
<g clip-path="url(#clip1_84_26667)">
<path d="M32 18C23.7165 18 17 24.7165 17 33C17 41.2835 23.7165 48 32 48C40.2835 48 47 41.2835 47 33C47 24.7165 40.2835 18 32 18ZM32 45.4554C25.1228 45.4554 19.5446 39.8772 19.5446 33C19.5446 26.1228 25.1228 20.5446 32 20.5446C38.8772 20.5446 44.4554 26.1228 44.4554 33C44.4554 39.8772 38.8772 45.4554 32 45.4554ZM33.5971 32.2232L32.7467 32.0257V27.529C34.019 27.7031 34.8058 28.5 34.9397 29.4777C34.9565 29.6116 35.0703 29.7087 35.2042 29.7087H36.7076C36.865 29.7087 36.9888 29.5714 36.9754 29.4141C36.7712 27.3281 35.0536 25.9888 32.76 25.7578V24.6629C32.76 24.5156 32.6395 24.3951 32.4922 24.3951H31.5513C31.404 24.3951 31.2835 24.5156 31.2835 24.6629V25.7679C28.9129 25.9989 27.058 27.308 27.058 29.7522C27.058 32.0156 28.7254 33.1071 30.4766 33.5257L31.3036 33.7366V38.5145C29.8237 38.317 28.9933 37.5268 28.8225 36.4621C28.8025 36.3348 28.6886 36.2411 28.558 36.2411H27.0112C26.8538 36.2411 26.7299 36.375 26.7433 36.5324C26.894 38.3739 28.2902 40.0681 31.2701 40.2857V41.3371C31.2701 41.4844 31.3906 41.6049 31.5379 41.6049H32.4888C32.6362 41.6049 32.7567 41.4844 32.7567 41.3337L32.75 40.2723C35.3717 40.0413 37.2467 38.6384 37.2467 36.1205C37.2433 33.7969 35.7667 32.7589 33.5971 32.2232ZM31.3002 31.6808C31.1127 31.6272 30.9554 31.577 30.798 31.5134C29.6663 31.1049 29.1406 30.4453 29.1406 29.5949C29.1406 28.3795 30.0614 27.6864 31.3002 27.529V31.6808ZM32.7467 38.5246V34.048C32.8504 34.0781 32.9442 34.1016 33.0413 34.1217C34.625 34.6038 35.1574 35.2734 35.1574 36.3013C35.1574 37.6105 34.173 38.3973 32.7467 38.5246Z" fill="#E80054" fill-opacity="0.85"/>
</g>
</g>
<rect x="-851" y="-395" width="3305" height="3336" rx="47" stroke="#1890FF" stroke-width="6" stroke-dasharray="20 20"/>
<defs>
<clipPath id="clip0_84_26667">
<rect width="1184" height="1167" fill="white" transform="translate(-422 -20)"/>
</clipPath>
<clipPath id="clip1_84_26667">
<rect width="30" height="30" fill="white" transform="translate(17 18)"/>
</clipPath>
</defs>
</svg>
