<svg width="122" height="100" viewBox="0 0 122 100" fill="none" xmlns="http://www.w3.org/2000/svg">
<path d="M60.6033 99.9926C85.237 99.9926 105.207 96.2613 105.207 91.6584C105.207 87.0556 85.237 83.3242 60.6033 83.3242C35.9696 83.3242 16 87.0556 16 91.6584C16 96.2613 35.9696 99.9926 60.6033 99.9926Z" fill="#F5F5F7" fill-opacity="0.8"/>
<path fill-rule="evenodd" clip-rule="evenodd" d="M96.2854 67.1744L80.5452 47.8027C79.79 46.8908 78.686 46.3389 77.5235 46.3389H43.6814C42.5196 46.3389 41.4156 46.8908 40.6604 47.8027L24.9209 67.1744V77.2948H96.286V67.1744H96.2854Z" fill="#AEB8C2"/>
<path fill-rule="evenodd" clip-rule="evenodd" d="M38.2566 21.3359H82.9493C83.6473 21.3359 84.3166 21.6132 84.8102 22.1067C85.3037 22.6002 85.5809 23.2696 85.5809 23.9675V85.378C85.5809 86.076 85.3037 86.7453 84.8102 87.2388C84.3166 87.7324 83.6473 88.0096 82.9493 88.0096H38.2566C37.5586 88.0096 36.8893 87.7324 36.3958 87.2388C35.9023 86.7453 35.625 86.076 35.625 85.378V23.9675C35.625 23.2696 35.9023 22.6002 36.3958 22.1067C36.8893 21.6132 37.5586 21.3359 38.2566 21.3359V21.3359Z" fill="#F5F5F7"/>
<path fill-rule="evenodd" clip-rule="evenodd" d="M44.0772 27.8838H77.1278C77.4768 27.8838 77.8115 28.0224 78.0582 28.2692C78.305 28.5159 78.4436 28.8506 78.4436 29.1996V45.6187C78.4436 45.9676 78.305 46.3023 78.0582 46.5491C77.8115 46.7958 77.4768 46.9344 77.1278 46.9344H44.0772C43.7282 46.9344 43.3935 46.7958 43.1468 46.5491C42.9 46.3023 42.7614 45.9676 42.7614 45.6187V29.1996C42.7614 28.8506 42.9 28.5159 43.1468 28.2692C43.3935 28.0224 43.7282 27.8838 44.0772 27.8838V27.8838ZM44.2495 54.0772H76.9555C77.3501 54.0772 77.7287 54.234 78.0077 54.5131C78.2868 54.7922 78.4436 55.1707 78.4436 55.5654C78.4436 55.9601 78.2868 56.3386 78.0077 56.6177C77.7287 56.8967 77.3501 57.0535 76.9555 57.0535H44.2495C43.8548 57.0535 43.4763 56.8967 43.1972 56.6177C42.9182 56.3386 42.7614 55.9601 42.7614 55.5654C42.7614 55.1707 42.9182 54.7922 43.1972 54.5131C43.4763 54.234 43.8548 54.0772 44.2495 54.0772V54.0772ZM44.2495 61.816H76.9555C77.3502 61.816 77.7288 61.9728 78.008 62.252C78.2871 62.5311 78.4439 62.9097 78.4439 63.3045C78.4439 63.6993 78.2871 64.0779 78.008 64.357C77.7288 64.6362 77.3502 64.793 76.9555 64.793H44.2495C43.8548 64.793 43.4762 64.6362 43.197 64.357C42.9179 64.0779 42.761 63.6993 42.761 63.3045C42.761 62.9097 42.9179 62.5311 43.197 62.252C43.4762 61.9728 43.8548 61.816 44.2495 61.816V61.816ZM96.1397 90.4358C95.6298 92.4562 93.839 93.9621 91.7087 93.9621H29.4962C27.366 93.9621 25.5752 92.4555 25.066 90.4358C24.9689 90.0508 24.9198 89.6552 24.9199 89.2581V67.1746H42.2344C44.1469 67.1746 45.6883 68.7851 45.6883 70.7404V70.7667C45.6883 72.7213 47.2476 74.2996 49.1601 74.2996H72.0449C73.9574 74.2996 75.5166 72.7068 75.5166 70.7515V70.7437C75.5166 68.7884 77.0581 67.1739 78.9706 67.1739H96.2851V89.2588C96.2851 89.6647 96.2344 90.0588 96.1397 90.4358V90.4358Z" fill="#DCE0E6"/>
<path fill-rule="evenodd" clip-rule="evenodd" d="M98.3162 22.4026L93.8227 24.1461C93.7073 24.1909 93.5815 24.2023 93.4599 24.1789C93.3383 24.1555 93.2258 24.0982 93.1352 24.0137C93.0447 23.9292 92.9799 23.8208 92.9483 23.7011C92.9166 23.5813 92.9194 23.4551 92.9563 23.3368L94.2306 19.2533C92.5273 17.3164 91.5273 14.9546 91.5273 12.4059C91.5273 5.83026 98.1839 0.5 106.396 0.5C114.606 0.5 121.263 5.83026 121.263 12.4059C121.263 18.9816 114.606 24.3118 106.395 24.3118C103.416 24.3118 100.642 23.6105 98.3162 22.4026Z" fill="#DCE0E6"/>
<path d="M112.252 14.5555C113.287 14.5555 114.127 13.7264 114.127 12.7035C114.127 11.6807 113.287 10.8516 112.252 10.8516C111.217 10.8516 110.378 11.6807 110.378 12.7035C110.378 13.7264 111.217 14.5555 112.252 14.5555Z" fill="white"/>
<path fill-rule="evenodd" clip-rule="evenodd" d="M102.413 14.3238H98.6641L100.571 11.083L102.413 14.3238ZM104.756 11.083H108.035V14.3238H104.756V11.083Z" fill="white"/>
</svg>
