<svg width="12" height="12" viewBox="0 0 12 12" fill="none" xmlns="http://www.w3.org/2000/svg">
<path d="M10.992 5.37656L10.6451 1.71328C10.6275 1.52344 10.4764 1.37344 10.2865 1.35469L6.62324 1.00781H6.61855C6.58105 1.00781 6.55175 1.01953 6.52949 1.0418L1.04159 6.52969C1.03073 6.54053 1.02211 6.55341 1.01623 6.56758C1.01035 6.58176 1.00732 6.59696 1.00732 6.6123C1.00732 6.62765 1.01035 6.64285 1.01623 6.65703C1.02211 6.6712 1.03073 6.68408 1.04159 6.69492L5.30488 10.9582C5.32714 10.9805 5.35644 10.9922 5.38808 10.9922C5.41972 10.9922 5.44902 10.9805 5.47128 10.9582L10.9592 5.47031C10.9826 5.4457 10.9943 5.41172 10.992 5.37656ZM8.1912 4.53516C7.77753 4.53516 7.4412 4.19883 7.4412 3.78516C7.4412 3.37148 7.77753 3.03516 8.1912 3.03516C8.60488 3.03516 8.9412 3.37148 8.9412 3.78516C8.9412 4.19883 8.60488 4.53516 8.1912 4.53516Z" fill="#9998A0"/>
</svg>
