<svg width="18" height="18" viewBox="0 0 18 18" fill="none" xmlns="http://www.w3.org/2000/svg">
<path d="M9.6525 11.3035L7.7475 9.42098L7.77 9.39848C9.075 7.94348 10.005 6.27098 10.5525 4.50098H12.75V3.00098H7.5V1.50098H6V3.00098H0.75V4.49348H9.1275C8.625 5.94098 7.83 7.31348 6.75 8.51348C6.0525 7.74098 5.475 6.89348 5.0175 6.00098H3.5175C4.065 7.22348 4.815 8.37848 5.7525 9.42098L1.935 13.186L3 14.251L6.75 10.501L9.0825 12.8335L9.6525 11.3035ZM13.875 7.50098H12.375L9 16.501H10.5L11.34 14.251H14.9025L15.75 16.501H17.25L13.875 7.50098ZM11.91 12.751L13.125 9.50348L14.34 12.751H11.91Z" fill="black"/>
</svg>
