<svg width="18" height="18" viewBox="0 0 18 18" fill="none" xmlns="http://www.w3.org/2000/svg">
<g clip-path="url(#clip0_236_54793)">
<path d="M4.82123 4.33929H5.94623C6.03463 4.33929 6.10695 4.26696 6.10695 4.17857C6.10695 3.61004 6.22547 3.10982 6.45047 2.70201C6.66342 2.31228 6.97279 2.0029 7.36253 1.78996C7.77235 1.56696 8.27056 1.44643 8.83909 1.44643H9.16052C9.72904 1.44643 10.2293 1.56496 10.6371 1.78996C11.0268 2.0029 11.3362 2.31228 11.5491 2.70201C11.7721 3.11183 11.8927 3.61004 11.8927 4.17857C11.8927 4.26696 11.965 4.33929 12.0534 4.33929H13.1784C13.2668 4.33929 13.3391 4.26696 13.3391 4.17857C13.3391 3.375 13.1623 2.63772 12.8188 2.00692C12.4773 1.37815 11.9609 0.861801 11.3322 0.520313C10.7014 0.176786 9.96409 0 9.16052 0H8.83909C8.03552 0 7.29824 0.176786 6.66744 0.520313C6.03867 0.861801 5.52232 1.37815 5.18083 2.00692C4.8373 2.63772 4.66052 3.375 4.66052 4.17857C4.66052 4.26696 4.73284 4.33929 4.82123 4.33929Z" fill="black" fill-opacity="0.85"/>
<path d="M17.5979 8.99634H14.6247V6.98741C16.1675 6.98741 17.4171 5.73786 17.4171 4.195C17.4171 4.10661 17.3447 4.03428 17.2563 4.03428H16.051C15.9626 4.03428 15.8903 4.10661 15.8903 4.195C15.8903 4.53066 15.7569 4.85258 15.5196 5.08993C15.2822 5.32728 14.9603 5.46062 14.6247 5.46062H3.37465C3.03899 5.46062 2.71707 5.32728 2.47972 5.08993C2.24237 4.85258 2.10903 4.53066 2.10903 4.195C2.10903 4.10661 2.0367 4.03428 1.94831 4.03428H0.742955C0.654562 4.03428 0.582241 4.10661 0.582241 4.195C0.582241 5.73786 1.83179 6.98741 3.37465 6.98741V8.99634H0.401437C0.313044 8.99634 0.240723 9.06866 0.240723 9.15705V10.2821C0.240723 10.3704 0.313044 10.4428 0.401437 10.4428H3.37465V12.3713C3.37465 12.5019 3.37867 12.6325 3.38871 12.7591C2.01059 13.3477 1.04429 14.7158 1.04429 16.3088C1.04429 16.3972 1.11662 16.4696 1.20501 16.4696H2.33001C2.4184 16.4696 2.49072 16.3972 2.49072 16.3088C2.49072 15.4209 2.97086 14.6434 3.68804 14.2256C3.80715 14.568 3.9599 14.8977 4.14407 15.21C4.63224 16.0437 5.32934 16.7408 6.16304 17.2289C6.99675 17.7171 7.96505 17.9963 8.99965 17.9963C10.0343 17.9963 11.0046 17.7171 11.8383 17.2289C12.9927 16.5523 13.8698 15.4881 14.3133 14.2256C14.6772 14.4381 14.9791 14.7422 15.1888 15.1077C15.3986 15.4733 15.5088 15.8874 15.5086 16.3088C15.5086 16.3972 15.5809 16.4696 15.6693 16.4696H16.7943C16.8827 16.4696 16.955 16.3972 16.955 16.3088C16.955 14.7158 15.9887 13.3477 14.6106 12.7591C14.6186 12.6305 14.6247 12.5019 14.6247 12.3713V10.4428H17.5979C17.6863 10.4428 17.7586 10.3704 17.7586 10.2821V9.15705C17.7586 9.06866 17.6863 8.99634 17.5979 8.99634ZM13.0979 12.3713C13.0979 13.1106 12.903 13.8178 12.5394 14.4385C12.1838 15.0472 11.6755 15.5555 11.0668 15.9111C10.4461 16.2747 9.73894 16.4696 8.99965 16.4696C8.26037 16.4696 7.55322 16.2747 6.93246 15.9111C6.32376 15.5555 5.8155 15.0472 5.45992 14.4385C5.09272 13.8116 4.8999 13.0979 4.90144 12.3713V6.98741H13.0979V12.3713Z" fill="black" fill-opacity="0.85"/>
</g>
<defs>
<clipPath id="clip0_236_54793">
<rect width="18" height="18" fill="white"/>
</clipPath>
</defs>
</svg>
