<svg width="30" height="30" viewBox="0 0 30 30" fill="none" xmlns="http://www.w3.org/2000/svg">
<path d="M17.0753 20.1337C17.025 20.0838 16.957 20.0558 16.8862 20.0558C16.8153 20.0558 16.7473 20.0838 16.697 20.1337L12.8064 24.0243C11.005 25.8256 7.96484 26.0165 5.976 24.0243C3.98382 22.0321 4.17467 18.9953 5.976 17.1939L9.86663 13.3033C9.97043 13.1995 9.97043 13.0287 9.86663 12.9249L8.53404 11.5924C8.4837 11.5425 8.41571 11.5145 8.34487 11.5145C8.27402 11.5145 8.20604 11.5425 8.15569 11.5924L4.26507 15.483C1.43248 18.3156 1.43248 22.8993 4.26507 25.7285C7.09766 28.5578 11.6814 28.5611 14.5106 25.7285L18.4012 21.8379C18.505 21.7341 18.505 21.5633 18.4012 21.4595L17.0753 20.1337ZM25.7338 4.26311C22.9012 1.43052 18.3175 1.43052 15.4883 4.26311L11.5943 8.15374C11.5445 8.20408 11.5165 8.27207 11.5165 8.34291C11.5165 8.41376 11.5445 8.48175 11.5943 8.53209L12.9236 9.86133C13.0273 9.96512 13.1981 9.96512 13.3019 9.86133L17.1925 5.9707C18.9939 4.16936 22.034 3.97852 24.0229 5.9707C26.0151 7.96289 25.8242 10.9997 24.0229 12.8011L20.1323 16.6917C20.0824 16.742 20.0544 16.81 20.0544 16.8809C20.0544 16.9517 20.0824 17.0197 20.1323 17.07L21.4648 18.4026C21.5686 18.5064 21.7394 18.5064 21.8432 18.4026L25.7338 14.512C28.5631 11.6794 28.5631 7.0957 25.7338 4.26311ZM18.284 10.32C18.2337 10.2702 18.1657 10.2422 18.0949 10.2422C18.024 10.2422 17.956 10.2702 17.9057 10.32L10.322 17.9004C10.2721 17.9507 10.2442 18.0187 10.2442 18.0896C10.2442 18.1604 10.2721 18.2284 10.322 18.2787L11.6479 19.6046C11.7517 19.7084 11.9224 19.7084 12.0262 19.6046L19.6066 12.0243C19.7104 11.9205 19.7104 11.7497 19.6066 11.6459L18.284 10.32Z" fill="#E80054" fill-opacity="0.85"/>
</svg>
