<svg width="20" height="20" viewBox="0 0 20 20" fill="none" xmlns="http://www.w3.org/2000/svg">
<g clip-path="url(#clip0_221_52604)">
<path d="M17.6474 5.01339L12.8438 0.209821C12.7099 0.0758929 12.5291 0 12.3394 0H2.85723C2.46214 0 2.14294 0.319196 2.14294 0.714286V19.2857C2.14294 19.6808 2.46214 20 2.85723 20H17.1429C17.538 20 17.8572 19.6808 17.8572 19.2857V5.52009C17.8572 5.33036 17.7813 5.14732 17.6474 5.01339ZM16.2099 5.84821H12.009V1.64732L16.2099 5.84821ZM16.2501 18.3929H3.75009V1.60714H10.4912V6.42857C10.4912 6.67721 10.5899 6.91567 10.7657 7.09148C10.9416 7.2673 11.18 7.36607 11.4287 7.36607H16.2501V18.3929ZM10.7144 9.10714C10.7144 9.00893 10.634 8.92857 10.5358 8.92857H9.46437C9.36616 8.92857 9.2858 9.00893 9.2858 9.10714V11.5179H6.87509C6.77687 11.5179 6.69652 11.5982 6.69652 11.6964V12.7679C6.69652 12.8661 6.77687 12.9464 6.87509 12.9464H9.2858V15.3571C9.2858 15.4554 9.36616 15.5357 9.46437 15.5357H10.5358C10.634 15.5357 10.7144 15.4554 10.7144 15.3571V12.9464H13.1251C13.2233 12.9464 13.3037 12.8661 13.3037 12.7679V11.6964C13.3037 11.5982 13.2233 11.5179 13.1251 11.5179H10.7144V9.10714Z" fill="black" fill-opacity="0.85"/>
</g>
<defs>
<clipPath id="clip0_221_52604">
<rect width="20" height="20" fill="white"/>
</clipPath>
</defs>
</svg>
