<svg width="27" height="27" viewBox="0 0 27 27" fill="none" xmlns="http://www.w3.org/2000/svg">
<path d="M23.2988 21.7314C23.3047 21.7227 23.3135 21.7139 23.3193 21.7051C25.2383 19.4229 26.3926 16.4814 26.3926 13.2676C26.3926 10.0537 25.2383 7.11231 23.3223 4.83008C23.3164 4.82129 23.3076 4.81543 23.3018 4.80664C23.2695 4.76855 23.2402 4.7334 23.208 4.69824C23.1963 4.68359 23.1846 4.67188 23.1729 4.65723L23.0527 4.51953L23.0498 4.5166C23.0059 4.4668 22.959 4.41699 22.915 4.36719L22.9121 4.36426C22.8184 4.26465 22.7246 4.16504 22.6279 4.06836L22.625 4.06543L22.4844 3.92481L22.4756 3.91602C22.4316 3.87207 22.3877 3.83105 22.3438 3.79004C22.3291 3.77539 22.3145 3.76074 22.2969 3.74609C22.2676 3.7168 22.2383 3.69043 22.209 3.66406C22.2002 3.65527 22.1885 3.64648 22.1797 3.63477C19.8418 1.4668 16.71 0.142578 13.2676 0.142578C9.8252 0.142578 6.69336 1.4668 4.35254 3.63477C4.34375 3.64355 4.33203 3.65234 4.32324 3.66406C4.29395 3.69043 4.26465 3.71973 4.23535 3.74902C4.2207 3.76367 4.20606 3.77832 4.18848 3.79297C4.14453 3.83398 4.10059 3.87793 4.05664 3.91895L4.04785 3.92773L3.90723 4.06836L3.9043 4.07129C3.80762 4.16797 3.71387 4.26758 3.62012 4.36719L3.61719 4.37012C3.57031 4.41992 3.52637 4.46973 3.48242 4.51953L3.47949 4.52246C3.43848 4.56641 3.39746 4.61328 3.35938 4.66016C3.34766 4.6748 3.33594 4.68652 3.32422 4.70117C3.29199 4.73633 3.2627 4.77441 3.23047 4.80957C3.22461 4.81836 3.21582 4.82422 3.20996 4.83301C1.29687 7.11231 0.142578 10.0537 0.142578 13.2676C0.142578 16.4814 1.29688 19.4229 3.21289 21.7051C3.21875 21.7139 3.22754 21.7227 3.2334 21.7314L3.32422 21.8398C3.33594 21.8545 3.34766 21.8662 3.35938 21.8809L3.47949 22.0186C3.47949 22.0215 3.48242 22.0215 3.48242 22.0244C3.52637 22.0742 3.57031 22.124 3.61719 22.1709L3.62012 22.1738C3.71387 22.2734 3.80762 22.373 3.90137 22.4697L3.9043 22.4727C3.95117 22.5195 3.99512 22.5664 4.04199 22.6104L4.05078 22.6191C4.14746 22.7158 4.24707 22.8096 4.34668 22.9004C6.69336 25.0684 9.8252 26.3926 13.2676 26.3926C16.71 26.3926 19.8418 25.0684 22.1826 22.9004C22.2824 22.8089 22.3801 22.7151 22.4756 22.6191L22.4844 22.6104C22.5313 22.5635 22.5781 22.5195 22.6221 22.4727L22.625 22.4697C22.7217 22.373 22.8154 22.2734 22.9063 22.1738L22.9092 22.1709C22.9531 22.1211 23 22.0742 23.0439 22.0244C23.0439 22.0215 23.0469 22.0215 23.0469 22.0186C23.0879 21.9746 23.1289 21.9277 23.167 21.8809C23.1787 21.8662 23.1904 21.8545 23.2021 21.8398C23.2353 21.8045 23.2675 21.7684 23.2988 21.7314V21.7314ZM23.4189 17.5537C23.0146 18.5088 22.4814 19.3936 21.8311 20.1963C21.0986 19.5633 20.2977 19.014 19.4434 18.5586C19.7832 17.1846 19.9941 15.6758 20.0498 14.0879H24.2539C24.166 15.2861 23.8848 16.4492 23.4189 17.5537ZM24.2539 12.4473H20.0498C19.9941 10.8594 19.7832 9.35059 19.4434 7.97656C20.3018 7.51953 21.1016 6.96875 21.8311 6.33887C23.2448 8.07903 24.0905 10.2111 24.2539 12.4473V12.4473ZM17.5537 3.11621C18.7168 3.6084 19.7744 4.28809 20.7061 5.14355C20.1648 5.60437 19.5823 6.01431 18.9658 6.36816C18.5059 5.0498 17.917 3.9043 17.2314 2.98731C17.3398 3.02832 17.4482 3.07227 17.5537 3.11621ZM14.8994 23.6416C14.6299 23.8525 14.3604 24.0137 14.0879 24.1221V18.6875C15.2504 18.7686 16.3935 19.0275 17.4775 19.4551C17.2344 20.1758 16.9531 20.8408 16.6279 21.4414C16.1182 22.3906 15.5205 23.1494 14.8994 23.6416ZM16.6279 5.09375C16.9502 5.69727 17.2344 6.3623 17.4775 7.08008C16.3935 7.50769 15.2504 7.76655 14.0879 7.84766V2.41602C14.3574 2.52441 14.6299 2.68262 14.8994 2.89648C15.5205 3.38574 16.1182 4.14453 16.6279 5.09375V5.09375ZM14.0879 17.0439V14.0879H18.4092C18.3623 15.3828 18.2012 16.6396 17.9316 17.832L17.9229 17.8672C16.6934 17.401 15.4004 17.1234 14.0879 17.0439V17.0439ZM14.0879 12.4473V9.49121C15.4297 9.40918 16.7188 9.125 17.9229 8.66797L17.9316 8.70313C18.2012 9.89551 18.3623 11.1494 18.4092 12.4473H14.0879ZM12.4473 14.0879V17.0439C11.1055 17.126 9.81641 17.4102 8.61231 17.8672L8.60352 17.832C8.33398 16.6396 8.17285 15.3857 8.12598 14.0879H12.4473ZM8.12598 12.4473C8.17285 11.1523 8.33398 9.89551 8.60352 8.70313L8.61231 8.66797C9.81641 9.125 11.1025 9.40918 12.4473 9.49121V12.4473H8.12598ZM12.4473 18.6875V24.1191C12.1777 24.0107 11.9053 23.8525 11.6357 23.6387C11.0146 23.1494 10.4141 22.3877 9.9043 21.4385C9.58203 20.835 9.29785 20.1699 9.05469 19.4521C10.1445 19.0244 11.2783 18.7695 12.4473 18.6875ZM12.4473 7.84766C11.2848 7.76655 10.1416 7.50769 9.05762 7.08008C9.30078 6.35938 9.58203 5.69434 9.90723 5.09375C10.417 4.14453 11.0146 3.38281 11.6387 2.89355C11.9082 2.68262 12.1777 2.52148 12.4502 2.41309V7.84766H12.4473ZM8.98145 3.11621C9.08984 3.07227 9.19531 3.02832 9.30371 2.98731C8.61816 3.9043 8.0293 5.0498 7.56934 6.36816C6.9541 6.0166 6.37109 5.60645 5.8291 5.14355C6.76074 4.28809 7.81836 3.6084 8.98145 3.11621V3.11621ZM3.11621 8.98145C3.52051 8.02637 4.05371 7.1416 4.7041 6.33887C5.43359 6.96875 6.2334 7.51953 7.0918 7.97656C6.75195 9.35059 6.54102 10.8594 6.48535 12.4473H2.28125C2.36914 11.249 2.65039 10.0859 3.11621 8.98145ZM2.28125 14.0879H6.48535C6.54102 15.6758 6.75195 17.1846 7.0918 18.5586C6.23744 19.014 5.43659 19.5633 4.7041 20.1963C3.29032 18.4561 2.44463 16.324 2.28125 14.0879V14.0879ZM8.98145 23.4189C7.81836 22.9268 6.76074 22.2471 5.8291 21.3916C6.37109 20.9287 6.9541 20.5215 7.56934 20.167C8.0293 21.4854 8.61816 22.6309 9.30371 23.5479C9.19531 23.5068 9.08691 23.4629 8.98145 23.4189ZM17.5537 23.4189C17.4453 23.4629 17.3398 23.5068 17.2314 23.5479C17.917 22.6309 18.5059 21.4854 18.9658 20.167C19.5811 20.5186 20.1641 20.9287 20.7061 21.3916C19.7796 22.2435 18.7132 22.9293 17.5537 23.4189V23.4189Z" fill="#0BDD53" fill-opacity="0.85"/>
</svg>
