<svg width="14" height="14" viewBox="0 0 14 14" fill="none" xmlns="http://www.w3.org/2000/svg">
<g clip-path="url(#clip0_351_23156)">
<path d="M13.2115 12.3535L9.15371 8.2957C9.7834 7.48164 10.124 6.48633 10.124 5.43945C10.124 4.18633 9.63496 3.01133 8.75058 2.12539C7.86621 1.23945 6.68809 0.751953 5.43652 0.751953C4.18496 0.751953 3.00684 1.24102 2.12246 2.12539C1.23652 3.00977 0.749023 4.18633 0.749023 5.43945C0.749023 6.69102 1.23809 7.86914 2.12246 8.75351C3.00684 9.63945 4.1834 10.127 5.43652 10.127C6.4834 10.127 7.47715 9.78633 8.29121 9.1582L12.349 13.2145C12.3609 13.2264 12.375 13.2358 12.3906 13.2422C12.4061 13.2487 12.4228 13.252 12.4396 13.252C12.4565 13.252 12.4731 13.2487 12.4887 13.2422C12.5042 13.2358 12.5184 13.2264 12.5303 13.2145L13.2115 12.5348C13.2234 12.5229 13.2329 12.5087 13.2393 12.4932C13.2458 12.4776 13.2491 12.461 13.2491 12.4441C13.2491 12.4273 13.2458 12.4106 13.2393 12.3951C13.2329 12.3795 13.2234 12.3654 13.2115 12.3535ZM7.91152 7.91445C7.24902 8.57539 6.3709 8.93945 5.43652 8.93945C4.50215 8.93945 3.62402 8.57539 2.96152 7.91445C2.30059 7.25195 1.93652 6.37383 1.93652 5.43945C1.93652 4.50508 2.30059 3.62539 2.96152 2.96445C3.62402 2.30352 4.50215 1.93945 5.43652 1.93945C6.3709 1.93945 7.25059 2.30195 7.91152 2.96445C8.57246 3.62695 8.93652 4.50508 8.93652 5.43945C8.93652 6.37383 8.57246 7.25352 7.91152 7.91445Z" fill="black"/>
</g>
<defs>
<clipPath id="clip0_351_23156">
<rect width="14" height="14" fill="white" transform="translate(-0.000976562)"/>
</clipPath>
</defs>
</svg>
