<svg width="7" height="10" viewBox="0 0 7 10" fill="none" xmlns="http://www.w3.org/2000/svg">
<mask id="path-1-inside-1_585_20527" fill="white">
<path d="M1.99987 0L6.99987 5L1.99987 10L0.939209 8.93934L4.87855 5L0.939209 1.06066L1.99987 0Z"/>
</mask>
<path d="M1.99987 0L6.99987 5L1.99987 10L0.939209 8.93934L4.87855 5L0.939209 1.06066L1.99987 0Z" fill="white"/>
<path d="M6.99987 5L8.06053 6.06066L9.12119 5L8.06053 3.93934L6.99987 5ZM1.99987 0L3.06053 -1.06066L1.99987 -2.12132L0.939209 -1.06066L1.99987 0ZM1.99987 10L0.939209 11.0607L1.99987 12.1213L3.06053 11.0607L1.99987 10ZM0.939209 1.06066L-0.121451 -1.67164e-07L-1.18211 1.06066L-0.121451 2.12132L0.939209 1.06066ZM0.939209 8.93934L-0.121451 7.87868L-1.18211 8.93934L-0.121451 10L0.939209 8.93934ZM4.87855 5L5.93921 6.06066L6.99987 5L5.93921 3.93934L4.87855 5ZM8.06053 3.93934L3.06053 -1.06066L0.939209 1.06066L5.93921 6.06066L8.06053 3.93934ZM3.06053 11.0607L8.06053 6.06066L5.93921 3.93934L0.939209 8.93934L3.06053 11.0607ZM0.939209 -1.06066L-0.121451 -1.67164e-07L1.99987 2.12132L3.06053 1.06066L0.939209 -1.06066ZM-0.121451 10L0.939209 11.0607L3.06053 8.93934L1.99987 7.87868L-0.121451 10ZM3.81789 3.93934L-0.121451 7.87868L1.99987 10L5.93921 6.06066L3.81789 3.93934ZM-0.121451 2.12132L3.81789 6.06066L5.93921 3.93934L1.99987 -1.58579e-08L-0.121451 2.12132Z" fill="black" fill-opacity="0.25" mask="url(#path-1-inside-1_585_20527)"/>
</svg>
