<svg width="18" height="18" viewBox="0 0 18 18" fill="none" xmlns="http://www.w3.org/2000/svg">
<path d="M10.3837 12.4224C10.3502 12.3892 10.3048 12.3706 10.2576 12.3706C10.2104 12.3706 10.165 12.3892 10.1315 12.4224L7.53774 15.0162C6.33684 16.2171 4.31006 16.3443 2.98417 15.0162C1.65604 13.6881 1.78327 11.6635 2.98417 10.4626L5.57792 7.86886C5.64711 7.79967 5.64711 7.68583 5.57792 7.61663L4.68952 6.72824C4.65596 6.695 4.61064 6.67636 4.56341 6.67636C4.51618 6.67636 4.47085 6.695 4.43729 6.72824L1.84354 9.32199C-0.0448521 11.2104 -0.0448521 14.2662 1.84354 16.1523C3.73193 18.0385 6.78774 18.0407 8.6739 16.1523L11.2676 13.5586C11.3368 13.4894 11.3368 13.3756 11.2676 13.3064L10.3837 12.4224ZM16.156 1.84208C14.2676 -0.046317 11.2118 -0.046317 9.32568 1.84208L6.7297 4.43583C6.69647 4.46939 6.67783 4.51471 6.67783 4.56194C6.67783 4.60917 6.69647 4.6545 6.7297 4.68806L7.61586 5.57422C7.68506 5.64342 7.7989 5.64342 7.86809 5.57422L10.4618 2.98047C11.6627 1.77958 13.6895 1.65234 15.0154 2.98047C16.3435 4.30859 16.2163 6.33315 15.0154 7.53404L12.4217 10.1278C12.3884 10.1614 12.3698 10.2067 12.3698 10.2539C12.3698 10.3011 12.3884 10.3465 12.4217 10.38L13.3101 11.2684C13.3793 11.3376 13.4931 11.3376 13.5623 11.2684L16.156 8.67467C18.0422 6.78627 18.0422 3.73047 16.156 1.84208ZM11.1895 5.88002C11.156 5.84679 11.1106 5.82815 11.0634 5.82815C11.0162 5.82815 10.9709 5.84679 10.9373 5.88002L5.88149 10.9336C5.84825 10.9672 5.82961 11.0125 5.82961 11.0597C5.82961 11.1069 5.84825 11.1523 5.88149 11.1858L6.76542 12.0698C6.83461 12.139 6.94845 12.139 7.01765 12.0698L12.0712 7.01618C12.1404 6.94699 12.1404 6.83315 12.0712 6.76395L11.1895 5.88002Z" fill="black" fill-opacity="0.85"/>
</svg>
