<svg xmlns="http://www.w3.org/2000/svg" width="70" height="70" viewBox="0 0 70 70">
  <g id="features-icon-2" transform="translate(-751 -2881.5)">
    <g id="Group_18626" data-name="Group 18626" transform="translate(1396 8200.5)">
      <circle id="Ellipse_3095" data-name="Ellipse 3095" cx="35" cy="35" r="35" transform="translate(-645 -5319)" fill="#002443"/>
    </g>
    <g id="_001-logo" data-name="001-logo" transform="translate(763.608 2894.197)">
      <g id="Group_18739" data-name="Group 18739" transform="translate(0 0.576)">
        <path id="Path_41650" data-name="Path 41650" d="M92.121,83.06a1.347,1.347,0,0,0-1.032-.43,1.261,1.261,0,0,0-1,.43L86.618,86.5a1.361,1.361,0,0,0-.4,1,1.46,1.46,0,0,0,.4,1.032l11.664,11.692a1.4,1.4,0,0,0,.86.4.4.4,0,0,0,.172.028,1.574,1.574,0,0,0,1.06-.43L121.3,79.306a1.526,1.526,0,0,0,0-2.064L117.857,73.8a1.454,1.454,0,0,0-2.064,0L99.343,90.282Z" transform="translate(-77.563 -66.066)" fill="#39b3d0"/>
        <path id="Path_41651" data-name="Path 41651" d="M42.444,18.831,24.7,36.571a3.749,3.749,0,0,1-2.837,1.176h-.8l-.172-.115a4.267,4.267,0,0,1-1.92-1.061L7.337,24.878a3.914,3.914,0,0,1-1.2-2.866,3.761,3.761,0,0,1,1.2-2.837l3.439-3.468a4.013,4.013,0,0,1,5.7.028l5.388,5.388L33.272,9.689,25.678,2.095a5.19,5.19,0,0,0-7.337,0L1.519,18.917a5.19,5.19,0,0,0,0,7.337L18.342,43.076a5.013,5.013,0,0,0,3.682,1.519,4.921,4.921,0,0,0,3.654-1.519L42.5,26.254a5.19,5.19,0,0,0,0-7.338Z" transform="translate(0 -0.576)" fill="#39b3d0"/>
      </g>
    </g>
  </g>
</svg>
