<svg xmlns="http://www.w3.org/2000/svg" width="70" height="70" viewBox="0 0 70 70">
  <g id="features-icon-4" transform="translate(-200 -2600)">
    <g id="Group_18626" data-name="Group 18626" transform="translate(845 7919)">
      <circle id="Ellipse_3095" data-name="Ellipse 3095" cx="35" cy="35" r="35" transform="translate(-645 -5319)" fill="#002443"/>
    </g>
    <g id="_003-badge" data-name="003-badge" transform="translate(211.374 2610.883)">
      <g id="Group_18741" data-name="Group 18741" transform="translate(0 1.277)">
        <g id="Group_18740" data-name="Group 18740">
          <path id="Path_41655" data-name="Path 41655" d="M42.263,29.987l5.615-5.956-5.622-5.949L43.3,9.964,35.252,8.455,31.321,1.277,23.926,4.783l-7.4-3.5L12.607,8.468,4.563,9.988l1.051,8.117L0,24.06l5.621,5.949L4.579,38.127l8.046,1.509,3.93,7.178,7.394-3.507,7.4,3.5,3.922-7.184L43.313,38.1l-.108-.831ZM23.939,39.743a15.7,15.7,0,1,1,15.7-15.7A15.7,15.7,0,0,1,23.939,39.743Z" transform="translate(0 -1.277)" fill="#39b3d0"/>
        </g>
      </g>
      <g id="Group_18743" data-name="Group 18743" transform="translate(11.203 11.31)">
        <g id="Group_18742" data-name="Group 18742">
          <path id="Path_41656" data-name="Path 41656" d="M24.963,12.227A12.736,12.736,0,1,0,37.7,24.963,12.75,12.75,0,0,0,24.963,12.227Zm-.255,18.635-5.861-4.887-1.136-.948,1.9-2.274L24.3,26.666l6.665-8.193,2.3,1.868Z" transform="translate(-12.227 -12.227)" fill="#39b3d0"/>
        </g>
      </g>
    </g>
  </g>
</svg>
