<svg xmlns="http://www.w3.org/2000/svg" width="70" height="70" viewBox="0 0 70 70">
  <g id="features-icon-3" transform="translate(-1303 -2881)">
    <g id="Group_18633" data-name="Group 18633" transform="translate(0 1313)">
      <g id="Group_18631" data-name="Group 18631" transform="translate(552 1)">
        <g id="Group_18628" data-name="Group 18628" transform="translate(1396 6886)">
          <circle id="Ellipse_3095" data-name="Ellipse 3095" cx="35" cy="35" r="35" transform="translate(-645 -5319)" fill="#002443"/>
        </g>
      </g>
    </g>
    <g id="Group_18748" data-name="Group 18748" transform="translate(0 1)">
      <path id="Path_41652" data-name="Path 41652" d="M102.971,8.82A8.82,8.82,0,1,1,94.152,0,8.82,8.82,0,0,1,102.971,8.82Zm0,0" transform="translate(1240.723 2894.333)" fill="#39b3d0"/>
      <path id="Path_41653" data-name="Path 41653" d="M23.372,256H8.379A8.388,8.388,0,0,0,0,264.378v6.174a1.323,1.323,0,0,0,1.323,1.323h29.1a1.323,1.323,0,0,0,1.323-1.323v-6.174A8.388,8.388,0,0,0,23.372,256Zm0,0" transform="translate(1319 2659.5)" fill="#39b3d0"/>
      <path id="Path_41654" data-name="Path 41654" d="M315.886,112.771l-6.174-5.733a1.326,1.326,0,0,0-2.224.97v3.969h-7.056a1.764,1.764,0,1,0,0,3.528h7.056v3.969a1.324,1.324,0,0,0,2.224.97l6.174-5.733a1.328,1.328,0,0,0,0-1.94Zm0,0" transform="translate(1045.027 2796.467)" fill="#39b3d0"/>
    </g>
  </g>
</svg>
