<svg xmlns="http://www.w3.org/2000/svg" width="70" height="70" viewBox="0 0 70 70">
  <g id="features-icon-5" transform="translate(-751 -1567)">
    <g id="Group_18751" data-name="Group 18751">
      <g id="Group_18628" data-name="Group 18628" transform="translate(1396 6886)">
        <circle id="Ellipse_3095" data-name="Ellipse 3095" cx="35" cy="35" r="35" transform="translate(-645 -5319)" fill="#002443"/>
      </g>
      <g id="_004-design-with-header-divided-in-three-areas-in-square-button" data-name="004-design-with-header-divided-in-three-areas-in-square-button" transform="translate(769 1585)">
        <path id="Path_41657" data-name="Path 41657" d="M9.6,0H2.09A2.092,2.092,0,0,0,0,2.09v5.5H9.6Z" fill="#39b3d0"/>
        <path id="Path_41658" data-name="Path 41658" d="M740.9,0H734V7.594h8.987V2.09A2.092,2.092,0,0,0,740.9,0Z" transform="translate(-708.433)" fill="#39b3d0"/>
        <path id="Path_41659" data-name="Path 41659" d="M2.09,322.174H32.464a2.092,2.092,0,0,0,2.09-2.09V298H0v22.084A2.092,2.092,0,0,0,2.09,322.174Z" transform="translate(0 -287.62)" fill="#39b3d0"/>
        <rect id="Rectangle_19085" data-name="Rectangle 19085" width="10.398" height="7.594" transform="translate(12.383)" fill="#39b3d0"/>
      </g>
    </g>
  </g>
</svg>
