<svg xmlns="http://www.w3.org/2000/svg" width="70" height="70" viewBox="0 0 70 70">
  <g id="features-icon-1" transform="translate(-751 -1567)">
    <g id="Group_18628" data-name="Group 18628" transform="translate(1396 6886)">
      <circle id="Ellipse_3095" data-name="Ellipse 3095" cx="35" cy="35" r="35" transform="translate(-645 -5319)" fill="#002443"/>
    </g>
    <g id="_002-newspaper" data-name="002-newspaper" transform="translate(730.449 1581)">
      <g id="Group_18623" data-name="Group 18623" transform="translate(64.939)">
        <g id="Group_18622" data-name="Group 18622">
          <path id="Path_41479" data-name="Path 41479" d="M371.2,0V8.166h8.166Z" transform="translate(-371.2)" fill="#39b3d0"/>
        </g>
      </g>
      <g id="Group_18625" data-name="Group 18625" transform="translate(38.4)">
        <g id="Group_18624" data-name="Group 18624" transform="translate(0)">
          <path id="Path_41480" data-name="Path 41480" d="M60.856,12.249V0H40.441A1.929,1.929,0,0,0,38.4,2.041V38.788a1.929,1.929,0,0,0,2.041,2.041H71.064a2.046,2.046,0,0,0,2.041-2.041V12.249ZM42.483,5.1A.964.964,0,0,1,43.5,4.083H55.753A.964.964,0,0,1,56.773,5.1V13.27a.964.964,0,0,1-1.021,1.021H43.5a.964.964,0,0,1-1.021-1.021ZM60.856,30.622H44.524a2.041,2.041,0,0,1,0-4.083H60.856A1.929,1.929,0,0,1,62.9,28.581,2.046,2.046,0,0,1,60.856,30.622Zm6.124-8.166H44.524a1.929,1.929,0,0,1-2.041-2.041,1.929,1.929,0,0,1,2.041-2.041H66.981a1.929,1.929,0,0,1,2.041,2.041A2.046,2.046,0,0,1,66.981,22.456Z" transform="translate(-38.4)" fill="#39b3d0"/>
        </g>
      </g>
    </g>
  </g>
</svg>
