<svg xmlns="http://www.w3.org/2000/svg" width="70" height="70" viewBox="0 0 70 70">
  <g id="features-icon-6" transform="translate(-1303 -1568)">
    <g id="Group_18631" data-name="Group 18631" transform="translate(552 1)">
      <g id="Group_18628" data-name="Group 18628" transform="translate(1396 6886)">
        <circle id="Ellipse_3095" data-name="Ellipse 3095" cx="35" cy="35" r="35" transform="translate(-645 -5319)" fill="#002443"/>
      </g>
    </g>
    <g id="_004-design-with-header-divided-in-three-areas-in-square-button" data-name="004-design-with-header-divided-in-three-areas-in-square-button" transform="translate(1321 1586)">
      <g id="Path_41657" data-name="Path 41657" fill="none">
        <path d="M9.6,0H2.09A2.092,2.092,0,0,0,0,2.09v5.5H9.6Z" stroke="none"/>
        <path d="M 2.089968681335449 1.999995708465576 C 2.04119873046875 1.999995708465576 1.999998569488525 2.041195392608643 1.999998569488525 2.089965343475342 L 1.999998569488525 5.593555450439453 L 7.596438884735107 5.593555450439453 L 7.596438884735107 1.999995708465576 L 2.089968681335449 1.999995708465576 M 2.089968681335449 -4.291534423828125e-06 L 9.596438407897949 -4.291534423828125e-06 L 9.596438407897949 7.593555450439453 L -9.5367431640625e-07 7.593555450439453 L -9.5367431640625e-07 2.089965343475342 C -9.5367431640625e-07 0.9370055198669434 0.9369983673095703 -4.291534423828125e-06 2.089968681335449 -4.291534423828125e-06 Z" stroke="none" fill="#39b3d0"/>
      </g>
      <g id="Path_41658" data-name="Path 41658" transform="translate(-708.433)" fill="none">
        <path d="M740.9,0H734V7.594h8.987V2.09A2.092,2.092,0,0,0,740.9,0Z" stroke="none"/>
        <path d="M 736.0000610351562 1.999995708465576 L 736.0000610351562 5.593555450439453 L 740.9869384765625 5.593555450439453 L 740.9869384765625 2.089965343475342 C 740.9869384765625 2.041195392608643 740.9456787109375 1.999995708465576 740.8967895507812 1.999995708465576 L 736.0000610351562 1.999995708465576 M 734.0000610351562 -4.291534423828125e-06 L 740.8967895507812 -4.291534423828125e-06 C 742.0499267578125 -4.291534423828125e-06 742.9869384765625 0.9370055198669434 742.9869384765625 2.089965343475342 L 742.9869384765625 7.593555450439453 L 734.0000610351562 7.593555450439453 L 734.0000610351562 -4.291534423828125e-06 Z" stroke="none" fill="#39b3d0"/>
      </g>
      <path id="Path_41659" data-name="Path 41659" d="M2.09,322.174H32.464a2.092,2.092,0,0,0,2.09-2.09V298H0v22.084A2.092,2.092,0,0,0,2.09,322.174Z" transform="translate(0 -287.62)" fill="#39b3d0"/>
      <g id="Rectangle_19085" data-name="Rectangle 19085" transform="translate(12.383)" fill="none" stroke="#39b3d0" stroke-width="2">
        <rect width="10.398" height="7.594" stroke="none"/>
        <rect x="1" y="1" width="8.398" height="5.594" fill="none"/>
      </g>
    </g>
  </g>
</svg>
