<svg id="features-icon-7" xmlns="http://www.w3.org/2000/svg" width="70" height="70" viewBox="0 0 70 70">
  <g id="Group_18626" data-name="Group 18626">
    <circle id="Ellipse_3095" data-name="Ellipse 3095" cx="35" cy="35" r="35" fill="#002443"/>
  </g>
  <g id="_005-refresh" data-name="005-refresh" transform="translate(16 14.949)">
    <g id="Group_18744" data-name="Group 18744" transform="translate(0 0.003)">
      <path id="Path_41660" data-name="Path 41660" d="M42.813,2.089a1.578,1.578,0,0,0-2.262,0L37.284,5.331A19.467,19.467,0,0,0,31.126,1.4,18.968,18.968,0,0,0,23.988,0,18.56,18.56,0,0,0,11.923,4.188a19.6,19.6,0,0,0-6.786,10.92v.176a.815.815,0,0,0,.8.8h5a.754.754,0,0,0,.754-.578,30.387,30.387,0,0,1,1.332-2.941A12.819,12.819,0,0,1,23.987,6.437,12.488,12.488,0,0,1,32.759,9.88L29.29,13.348a1.609,1.609,0,0,0,1.132,2.74h11.26A1.63,1.63,0,0,0,43.29,14.48V3.22A1.543,1.543,0,0,0,42.813,2.089Z" transform="translate(-4.685 -0.003)" fill="#39b3d0"/>
      <path id="Path_41661" data-name="Path 41661" d="M37.172,255.8H32.347a.753.753,0,0,0-.754.578,30.419,30.419,0,0,1-1.332,2.94A12.818,12.818,0,0,1,19.3,265.453a12.543,12.543,0,0,1-4.7-.9,12.975,12.975,0,0,1-4.047-2.564L14,258.541a1.609,1.609,0,0,0-1.131-2.74H1.609a1.545,1.545,0,0,0-1.131.478A1.545,1.545,0,0,0,0,257.41v11.26A1.546,1.546,0,0,0,.477,269.8a1.549,1.549,0,0,0,1.131.478A1.548,1.548,0,0,0,2.74,269.8l3.242-3.243A19.193,19.193,0,0,0,12.1,270.5a18.823,18.823,0,0,0,7.1,1.382A18.426,18.426,0,0,0,31.217,267.7a19.535,19.535,0,0,0,6.736-10.921.431.431,0,0,0,.025-.176.815.815,0,0,0-.805-.8Z" transform="translate(0 -233.282)" fill="#39b3d0"/>
    </g>
  </g>
</svg>
