<svg xmlns="http://www.w3.org/2000/svg" width="280.147" height="291.009" viewBox="0 0 280.147 291.009">
  <g id="first" transform="translate(12.098 37.009)">
    <path id="Path_41717" data-name="Path 41717" d="M87.937,252l-17.48-43.047L26.464,223.894,73.313,121.429l61.473,28.106Z" fill="#39b3d0"/>
    <path id="Path_41718" data-name="Path 41718" d="M128.157,146.5l-43.99,96.212L87.937,252l46.849-102.465Z" fill="#39b3d0"/>
    <path id="Path_41719" data-name="Path 41719" d="M79.941,124.459,35.952,220.671l-9.488,3.223L73.313,121.429Z" fill="#39b3d0"/>
    <path id="Path_41720" data-name="Path 41720" d="M87.937,254h-.043a2,2,0,0,1-1.81-1.247l-16.77-41.3L27.107,225.786a2,2,0,0,1-2.462-2.725L71.493,120.6a2,2,0,0,1,2.65-.987l61.474,28.106a2,2,0,0,1,.987,2.651L89.756,252.831A2,2,0,0,1,87.937,254Zm-17.48-47.047A2,2,0,0,1,72.31,208.2l15.736,38.751,44.089-96.43L74.3,124.079l-44.089,96.43,39.6-13.449a1.98,1.98,0,0,1,.643-.107Z" fill="#690589"/>
    <path id="Path_41721" data-name="Path 41721" d="M168.063,252l17.48-43.047,43.993,14.941L182.687,121.429l-61.473,28.106Z" fill="#39b3d0"/>
    <path id="Path_41722" data-name="Path 41722" d="M127.843,146.5l43.99,96.212L168.063,252,121.214,149.535Z" fill="#39b3d0"/>
    <path id="Path_41723" data-name="Path 41723" d="M176.059,124.459l43.989,96.212,9.488,3.223L182.687,121.429Z" fill="#39b3d0"/>
    <path id="Path_41724" data-name="Path 41724" d="M168.062,254a2,2,0,0,1-1.819-1.169L119.395,150.366a2,2,0,0,1,.987-2.65l61.473-28.106a2,2,0,0,1,2.651.987l46.849,102.465a2,2,0,0,1-2.463,2.725l-42.206-14.333-16.77,41.3A2,2,0,0,1,168.1,254h-.043Zm-44.2-103.477,44.089,96.43L183.689,208.2a2,2,0,0,1,2.5-1.141l39.6,13.449L181.7,124.08Z" fill="#690589"/>
    <circle id="Ellipse_3096" data-name="Ellipse 3096" cx="99.062" cy="99.062" r="99.062" transform="translate(-12.098 103.065) rotate(-45)" fill="#fcc24c"/>
    <path id="Path_41725" data-name="Path 41725" d="M128,4q-2.492,0-4.953.123a99.062,99.062,0,0,1,0,197.876q2.461.121,4.953.124A99.061,99.061,0,1,0,128,4Z" fill="#dea42e"/>
    <path id="Path_41726" data-name="Path 41726" d="M128,4q2.491,0,4.953.123a99.062,99.062,0,0,0,0,197.876q-2.462.121-4.953.124A99.061,99.061,0,1,1,128,4Z" fill="#fce06a"/>
    <g id="Group_18821" data-name="Group 18821">
      <path id="Path_41727" data-name="Path 41727" d="M128,204.124A101.062,101.062,0,1,1,229.061,103.062,101.176,101.176,0,0,1,128,204.124ZM128,6a97.062,97.062,0,1,0,97.061,97.062A97.172,97.172,0,0,0,128,6Z" fill="#690589"/>
      <path id="Path_41728" data-name="Path 41728" d="M128,183.364a80.3,80.3,0,1,1,80.3-80.3A80.394,80.394,0,0,1,128,183.364Zm0-156.6a76.3,76.3,0,1,0,76.3,76.3,76.389,76.389,0,0,0-76.3-76.3Z" fill="#690589"/>
      <path id="Path_41729" data-name="Path 41729" d="M42.246,76.338a2,2,0,0,1-1.888-2.659,113.27,113.27,0,0,1,5.08-12.216,2,2,0,0,1,3.6,1.749A109.5,109.5,0,0,0,44.135,75a2,2,0,0,1-1.889,1.342Z" fill="#690589"/>
    </g>
    <path id="Path_41730" data-name="Path 41730" d="M137.339,146.333a8.143,8.143,0,1,1-16.283-.287V74.165l-5.867,3.374a7.333,7.333,0,0,1-4.107,1.173A8.219,8.219,0,0,1,106.828,63.6l15.733-9.338a9.783,9.783,0,0,1,14.776,8.413v83.654Z" fill="#f4efed"/>
    <path id="Path_41731" data-name="Path 41731" d="M129.116,156.4a10.054,10.054,0,0,1-10.059-10.354V77.622l-2.817,1.62a9.367,9.367,0,0,1-5.157,1.47,9.791,9.791,0,0,1-8.6-5.058,9.443,9.443,0,0,1-1.318-7.427,9.9,9.9,0,0,1,4.664-6.356l15.712-9.325a11.783,11.783,0,0,1,17.8,10.133v83.653a9.871,9.871,0,0,1-3.317,7.41A10.323,10.323,0,0,1,129.116,156.4Zm-8.059-84.235a2,2,0,0,1,2,2v71.881a6.125,6.125,0,0,0,10.286,4.726,5.921,5.921,0,0,0,2-4.44V62.68a7.783,7.783,0,0,0-11.755-6.693L107.85,65.324a5.9,5.9,0,0,0-2.785,3.8,5.491,5.491,0,0,0,.777,4.36c.034.05.065.1.094.153a5.843,5.843,0,0,0,5.147,3.079,5.3,5.3,0,0,0,3-.837c.037-.024.074-.048.112-.07l5.867-3.374a2,2,0,0,1,1-.267Z" fill="#690589"/>
  </g>
</svg>
