<svg xmlns="http://www.w3.org/2000/svg" width="70" height="70" viewBox="0 0 70 70">
  <g id="homepage-icon-3" transform="translate(-1303 -1568)">
    <g id="Group_18631" data-name="Group 18631" transform="translate(552 1)">
      <g id="Group_18628" data-name="Group 18628" transform="translate(1396 6886)">
        <circle id="Ellipse_3095" data-name="Ellipse 3095" cx="35" cy="35" r="35" transform="translate(-645 -5319)" fill="#002443"/>
      </g>
    </g>
    <g id="_003-podium" data-name="003-podium" transform="translate(1318.205 1580.455)">
      <path id="Path_41481" data-name="Path 41481" d="M154.785,16.119a9.162,9.162,0,1,0-11.91,0Zm-8.031-8.656V5.623h3.679v7.235h-2.439v-5.4Zm0,0" transform="translate(-128.668)" fill="#39b3d0"/>
      <path id="Path_41482" data-name="Path 41482" d="M0,273H7.561v18.823H0Zm0,0" transform="translate(0 -251.5)" fill="#39b3d0"/>
      <path id="Path_41483" data-name="Path 41483" d="M133.561,241.2h12.916v-6.537H126v21.841h7.561Zm0,0" transform="translate(-116.077 -216.187)" fill="#39b3d0"/>
      <path id="Path_41484" data-name="Path 41484" d="M252,347.668h20.476V360.61H252Zm0,0" transform="translate(-232.154 -320.287)" fill="#39b3d0"/>
    </g>
  </g>
</svg>
