<svg xmlns="http://www.w3.org/2000/svg" width="70" height="70" viewBox="0 0 70 70">
  <g id="homepage-icon-1" transform="translate(645 5319)">
    <circle id="Ellipse_3095" data-name="Ellipse 3095" cx="35" cy="35" r="35" transform="translate(-645 -5319)" fill="#002443"/>
    <g id="_001-clock" data-name="001-clock" transform="translate(-633.21 -5307.21)">
      <path id="Path_41477" data-name="Path 41477" d="M40.788,20.646H45.5a22.673,22.673,0,0,0-2.559-8.567l-2.549,1.473-.848-1.467,2.535-1.464A23,23,0,0,0,34.963,3.48L33.469,6.045l-1.464-.852,1.5-2.581A22.673,22.673,0,0,0,24.869.017V4.8H20.633V.016a22.692,22.692,0,0,0-8.64,2.593l1.5,2.581-1.464.852L10.54,3.478a23,23,0,0,0-7.115,7.141L5.96,12.083,5.111,13.55,2.562,12.077A22.671,22.671,0,0,0,0,20.645H4.715v4.236H0a22.683,22.683,0,0,0,2.559,8.568l2.55-1.473.848,1.467L3.423,34.908a23,23,0,0,0,7.115,7.141l1.493-2.565,1.464.852-1.5,2.581a22.672,22.672,0,0,0,8.64,2.593V40.728h4.236v4.783a22.692,22.692,0,0,0,8.64-2.593L32,40.337l1.464-.852,1.493,2.565a22.99,22.99,0,0,0,7.115-7.141l-2.535-1.464.848-1.467,2.549,1.473A22.671,22.671,0,0,0,45.5,24.882H40.786V20.646ZM22.253,29a1.727,1.727,0,0,1-1.725,1.725H10.268a1.652,1.652,0,0,1-1.283-.6,1.468,1.468,0,0,1-.288-1.24,6.35,6.35,0,0,1,.777-1.926,9.587,9.587,0,0,1,3.848-3.313,26.468,26.468,0,0,0,3.141-1.99,2.208,2.208,0,0,0,.922-1.67,1.492,1.492,0,0,0-.468-1.136,2,2,0,0,0-1.449-.459,1.868,1.868,0,0,0-1.747.706,2.156,2.156,0,0,0-.228.687,1.823,1.823,0,0,1-1.817,1.4h-1.2A1.636,1.636,0,0,1,9.2,20.6a1.505,1.505,0,0,1-.32-1.241,5.712,5.712,0,0,1,.8-2.1c1.072-1.632,2.959-2.46,5.609-2.46a8.122,8.122,0,0,1,4.979,1.409,4.748,4.748,0,0,1,.576,7.181A12.089,12.089,0,0,1,18.1,25.368l-1.446.821c-.611.348-1.09.63-1.433.843H20.53a1.727,1.727,0,0,1,1.725,1.725V29Zm12.972-1.439a.529.529,0,0,0-.462.575V29a1.727,1.727,0,0,1-1.725,1.725h-1.23A1.727,1.727,0,0,1,30.083,29v-.864a.575.575,0,0,0-.575-.575H24.547a1.727,1.727,0,0,1-1.725-1.725v-.226A4.539,4.539,0,0,1,23.63,23.2l5.357-7.092a3.158,3.158,0,0,1,2.3-1.145h1.748a1.727,1.727,0,0,1,1.725,1.725v6.889a.528.528,0,0,0,.462.575,1.709,1.709,0,0,1,0,3.413Z" transform="translate(0 -0.016)" fill="#39b3d0"/>
      <path id="Path_41478" data-name="Path 41478" d="M219.74,166.775h2.3a.576.576,0,0,0,.575-.575v-3.408l-2.865,3.963C219.749,166.762,219.745,166.769,219.74,166.775Z" transform="translate(-192.535 -142.64)" fill="#39b3d0"/>
    </g>
  </g>
</svg>
