<?xml version="1.0" encoding="iso-8859-1"?>
<!-- Generator: Adobe Illustrator 19.0.0, SVG Export Plug-In . SVG Version: 6.00 Build 0)  -->
<svg version="1.1" id="Layer_1" xmlns="http://www.w3.org/2000/svg" xmlns:xlink="http://www.w3.org/1999/xlink" x="0px" y="0px"
	 viewBox="0 0 512 512" style="enable-background:new 0 0 512 512;" xml:space="preserve">
<g transform="translate(1 1)">
	<g>
		<g>
			<path d="M502.467,118.467H7.533C2.413,118.467-1,121.88-1,127v85.333c0,5.12,3.413,8.533,8.533,8.533h238.933V383
				c0,5.12,3.413,8.533,8.533,8.533h213.333c5.12,0,8.533-3.413,8.533-8.533V220.867h25.6c5.12,0,8.533-3.413,8.533-8.533V127
				C511,121.88,507.587,118.467,502.467,118.467z M459.8,374.467H263.533v-153.6H459.8V374.467z M493.933,203.8h-25.6H255H16.067
				v-68.267h477.867V203.8z"/>
			<path d="M266.093,184.173c1.707,1.707,3.413,2.56,5.973,2.56c2.56,0,4.267-0.853,5.973-2.56l17.067-17.067
				c3.413-3.413,3.413-8.533,0-11.947s-8.533-3.413-11.947,0l-11.093,11.093l-11.093-11.093c-3.413-3.413-8.533-3.413-11.947,0
				s-3.413,8.533,0,11.947L266.093,184.173z"/>
			<path d="M323.267,178.2h145.067c5.12,0,8.533-3.413,8.533-8.533s-3.413-8.533-8.533-8.533H323.267
				c-5.12,0-8.533,3.413-8.533,8.533S318.147,178.2,323.267,178.2z"/>
			<path d="M374.467,255H434.2c5.12,0,8.533-3.413,8.533-8.533s-3.413-8.533-8.533-8.533h-59.733c-5.12,0-8.533,3.413-8.533,8.533
				S369.347,255,374.467,255z"/>
			<path d="M323.267,255h17.067c5.12,0,8.533-3.413,8.533-8.533s-3.413-8.533-8.533-8.533h-17.067c-5.12,0-8.533,3.413-8.533,8.533
				S318.147,255,323.267,255z"/>
			<path d="M323.267,323.267H357.4c5.12,0,8.533-3.413,8.533-8.533s-3.413-8.533-8.533-8.533h-34.133
				c-5.12,0-8.533,3.413-8.533,8.533S318.147,323.267,323.267,323.267z"/>
			<path d="M434.2,306.2h-42.667c-5.12,0-8.533,3.413-8.533,8.533s3.413,8.533,8.533,8.533H434.2c5.12,0,8.533-3.413,8.533-8.533
				S439.32,306.2,434.2,306.2z"/>
			<path d="M41.667,178.2H75.8c5.12,0,8.533-3.413,8.533-8.533s-3.413-8.533-8.533-8.533H41.667c-5.12,0-8.533,3.413-8.533,8.533
				S36.547,178.2,41.667,178.2z"/>
			<path d="M109.933,178.2H178.2c5.12,0,8.533-3.413,8.533-8.533s-3.413-8.533-8.533-8.533h-68.267c-5.12,0-8.533,3.413-8.533,8.533
				S104.813,178.2,109.933,178.2z"/>
			<path d="M289.133,255c5.12,0,8.533-3.413,8.533-8.533s-3.413-8.533-8.533-8.533s-8.533,3.413-8.533,8.533
				S284.013,255,289.133,255z"/>
			<path d="M289.133,289.133c5.12,0,8.533-3.413,8.533-8.533c0-5.12-3.413-8.533-8.533-8.533s-8.533,3.413-8.533,8.533
				C280.6,285.72,284.013,289.133,289.133,289.133z"/>
			<path d="M323.267,289.133H434.2c5.12,0,8.533-3.413,8.533-8.533c0-5.12-3.413-8.533-8.533-8.533H323.267
				c-5.12,0-8.533,3.413-8.533,8.533C314.733,285.72,318.147,289.133,323.267,289.133z"/>
			<path d="M289.133,323.267c5.12,0,8.533-3.413,8.533-8.533s-3.413-8.533-8.533-8.533s-8.533,3.413-8.533,8.533
				S284.013,323.267,289.133,323.267z"/>
			<path d="M323.267,357.4H434.2c5.12,0,8.533-3.413,8.533-8.533c0-5.12-3.413-8.533-8.533-8.533H323.267
				c-5.12,0-8.533,3.413-8.533,8.533C314.733,353.987,318.147,357.4,323.267,357.4z"/>
			<path d="M289.133,357.4c5.12,0,8.533-3.413,8.533-8.533c0-5.12-3.413-8.533-8.533-8.533s-8.533,3.413-8.533,8.533
				C280.6,353.987,284.013,357.4,289.133,357.4z"/>
		</g>
	</g>
</g>
<g>
</g>
<g>
</g>
<g>
</g>
<g>
</g>
<g>
</g>
<g>
</g>
<g>
</g>
<g>
</g>
<g>
</g>
<g>
</g>
<g>
</g>
<g>
</g>
<g>
</g>
<g>
</g>
<g>
</g>
</svg>
