<svg width="70" height="71" viewBox="0 0 70 71" fill="none" xmlns="http://www.w3.org/2000/svg">
<path d="M35 0.813477C15.6719 0.813477 0 16.4854 0 35.8135C0 55.1416 15.6719 70.8135 35 70.8135C54.3281 70.8135 70 55.1416 70 35.8135C70 16.4854 54.3281 0.813477 35 0.813477ZM35 64.876C18.9531 64.876 5.9375 51.8604 5.9375 35.8135C5.9375 19.7666 18.9531 6.75098 35 6.75098C51.0469 6.75098 64.0625 19.7666 64.0625 35.8135C64.0625 51.8604 51.0469 64.876 35 64.876Z" fill="#004EFF"/>
<path d="M38.7269 34.001L36.7425 33.54V23.0479C39.7113 23.4541 41.5473 25.3135 41.8598 27.5947C41.8988 27.9072 42.1644 28.1338 42.4769 28.1338H45.9848C46.352 28.1338 46.641 27.8135 46.6098 27.4463C46.1332 22.5791 42.1254 19.4541 36.7738 18.915V16.3604C36.7738 16.0166 36.4926 15.7354 36.1488 15.7354H33.9535C33.6097 15.7354 33.3285 16.0166 33.3285 16.3604V18.9385C27.7972 19.4775 23.4691 22.5322 23.4691 28.2354C23.4691 33.5166 27.3597 36.0635 31.4457 37.04L33.3754 37.5322V48.6807C29.9222 48.2197 27.9847 46.376 27.5863 43.8916C27.5394 43.5947 27.2738 43.376 26.9691 43.376H23.3597C22.9925 43.376 22.7035 43.6885 22.7347 44.0557C23.0863 48.3525 26.3441 52.3057 33.2972 52.8135V55.2666C33.2972 55.6104 33.5785 55.8916 33.9222 55.8916H36.141C36.4847 55.8916 36.766 55.6104 36.766 55.2588L36.7504 52.7822C42.8676 52.2432 47.2426 48.9697 47.2426 43.0947C47.2348 37.6729 43.7894 35.251 38.7269 34.001ZM33.3675 32.7354C32.93 32.6104 32.5629 32.4932 32.1957 32.3447C29.555 31.3916 28.3285 29.8525 28.3285 27.8682C28.3285 25.0322 30.4769 23.415 33.3675 23.0479V32.7354ZM36.7425 48.7041V38.2588C36.9847 38.3291 37.2035 38.3838 37.4301 38.4307C41.1254 39.5557 42.3676 41.1182 42.3676 43.5166C42.3676 46.5713 40.0707 48.4072 36.7425 48.7041Z" fill="#004EFF"/>
</svg>
