<?xml version="1.0" encoding="iso-8859-1"?>
<!-- Generator: Adobe Illustrator 19.0.0, SVG Export Plug-In . SVG Version: 6.00 Build 0)  -->
<svg version="1.1" id="Layer_1" xmlns="http://www.w3.org/2000/svg" xmlns:xlink="http://www.w3.org/1999/xlink" x="0px" y="0px"
	 viewBox="0 0 512 512" style="enable-background:new 0 0 512 512;" xml:space="preserve">
<g transform="translate(1 1)">
	<g>
		<g>
			<path d="M485.4,67.267H255H24.6C10.093,67.267-1,78.36-1,92.867v324.267c0,14.507,11.093,25.6,25.6,25.6H255h230.4
				c14.507,0,25.6-11.093,25.6-25.6V92.867C511,78.36,499.907,67.267,485.4,67.267z M249.027,291.693
				c-1.707,1.707-2.56,3.413-2.56,5.973v128H24.6c-5.12,0-8.533-3.413-8.533-8.533V92.867c0-5.12,3.413-8.533,8.533-8.533h221.867
				v128c0,2.56,0.853,4.267,2.56,5.973L285.72,255L249.027,291.693z M493.933,417.133c0,5.12-3.413,8.533-8.533,8.533H263.533
				V301.08l40.107-40.107c3.413-3.413,3.413-8.533,0-11.947l-40.107-40.107V84.333H485.4c5.12,0,8.533,3.413,8.533,8.533V417.133z"
				/>
			<path d="M50.2,127h68.267c5.12,0,8.533-3.413,8.533-8.533s-3.413-8.533-8.533-8.533H50.2c-5.12,0-8.533,3.413-8.533,8.533
				S45.08,127,50.2,127z"/>
			<path d="M75.8,152.6c0,5.12,3.413,8.533,8.533,8.533H152.6c5.12,0,8.533-3.413,8.533-8.533c0-5.12-3.413-8.533-8.533-8.533
				H84.333C79.213,144.067,75.8,147.48,75.8,152.6z"/>
			<path d="M186.733,178.2h-102.4c-5.12,0-8.533,3.413-8.533,8.533s3.413,8.533,8.533,8.533h102.4c5.12,0,8.533-3.413,8.533-8.533
				S191.853,178.2,186.733,178.2z"/>
			<path d="M50.2,229.4h68.267c5.12,0,8.533-3.413,8.533-8.533c0-5.12-3.413-8.533-8.533-8.533H50.2
				c-5.12,0-8.533,3.413-8.533,8.533C41.667,225.987,45.08,229.4,50.2,229.4z"/>
			<path d="M50.2,263.533h34.133c5.12,0,8.533-3.413,8.533-8.533s-3.413-8.533-8.533-8.533H50.2c-5.12,0-8.533,3.413-8.533,8.533
				S45.08,263.533,50.2,263.533z"/>
			<path d="M75.8,289.133c0,5.12,3.413,8.533,8.533,8.533H152.6c5.12,0,8.533-3.413,8.533-8.533s-3.413-8.533-8.533-8.533H84.333
				C79.213,280.6,75.8,284.013,75.8,289.133z"/>
			<path d="M186.733,314.733h-68.267c-5.12,0-8.533,3.413-8.533,8.533s3.413,8.533,8.533,8.533h68.267
				c5.12,0,8.533-3.413,8.533-8.533S191.853,314.733,186.733,314.733z"/>
			<path d="M297.667,331.8h42.667c5.12,0,8.533-3.413,8.533-8.533s-3.413-8.533-8.533-8.533h-42.667
				c-5.12,0-8.533,3.413-8.533,8.533S292.547,331.8,297.667,331.8z"/>
			<path d="M135.533,383H67.267c-5.12,0-8.533,3.413-8.533,8.533s3.413,8.533,8.533,8.533h68.267c5.12,0,8.533-3.413,8.533-8.533
				S140.653,383,135.533,383z"/>
			<path d="M92.867,357.4c0-5.12-3.413-8.533-8.533-8.533H50.2c-5.12,0-8.533,3.413-8.533,8.533s3.413,8.533,8.533,8.533h34.133
				C89.453,365.933,92.867,362.52,92.867,357.4z"/>
			<path d="M374.467,118.467c0-5.12-3.413-8.533-8.533-8.533h-68.267c-5.12,0-8.533,3.413-8.533,8.533s3.413,8.533,8.533,8.533
				h68.267C371.053,127,374.467,123.587,374.467,118.467z"/>
			<path d="M323.267,152.6c0,5.12,3.413,8.533,8.533,8.533h93.867c5.12,0,8.533-3.413,8.533-8.533c0-5.12-3.413-8.533-8.533-8.533
				H331.8C326.68,144.067,323.267,147.48,323.267,152.6z"/>
			<path d="M442.733,178.2H331.8c-5.12,0-8.533,3.413-8.533,8.533s3.413,8.533,8.533,8.533h110.933c5.12,0,8.533-3.413,8.533-8.533
				S447.853,178.2,442.733,178.2z"/>
			<path d="M417.133,229.4c5.12,0,8.533-3.413,8.533-8.533c0-5.12-3.413-8.533-8.533-8.533h-51.2c-5.12,0-8.533,3.413-8.533,8.533
				c0,5.12,3.413,8.533,8.533,8.533H417.133z"/>
			<path d="M348.867,255c0,5.12,3.413,8.533,8.533,8.533h17.067c5.12,0,8.533-3.413,8.533-8.533s-3.413-8.533-8.533-8.533H357.4
				C352.28,246.467,348.867,249.88,348.867,255z"/>
			<path d="M425.667,280.6h-85.333c-5.12,0-8.533,3.413-8.533,8.533s3.413,8.533,8.533,8.533h85.333c5.12,0,8.533-3.413,8.533-8.533
				S430.787,280.6,425.667,280.6z"/>
			<path d="M365.933,383h-68.267c-5.12,0-8.533,3.413-8.533,8.533s3.413,8.533,8.533,8.533h68.267c5.12,0,8.533-3.413,8.533-8.533
				S371.053,383,365.933,383z"/>
			<path d="M383,348.867h-59.733c-5.12,0-8.533,3.413-8.533,8.533s3.413,8.533,8.533,8.533H383c5.12,0,8.533-3.413,8.533-8.533
				S388.12,348.867,383,348.867z"/>
		</g>
	</g>
</g>
<g>
</g>
<g>
</g>
<g>
</g>
<g>
</g>
<g>
</g>
<g>
</g>
<g>
</g>
<g>
</g>
<g>
</g>
<g>
</g>
<g>
</g>
<g>
</g>
<g>
</g>
<g>
</g>
<g>
</g>
</svg>
