<svg width="70" height="56" viewBox="0 0 70 56" fill="none" xmlns="http://www.w3.org/2000/svg">
<path d="M67.5 0.313477H2.5C1.11719 0.313477 0 1.43066 0 2.81348V52.8135C0 54.1963 1.11719 55.3135 2.5 55.3135H67.5C68.8828 55.3135 70 54.1963 70 52.8135V2.81348C70 1.43066 68.8828 0.313477 67.5 0.313477ZM64.375 49.6885H5.625V5.93848H64.375V49.6885Z" fill="#004EFF"/>
<path d="M12.8981 43.2584C13.1403 43.5006 13.5387 43.5006 13.7809 43.2584L27.2575 29.7818L36.195 38.7271C36.4371 38.9693 36.8356 38.9693 37.0778 38.7271L60.2809 15.5084C60.5231 15.2662 60.5231 14.8678 60.2809 14.6256L57.4059 11.7506C57.2884 11.6343 57.1298 11.569 56.9645 11.569C56.7992 11.569 56.6405 11.6343 56.5231 11.7506L36.6403 31.6412L27.7028 22.6959C27.5853 22.5796 27.4267 22.5143 27.2614 22.5143C27.0961 22.5143 26.9374 22.5796 26.82 22.6959L10.0309 39.4928C9.91458 39.6102 9.84933 39.7689 9.84933 39.9342C9.84933 40.0995 9.91458 40.2581 10.0309 40.3756L12.8981 43.2584Z" fill="#004EFF"/>
</svg>
