<svg width="70" height="74" viewBox="0 0 70 74" fill="none" xmlns="http://www.w3.org/2000/svg">
<path d="M68.928 60.0187H61.7851V52.8758C61.7851 52.483 61.4637 52.1616 61.0708 52.1616H56.7851C56.3922 52.1616 56.0708 52.483 56.0708 52.8758V60.0187H48.928C48.5351 60.0187 48.2137 60.3401 48.2137 60.733V65.0187C48.2137 65.4116 48.5351 65.733 48.928 65.733H56.0708V72.8758C56.0708 73.2687 56.3922 73.5901 56.7851 73.5901H61.0708C61.4637 73.5901 61.7851 73.2687 61.7851 72.8758V65.733H68.928C69.3208 65.733 69.6423 65.4116 69.6423 65.0187V60.733C69.6423 60.3401 69.3208 60.0187 68.928 60.0187ZM22.6333 35.5901C22.553 34.8133 22.5083 34.0276 22.5083 33.233C22.5083 31.8133 22.6422 30.4294 22.8922 29.0812C22.9547 28.7598 22.7851 28.4294 22.4905 28.2955C21.2762 27.7508 20.1601 27.0008 19.1958 26.0544C18.0596 24.9527 17.1654 23.6262 16.5705 22.1596C15.9756 20.693 15.6929 19.1185 15.7405 17.5366C15.8208 14.6705 16.9726 11.9473 18.9815 9.8937C21.1869 7.63477 24.1512 6.40262 27.303 6.43834C30.1512 6.46512 32.9012 7.56334 34.9815 9.50977C35.6869 10.1705 36.294 10.9026 36.803 11.6883C36.9815 11.9651 37.3297 12.0812 37.6333 11.9741C39.2047 11.4294 40.8655 11.0455 42.5708 10.8669C43.0708 10.8133 43.3565 10.2776 43.1333 9.8312C40.2315 4.09012 34.303 0.125839 27.4458 0.0186965C17.553 -0.133089 9.30296 7.98298 9.30296 17.8758C9.30296 23.483 11.8833 28.483 15.928 31.7598C13.0887 33.0723 10.4726 34.8848 8.20474 37.1526C3.31189 42.0366 0.544029 48.483 0.365458 55.3669C0.363075 55.4622 0.37979 55.557 0.414618 55.6457C0.449445 55.7345 0.501681 55.8153 0.568248 55.8836C0.634814 55.9518 0.714364 56.006 0.80221 56.043C0.890056 56.08 0.984421 56.0991 1.07974 56.099H6.08867C6.4726 56.099 6.79403 55.7955 6.80296 55.4116C6.9726 50.233 9.07081 45.3848 12.7583 41.7062C15.3833 39.0812 18.5976 37.2598 22.1065 36.3758C22.4458 36.2776 22.678 35.9473 22.6333 35.5901ZM62.8565 33.233C62.8565 23.4651 55.0083 15.5276 45.2762 15.3758C35.3833 15.2241 27.1422 23.3401 27.1422 33.233C27.1422 38.8401 29.7315 43.8401 33.7672 47.1169C30.8986 48.4467 28.2871 50.2723 26.053 52.5098C21.1601 57.3937 18.3922 63.8401 18.2137 70.7151C18.2113 70.8104 18.228 70.9052 18.2628 70.994C18.2977 71.0827 18.3499 71.1636 18.4165 71.2318C18.483 71.3 18.5626 71.3542 18.6504 71.3912C18.7383 71.4282 18.8326 71.4473 18.928 71.4473H23.928C24.3119 71.4473 24.6333 71.1437 24.6422 70.7598C24.8119 65.5812 26.9101 60.733 30.5976 57.0544C34.4458 53.2062 39.553 51.0901 44.9994 51.0901C54.8565 51.0901 62.8565 43.0991 62.8565 33.233ZM53.0797 41.3133C50.919 43.4741 48.053 44.6616 44.9994 44.6616C41.9458 44.6616 39.0797 43.4741 36.919 41.3133C35.8408 40.2407 34.9889 38.9626 34.4137 37.5547C33.8386 36.1467 33.552 34.6377 33.5708 33.1169C33.5976 30.1883 34.7672 27.358 36.8119 25.2598C38.9547 23.0633 41.8208 21.8401 44.8833 21.8044C47.9101 21.7776 50.8476 22.9562 53.0083 25.0723C55.2226 27.2419 56.4369 30.1437 56.4369 33.233C56.428 36.2866 55.2405 39.1526 53.0797 41.3133Z" fill="#004EFF"/>
</svg>
