<svg xmlns="http://www.w3.org/2000/svg" width="167.75" height="167.756" viewBox="0 0 167.75 167.756">
  <g id="Group_18638" data-name="Group 18638" transform="translate(231.253 39.867) rotate(135)" opacity="0.197">
    <path id="Path_41315" data-name="Path 41315" d="M83.2,31.624a4.405,4.405,0,1,0,4.379,4.413A4.265,4.265,0,0,0,83.2,31.624Z" transform="translate(74.113 37.059)" fill="#838383"/>
    <path id="Path_41316" data-name="Path 41316" d="M102.519,31.624a4.407,4.407,0,1,0,4.285,4.509A4.275,4.275,0,0,0,102.519,31.624Z" transform="translate(98.816 37.058)" fill="#838383"/>
    <path id="Path_41317" data-name="Path 41317" d="M121.678,31.624a4.406,4.406,0,1,0,4.344,4.447A4.267,4.267,0,0,0,121.678,31.624Z" transform="translate(123.522 37.058)" fill="#838383"/>
    <path id="Path_41318" data-name="Path 41318" d="M35.126,50.044a4.405,4.405,0,1,0-4.392-4.422A4.249,4.249,0,0,0,35.126,50.044Z" transform="translate(12.352 49.411)" fill="#838383"/>
    <path id="Path_41319" data-name="Path 41319" d="M54.283,50.047a4.407,4.407,0,1,0-4.328-4.488A4.261,4.261,0,0,0,54.283,50.047Z" transform="translate(37.056 49.41)" fill="#838383"/>
    <path id="Path_41320" data-name="Path 41320" d="M73.531,41.234a4.405,4.405,0,1,0,4.44,4.354A4.262,4.262,0,0,0,73.531,41.234Z" transform="translate(61.762 49.411)" fill="#838383"/>
    <path id="Path_41321" data-name="Path 41321" d="M92.983,41.235a4.411,4.411,0,1,0,4.212,4.58A4.28,4.28,0,0,0,92.983,41.235Z" transform="translate(86.463 49.409)" fill="#838383"/>
    <path id="Path_41322" data-name="Path 41322" d="M112.1,41.234a4.407,4.407,0,1,0,4.317,4.475A4.27,4.27,0,0,0,112.1,41.234Z" transform="translate(111.17 49.411)" fill="#838383"/>
    <path id="Path_41323" data-name="Path 41323" d="M44.768,59.654a4.405,4.405,0,1,0-4.42-4.386A4.252,4.252,0,0,0,44.768,59.654Z" transform="translate(24.71 61.763)" fill="#838383"/>
    <path id="Path_41324" data-name="Path 41324" d="M59.575,54.932a4.4,4.4,0,1,0,4.708-4.082A4.292,4.292,0,0,0,59.575,54.932Z" transform="translate(49.412 61.761)" fill="#838383"/>
    <path id="Path_41325" data-name="Path 41325" d="M83.367,50.845a4.411,4.411,0,1,0,4.212,4.58A4.263,4.263,0,0,0,83.367,50.845Z" transform="translate(74.117 61.761)" fill="#838383"/>
    <path id="Path_41326" data-name="Path 41326" d="M102.336,50.844a4.4,4.4,0,1,0,4.463,4.328A4.256,4.256,0,0,0,102.336,50.844Z" transform="translate(98.821 61.763)" fill="#838383"/>
    <path id="Path_41327" data-name="Path 41327" d="M54.349,69.264a4.405,4.405,0,1,0-4.395-4.42A4.25,4.25,0,0,0,54.349,69.264Z" transform="translate(37.057 74.115)" fill="#838383"/>
    <path id="Path_41328" data-name="Path 41328" d="M73.488,60.454a4.4,4.4,0,1,0,4.484,4.308A4.266,4.266,0,0,0,73.488,60.454Z" transform="translate(61.762 74.115)" fill="#838383"/>
    <path id="Path_41329" data-name="Path 41329" d="M92.878,60.454a4.407,4.407,0,1,0,4.315,4.477A4.269,4.269,0,0,0,92.878,60.454Z" transform="translate(86.465 74.115)" fill="#838383"/>
    <path id="Path_41330" data-name="Path 41330" d="M63.8,78.88a4.411,4.411,0,1,0-4.232-4.591A4.271,4.271,0,0,0,63.8,78.88Z" transform="translate(49.406 86.466)" fill="#838383"/>
    <path id="Path_41331" data-name="Path 41331" d="M83.3,70.065a4.408,4.408,0,1,0,4.283,4.511A4.27,4.27,0,0,0,83.3,70.065Z" transform="translate(74.113 86.467)" fill="#838383"/>
    <path id="Path_41332" data-name="Path 41332" d="M73.5,79.674A4.4,4.4,0,1,0,77.972,84,4.266,4.266,0,0,0,73.5,79.674Z" transform="translate(61.762 98.819)" fill="#838383"/>
    <path id="Path_41333" data-name="Path 41333" d="M54.375,11.6a4.25,4.25,0,0,0,4.376-4.422,4.4,4.4,0,1,0-8.8.027A4.274,4.274,0,0,0,54.375,11.6Z" transform="translate(37.058 0.002)" fill="#838383"/>
    <path id="Path_41334" data-name="Path 41334" d="M77.975,7.511a4.408,4.408,0,1,0-8.794-.626,4.408,4.408,0,1,0,8.794.626Z" transform="translate(61.759 0)" fill="#838383"/>
    <path id="Path_41335" data-name="Path 41335" d="M92.878,2.794A4.271,4.271,0,0,0,88.394,7.12a4.4,4.4,0,1,0,8.8.151A4.243,4.243,0,0,0,92.878,2.794Z" transform="translate(86.465 0.002)" fill="#838383"/>
    <path id="Path_41336" data-name="Path 41336" d="M44.825,21.212a4.25,4.25,0,0,0,4.312-4.484,4.4,4.4,0,1,0-8.789.155A4.262,4.262,0,0,0,44.825,21.212Z" transform="translate(24.709 12.354)" fill="#838383"/>
    <path id="Path_41337" data-name="Path 41337" d="M64.043,12.4a4.252,4.252,0,0,0-4.475,4.326,4.4,4.4,0,1,0,8.789.153A4.243,4.243,0,0,0,64.043,12.4Z" transform="translate(49.414 12.354)" fill="#838383"/>
    <path id="Path_41338" data-name="Path 41338" d="M83.229,12.4a4.25,4.25,0,0,0-4.44,4.36,4.395,4.395,0,1,0,8.789.082A4.238,4.238,0,0,0,83.229,12.4Z" transform="translate(74.118 12.354)" fill="#838383"/>
    <path id="Path_41339" data-name="Path 41339" d="M102.395,12.4a4.255,4.255,0,0,0-4.388,4.415,4.4,4.4,0,1,0,8.792-.027A4.239,4.239,0,0,0,102.395,12.4Z" transform="translate(98.821 12.354)" fill="#838383"/>
    <path id="Path_41340" data-name="Path 41340" d="M35.095,30.826a4.257,4.257,0,0,0,4.438-4.365,4.4,4.4,0,1,0-8.8-.091A4.282,4.282,0,0,0,35.095,30.826Z" transform="translate(12.352 24.706)" fill="#838383"/>
    <path id="Path_41341" data-name="Path 41341" d="M54.317,30.826a4.256,4.256,0,0,0,4.436-4.365,4.4,4.4,0,1,0-8.8-.091A4.283,4.283,0,0,0,54.317,30.826Z" transform="translate(37.057 24.706)" fill="#838383"/>
    <path id="Path_41342" data-name="Path 41342" d="M73.766,22.015A4.411,4.411,0,1,0,73.4,30.83,4.271,4.271,0,0,0,77.975,26.6,4.251,4.251,0,0,0,73.766,22.015Z" transform="translate(61.758 24.705)" fill="#838383"/>
    <path id="Path_41343" data-name="Path 41343" d="M92.816,22.014A4.265,4.265,0,0,0,88.394,26.4a4.4,4.4,0,1,0,8.8.027A4.238,4.238,0,0,0,92.816,22.014Z" transform="translate(86.465 24.706)" fill="#838383"/>
    <path id="Path_41344" data-name="Path 41344" d="M112.064,22.014a4.267,4.267,0,0,0-4.45,4.36,4.4,4.4,0,1,0,8.8.085A4.24,4.24,0,0,0,112.064,22.014Z" transform="translate(111.17 24.706)" fill="#838383"/>
    <path id="Path_41345" data-name="Path 41345" d="M25.489,40.436a4.406,4.406,0,0,0,.085-8.812,4.406,4.406,0,1,0-.085,8.812Z" transform="translate(0 37.058)" fill="#838383"/>
    <path id="Path_41346" data-name="Path 41346" d="M44.575,40.44a4.411,4.411,0,1,0-4.23-4.594A4.271,4.271,0,0,0,44.575,40.44Z" transform="translate(24.702 37.057)" fill="#838383"/>
    <path id="Path_41347" data-name="Path 41347" d="M64.039,31.624a4.407,4.407,0,1,0,4.324,4.468A4.268,4.268,0,0,0,64.039,31.624Z" transform="translate(49.409 37.058)" fill="#838383"/>
  </g>
</svg>
