<svg xmlns="http://www.w3.org/2000/svg" xmlns:xlink="http://www.w3.org/1999/xlink" width="814.293" height="559.806" viewBox="0 0 814.293 559.806">
  <defs>
    <filter id="Path_41237" x="106.72" y="50.609" width="643" height="428" filterUnits="userSpaceOnUse">
      <feOffset dy="10" input="SourceAlpha"/>
      <feGaussianBlur stdDeviation="10" result="blur"/>
      <feFlood flood-opacity="0.161"/>
      <feComposite operator="in" in2="blur"/>
      <feComposite in="SourceGraphic"/>
    </filter>
    <filter id="Rectangle_18784" x="549.72" y="142.404" width="164" height="272" filterUnits="userSpaceOnUse">
      <feOffset dy="5" input="SourceAlpha"/>
      <feGaussianBlur stdDeviation="5" result="blur-2"/>
      <feFlood flood-opacity="0.161"/>
      <feComposite operator="in" in2="blur-2"/>
      <feComposite in="SourceGraphic"/>
    </filter>
    <filter id="Rectangle_18511" x="64.853" y="273.324" width="484.035" height="201.582" filterUnits="userSpaceOnUse">
      <feOffset dy="5" input="SourceAlpha"/>
      <feGaussianBlur stdDeviation="5" result="blur-3"/>
      <feFlood flood-opacity="0.161"/>
      <feComposite operator="in" in2="blur-3"/>
      <feComposite in="SourceGraphic"/>
    </filter>
    <filter id="Rectangle_18818" x="200.853" y="81.324" width="241.035" height="201.582" filterUnits="userSpaceOnUse">
      <feOffset dy="5" input="SourceAlpha"/>
      <feGaussianBlur stdDeviation="5" result="blur-4"/>
      <feFlood flood-opacity="0.161"/>
      <feComposite operator="in" in2="blur-4"/>
      <feComposite in="SourceGraphic"/>
    </filter>
  </defs>
  <g id="features-vector-3" transform="translate(-971 -2286.391)">
    <g id="Group_18501" data-name="Group 18501" transform="translate(11 -67.205)">
      <g id="Group_18519" data-name="Group 18519">
        <g id="Group_18499" data-name="Group 18499" transform="translate(1574.151 2735.275)" opacity="0.2">
          <path id="Path_41315" data-name="Path 41315" d="M81.746,31.624a2.952,2.952,0,1,0,2.934,2.957A2.858,2.858,0,0,0,81.746,31.624Z" transform="translate(30.647 15.324)" fill="#838383"/>
          <path id="Path_41316" data-name="Path 41316" d="M101.029,31.624a2.954,2.954,0,1,0,2.872,3.022A2.865,2.865,0,0,0,101.029,31.624Z" transform="translate(40.861 15.324)" fill="#838383"/>
          <path id="Path_41317" data-name="Path 41317" d="M120.209,31.624a2.953,2.953,0,1,0,2.911,2.98A2.86,2.86,0,0,0,120.209,31.624Z" transform="translate(51.078 15.324)" fill="#838383"/>
          <path id="Path_41318" data-name="Path 41318" d="M33.678,47.138a2.952,2.952,0,1,0-2.944-2.963A2.847,2.847,0,0,0,33.678,47.138Z" transform="translate(5.108 20.432)" fill="#838383"/>
          <path id="Path_41319" data-name="Path 41319" d="M52.855,47.14a2.953,2.953,0,1,0-2.9-3.008A2.855,2.855,0,0,0,52.855,47.14Z" transform="translate(15.323 20.432)" fill="#838383"/>
          <path id="Path_41320" data-name="Path 41320" d="M72.094,41.234a2.952,2.952,0,1,0,2.976,2.918A2.856,2.856,0,0,0,72.094,41.234Z" transform="translate(25.539 20.432)" fill="#838383"/>
          <path id="Path_41321" data-name="Path 41321" d="M91.469,41.235A2.956,2.956,0,1,0,94.291,44.3,2.868,2.868,0,0,0,91.469,41.235Z" transform="translate(35.753 20.431)" fill="#838383"/>
          <path id="Path_41322" data-name="Path 41322" d="M110.617,41.234a2.953,2.953,0,1,0,2.893,3A2.861,2.861,0,0,0,110.617,41.234Z" transform="translate(45.97 20.432)" fill="#838383"/>
          <path id="Path_41323" data-name="Path 41323" d="M43.31,56.748a2.952,2.952,0,1,0-2.962-2.939A2.849,2.849,0,0,0,43.31,56.748Z" transform="translate(10.218 25.54)" fill="#838383"/>
          <path id="Path_41324" data-name="Path 41324" d="M59.572,53.583a2.951,2.951,0,1,0,3.155-2.735A2.876,2.876,0,0,0,59.572,53.583Z" transform="translate(20.432 25.539)" fill="#838383"/>
          <path id="Path_41325" data-name="Path 41325" d="M81.856,50.845a2.956,2.956,0,1,0,2.823,3.069A2.857,2.857,0,0,0,81.856,50.845Z" transform="translate(30.648 25.539)" fill="#838383"/>
          <path id="Path_41326" data-name="Path 41326" d="M100.908,50.844a2.952,2.952,0,1,0,2.991,2.9A2.852,2.852,0,0,0,100.908,50.844Z" transform="translate(40.864 25.539)" fill="#838383"/>
          <path id="Path_41327" data-name="Path 41327" d="M52.9,66.358A2.952,2.952,0,1,0,49.954,63.4,2.848,2.848,0,0,0,52.9,66.358Z" transform="translate(15.323 30.647)" fill="#838383"/>
          <path id="Path_41328" data-name="Path 41328" d="M72.065,60.454a2.952,2.952,0,1,0,3,2.887A2.859,2.859,0,0,0,72.065,60.454Z" transform="translate(25.539 30.647)" fill="#838383"/>
          <path id="Path_41329" data-name="Path 41329" d="M91.4,60.454a2.953,2.953,0,1,0,2.891,3A2.861,2.861,0,0,0,91.4,60.454Z" transform="translate(35.754 30.647)" fill="#838383"/>
          <path id="Path_41330" data-name="Path 41330" d="M62.4,75.972a2.956,2.956,0,1,0-2.836-3.077A2.862,2.862,0,0,0,62.4,75.972Z" transform="translate(20.43 35.755)" fill="#838383"/>
          <path id="Path_41331" data-name="Path 41331" d="M81.81,70.064a2.954,2.954,0,1,0,2.87,3.023A2.861,2.861,0,0,0,81.81,70.064Z" transform="translate(30.646 35.755)" fill="#838383"/>
          <path id="Path_41332" data-name="Path 41332" d="M72.076,79.674a2.952,2.952,0,1,0,2.994,2.9A2.859,2.859,0,0,0,72.076,79.674Z" transform="translate(25.539 40.863)" fill="#838383"/>
          <path id="Path_41333" data-name="Path 41333" d="M52.917,8.7A2.848,2.848,0,0,0,55.85,5.734a2.947,2.947,0,1,0-5.895.018A2.864,2.864,0,0,0,52.917,8.7Z" transform="translate(15.324 0.001)" fill="#838383"/>
          <path id="Path_41334" data-name="Path 41334" d="M75.071,5.954a2.954,2.954,0,1,0-5.893-.42,2.954,2.954,0,1,0,5.893.42Z" transform="translate(25.538 0)" fill="#838383"/>
          <path id="Path_41335" data-name="Path 41335" d="M91.4,2.794a2.862,2.862,0,0,0-3,2.9,2.949,2.949,0,1,0,5.9.1A2.843,2.843,0,0,0,91.4,2.794Z" transform="translate(35.754 0.001)" fill="#838383"/>
          <path id="Path_41336" data-name="Path 41336" d="M43.348,18.307a2.848,2.848,0,0,0,2.89-3,2.946,2.946,0,1,0-5.89.1A2.856,2.856,0,0,0,43.348,18.307Z" transform="translate(10.218 5.108)" fill="#838383"/>
          <path id="Path_41337" data-name="Path 41337" d="M62.567,12.4a2.85,2.85,0,0,0-3,2.9,2.946,2.946,0,1,0,5.89.1A2.844,2.844,0,0,0,62.567,12.4Z" transform="translate(20.433 5.108)" fill="#838383"/>
          <path id="Path_41338" data-name="Path 41338" d="M81.764,12.4a2.848,2.848,0,0,0-2.976,2.922,2.945,2.945,0,1,0,5.89.055A2.84,2.84,0,0,0,81.764,12.4Z" transform="translate(30.649 5.109)" fill="#838383"/>
          <path id="Path_41339" data-name="Path 41339" d="M100.947,12.4a2.851,2.851,0,0,0-2.94,2.959,2.946,2.946,0,1,0,5.892-.018A2.841,2.841,0,0,0,100.947,12.4Z" transform="translate(40.864 5.109)" fill="#838383"/>
          <path id="Path_41340" data-name="Path 41340" d="M33.656,27.92a2.953,2.953,0,1,0-2.922-2.986A2.853,2.853,0,0,0,33.656,27.92Z" transform="translate(5.108 10.216)" fill="#838383"/>
          <path id="Path_41341" data-name="Path 41341" d="M52.878,27.92a2.953,2.953,0,1,0-2.924-2.986A2.852,2.852,0,0,0,52.878,27.92Z" transform="translate(15.323 10.216)" fill="#838383"/>
          <path id="Path_41342" data-name="Path 41342" d="M72.25,22.015a2.956,2.956,0,1,0,2.821,3.071A2.869,2.869,0,0,0,72.25,22.015Z" transform="translate(25.538 10.216)" fill="#838383"/>
          <path id="Path_41343" data-name="Path 41343" d="M91.357,22.014a2.952,2.952,0,1,0,2.933,2.959A2.858,2.858,0,0,0,91.357,22.014Z" transform="translate(35.754 10.216)" fill="#838383"/>
          <path id="Path_41344" data-name="Path 41344" d="M110.6,22.014a2.953,2.953,0,1,0,2.914,2.979A2.86,2.86,0,0,0,110.6,22.014Z" transform="translate(45.97 10.216)" fill="#838383"/>
          <path id="Path_41345" data-name="Path 41345" d="M24.049,37.53a2.953,2.953,0,1,0-2.925-2.983A2.852,2.852,0,0,0,24.049,37.53Z" transform="translate(0 15.324)" fill="#838383"/>
          <path id="Path_41346" data-name="Path 41346" d="M43.178,37.532a2.956,2.956,0,1,0-2.835-3.078A2.862,2.862,0,0,0,43.178,37.532Z" transform="translate(10.214 15.323)" fill="#838383"/>
          <path id="Path_41347" data-name="Path 41347" d="M62.563,31.624a2.953,2.953,0,1,0,2.9,2.994A2.86,2.86,0,0,0,62.563,31.624Z" transform="translate(20.431 15.324)" fill="#838383"/>
        </g>
        <g id="Group_18500" data-name="Group 18500" transform="translate(1297.279 2416.711) rotate(135)" opacity="0.197">
          <path id="Path_41315-2" data-name="Path 41315" d="M83.2,31.624a4.405,4.405,0,1,0,4.379,4.413A4.265,4.265,0,0,0,83.2,31.624Z" transform="translate(74.113 37.059)" fill="#838383"/>
          <path id="Path_41316-2" data-name="Path 41316" d="M102.519,31.624a4.407,4.407,0,1,0,4.285,4.509A4.275,4.275,0,0,0,102.519,31.624Z" transform="translate(98.816 37.058)" fill="#838383"/>
          <path id="Path_41317-2" data-name="Path 41317" d="M121.678,31.624a4.406,4.406,0,1,0,4.344,4.447A4.267,4.267,0,0,0,121.678,31.624Z" transform="translate(123.522 37.058)" fill="#838383"/>
          <path id="Path_41318-2" data-name="Path 41318" d="M35.126,50.044a4.405,4.405,0,1,0-4.392-4.422A4.249,4.249,0,0,0,35.126,50.044Z" transform="translate(12.352 49.411)" fill="#838383"/>
          <path id="Path_41319-2" data-name="Path 41319" d="M54.283,50.047a4.407,4.407,0,1,0-4.328-4.488A4.261,4.261,0,0,0,54.283,50.047Z" transform="translate(37.056 49.41)" fill="#838383"/>
          <path id="Path_41320-2" data-name="Path 41320" d="M73.531,41.234a4.405,4.405,0,1,0,4.44,4.354A4.262,4.262,0,0,0,73.531,41.234Z" transform="translate(61.762 49.411)" fill="#838383"/>
          <path id="Path_41321-2" data-name="Path 41321" d="M92.983,41.235a4.411,4.411,0,1,0,4.212,4.58A4.28,4.28,0,0,0,92.983,41.235Z" transform="translate(86.463 49.409)" fill="#838383"/>
          <path id="Path_41322-2" data-name="Path 41322" d="M112.1,41.234a4.407,4.407,0,1,0,4.317,4.475A4.27,4.27,0,0,0,112.1,41.234Z" transform="translate(111.17 49.411)" fill="#838383"/>
          <path id="Path_41323-2" data-name="Path 41323" d="M44.768,59.654a4.405,4.405,0,1,0-4.42-4.386A4.252,4.252,0,0,0,44.768,59.654Z" transform="translate(24.71 61.763)" fill="#838383"/>
          <path id="Path_41324-2" data-name="Path 41324" d="M59.575,54.932a4.4,4.4,0,1,0,4.708-4.082A4.292,4.292,0,0,0,59.575,54.932Z" transform="translate(49.412 61.761)" fill="#838383"/>
          <path id="Path_41325-2" data-name="Path 41325" d="M83.367,50.845a4.411,4.411,0,1,0,4.212,4.58A4.263,4.263,0,0,0,83.367,50.845Z" transform="translate(74.117 61.761)" fill="#838383"/>
          <path id="Path_41326-2" data-name="Path 41326" d="M102.336,50.844a4.4,4.4,0,1,0,4.463,4.328A4.256,4.256,0,0,0,102.336,50.844Z" transform="translate(98.821 61.763)" fill="#838383"/>
          <path id="Path_41327-2" data-name="Path 41327" d="M54.349,69.264a4.405,4.405,0,1,0-4.395-4.42A4.25,4.25,0,0,0,54.349,69.264Z" transform="translate(37.057 74.115)" fill="#838383"/>
          <path id="Path_41328-2" data-name="Path 41328" d="M73.488,60.454a4.4,4.4,0,1,0,4.484,4.308A4.266,4.266,0,0,0,73.488,60.454Z" transform="translate(61.762 74.115)" fill="#838383"/>
          <path id="Path_41329-2" data-name="Path 41329" d="M92.878,60.454a4.407,4.407,0,1,0,4.315,4.477A4.269,4.269,0,0,0,92.878,60.454Z" transform="translate(86.465 74.115)" fill="#838383"/>
          <path id="Path_41330-2" data-name="Path 41330" d="M63.8,78.88a4.411,4.411,0,1,0-4.232-4.591A4.271,4.271,0,0,0,63.8,78.88Z" transform="translate(49.406 86.466)" fill="#838383"/>
          <path id="Path_41331-2" data-name="Path 41331" d="M83.3,70.065a4.408,4.408,0,1,0,4.283,4.511A4.27,4.27,0,0,0,83.3,70.065Z" transform="translate(74.113 86.467)" fill="#838383"/>
          <path id="Path_41332-2" data-name="Path 41332" d="M73.5,79.674A4.4,4.4,0,1,0,77.972,84,4.266,4.266,0,0,0,73.5,79.674Z" transform="translate(61.762 98.819)" fill="#838383"/>
          <path id="Path_41333-2" data-name="Path 41333" d="M54.375,11.6a4.25,4.25,0,0,0,4.376-4.422,4.4,4.4,0,1,0-8.8.027A4.274,4.274,0,0,0,54.375,11.6Z" transform="translate(37.058 0.002)" fill="#838383"/>
          <path id="Path_41334-2" data-name="Path 41334" d="M77.975,7.511a4.408,4.408,0,1,0-8.794-.626,4.408,4.408,0,1,0,8.794.626Z" transform="translate(61.759 0)" fill="#838383"/>
          <path id="Path_41335-2" data-name="Path 41335" d="M92.878,2.794A4.271,4.271,0,0,0,88.394,7.12a4.4,4.4,0,1,0,8.8.151A4.243,4.243,0,0,0,92.878,2.794Z" transform="translate(86.465 0.002)" fill="#838383"/>
          <path id="Path_41336-2" data-name="Path 41336" d="M44.825,21.212a4.25,4.25,0,0,0,4.312-4.484,4.4,4.4,0,1,0-8.789.155A4.262,4.262,0,0,0,44.825,21.212Z" transform="translate(24.709 12.354)" fill="#838383"/>
          <path id="Path_41337-2" data-name="Path 41337" d="M64.043,12.4a4.252,4.252,0,0,0-4.475,4.326,4.4,4.4,0,1,0,8.789.153A4.243,4.243,0,0,0,64.043,12.4Z" transform="translate(49.414 12.354)" fill="#838383"/>
          <path id="Path_41338-2" data-name="Path 41338" d="M83.229,12.4a4.25,4.25,0,0,0-4.44,4.36,4.395,4.395,0,1,0,8.789.082A4.238,4.238,0,0,0,83.229,12.4Z" transform="translate(74.118 12.354)" fill="#838383"/>
          <path id="Path_41339-2" data-name="Path 41339" d="M102.395,12.4a4.255,4.255,0,0,0-4.388,4.415,4.4,4.4,0,1,0,8.792-.027A4.239,4.239,0,0,0,102.395,12.4Z" transform="translate(98.821 12.354)" fill="#838383"/>
          <path id="Path_41340-2" data-name="Path 41340" d="M35.095,30.826a4.257,4.257,0,0,0,4.438-4.365,4.4,4.4,0,1,0-8.8-.091A4.282,4.282,0,0,0,35.095,30.826Z" transform="translate(12.352 24.706)" fill="#838383"/>
          <path id="Path_41341-2" data-name="Path 41341" d="M54.317,30.826a4.256,4.256,0,0,0,4.436-4.365,4.4,4.4,0,1,0-8.8-.091A4.283,4.283,0,0,0,54.317,30.826Z" transform="translate(37.057 24.706)" fill="#838383"/>
          <path id="Path_41342-2" data-name="Path 41342" d="M73.766,22.015A4.411,4.411,0,1,0,73.4,30.83,4.271,4.271,0,0,0,77.975,26.6,4.251,4.251,0,0,0,73.766,22.015Z" transform="translate(61.758 24.705)" fill="#838383"/>
          <path id="Path_41343-2" data-name="Path 41343" d="M92.816,22.014A4.265,4.265,0,0,0,88.394,26.4a4.4,4.4,0,1,0,8.8.027A4.238,4.238,0,0,0,92.816,22.014Z" transform="translate(86.465 24.706)" fill="#838383"/>
          <path id="Path_41344-2" data-name="Path 41344" d="M112.064,22.014a4.267,4.267,0,0,0-4.45,4.36,4.4,4.4,0,1,0,8.8.085A4.24,4.24,0,0,0,112.064,22.014Z" transform="translate(111.17 24.706)" fill="#838383"/>
          <path id="Path_41345-2" data-name="Path 41345" d="M25.489,40.436a4.406,4.406,0,0,0,.085-8.812,4.406,4.406,0,1,0-.085,8.812Z" transform="translate(0 37.058)" fill="#838383"/>
          <path id="Path_41346-2" data-name="Path 41346" d="M44.575,40.44a4.411,4.411,0,1,0-4.23-4.594A4.271,4.271,0,0,0,44.575,40.44Z" transform="translate(24.702 37.057)" fill="#838383"/>
          <path id="Path_41347-2" data-name="Path 41347" d="M64.039,31.624a4.407,4.407,0,1,0,4.324,4.468A4.268,4.268,0,0,0,64.039,31.624Z" transform="translate(49.409 37.058)" fill="#838383"/>
        </g>
        <g id="Group_18424" data-name="Group 18424" transform="translate(-8.28 2205)">
          <path id="Path_41234" data-name="Path 41234" d="M151.378-35.544c70.627,81.1,144.335,62.132,144.335,138.775S231.092,166.89,151.378,166.89s-132.5-28.954-132.5-105.6S80.752-116.646,151.378-35.544Z" transform="matrix(0.966, 0.259, -0.259, 0.966, 993.454, 456.08)" fill="#bef1fd" opacity="0.273"/>
          <path id="Path_41235" data-name="Path 41235" d="M151.378-35.544c70.627,81.1,144.335,62.132,144.335,138.775S231.092,166.89,151.378,166.89s-132.5-28.954-132.5-105.6S80.752-116.646,151.378-35.544Z" transform="translate(1801.452 316.318) rotate(-180)" fill="#bef1fd" opacity="0.273"/>
          <g transform="matrix(1, 0, 0, 1, 968.28, 148.6)" filter="url(#Path_41237)">
            <path id="Path_41237-2" data-name="Path 41237" d="M15,0H568a15,15,0,0,1,15,15V353a15,15,0,0,1-15,15H15A15,15,0,0,1,0,353V15A15,15,0,0,1,15,0Z" transform="translate(136.72 70.61)" fill="#fff"/>
          </g>
          <g id="Group_18396" data-name="Group 18396" transform="translate(279 -85)">
            <g transform="matrix(1, 0, 0, 1, 689.28, 233.6)" filter="url(#Rectangle_18784)">
              <rect id="Rectangle_18784-2" data-name="Rectangle 18784" width="134" height="242" rx="10" transform="translate(564.72 152.4)" fill="#fff"/>
            </g>
            <rect id="Rectangle_18785" data-name="Rectangle 18785" width="93" height="10" rx="5" transform="translate(1273 510)" fill="#ddd"/>
            <rect id="Rectangle_18793" data-name="Rectangle 18793" width="93" height="10" rx="5" transform="translate(1273 410)" fill="#ddd"/>
            <rect id="Rectangle_18786" data-name="Rectangle 18786" width="93" height="10" rx="5" transform="translate(1273 530)" fill="#ddd"/>
            <rect id="Rectangle_18794" data-name="Rectangle 18794" width="93" height="10" rx="5" transform="translate(1273 430)" fill="#ddd"/>
            <rect id="Rectangle_18787" data-name="Rectangle 18787" width="93" height="10" rx="5" transform="translate(1273 550)" fill="#ddd"/>
            <rect id="Rectangle_18795" data-name="Rectangle 18795" width="93" height="10" rx="5" transform="translate(1273 450)" fill="#ddd"/>
            <rect id="Rectangle_18788" data-name="Rectangle 18788" width="93" height="10" rx="5" transform="translate(1273 570)" fill="#ddd"/>
            <rect id="Rectangle_18796" data-name="Rectangle 18796" width="93" height="10" rx="5" transform="translate(1273 470)" fill="#ddd"/>
            <rect id="Rectangle_18789" data-name="Rectangle 18789" width="93" height="10" rx="5" transform="translate(1273 590)" fill="#ddd"/>
            <rect id="Rectangle_18797" data-name="Rectangle 18797" width="93" height="10" rx="5" transform="translate(1273 490)" fill="#ddd"/>
          </g>
          <g id="Group_18737" data-name="Group 18737" transform="translate(855.133 283.608)">
            <g id="Group_18415" data-name="Group 18415" transform="translate(193 158)">
              <g id="Group_18388" data-name="Group 18388" transform="translate(0 -9.688)">
                <g transform="matrix(1, 0, 0, 1, -79.85, -283.32)" filter="url(#Rectangle_18511)">
                  <rect id="Rectangle_18511-2" data-name="Rectangle 18511" width="454.035" height="171.582" rx="10" transform="translate(79.85 283.32)" fill="#fff"/>
                </g>
              </g>
              <g id="Group_18414" data-name="Group 18414" transform="translate(7 5)">
                <circle id="Ellipse_3079" data-name="Ellipse 3079" cx="9.604" cy="9.604" r="9.604" fill="#82e589"/>
                <path id="Icon_feather-check" data-name="Icon feather-check" d="M17.072,9,9.46,16.612,6,13.152" transform="translate(-1.869 -2.806)" fill="none" stroke="#fff" stroke-linecap="round" stroke-linejoin="round" stroke-width="3"/>
              </g>
              <g id="Group_18513" data-name="Group 18513" transform="translate(7 53)">
                <circle id="Ellipse_3079-2" data-name="Ellipse 3079" cx="9.604" cy="9.604" r="9.604" fill="#82e589"/>
                <path id="Icon_feather-check-2" data-name="Icon feather-check" d="M17.072,9,9.46,16.612,6,13.152" transform="translate(-1.869 -2.806)" fill="none" stroke="#fff" stroke-linecap="round" stroke-linejoin="round" stroke-width="3"/>
              </g>
              <g id="Group_18515" data-name="Group 18515" transform="translate(7 101)">
                <circle id="Ellipse_3079-3" data-name="Ellipse 3079" cx="9.604" cy="9.604" r="9.604" fill="#82e589"/>
                <path id="Icon_feather-check-3" data-name="Icon feather-check" d="M17.072,9,9.46,16.612,6,13.152" transform="translate(-1.869 -2.806)" fill="none" stroke="#fff" stroke-linecap="round" stroke-linejoin="round" stroke-width="3"/>
              </g>
              <g id="Group_18432" data-name="Group 18432" transform="translate(7 29)">
                <circle id="Ellipse_3079-4" data-name="Ellipse 3079" cx="9.604" cy="9.604" r="9.604" fill="#82e589"/>
                <path id="Icon_feather-check-4" data-name="Icon feather-check" d="M17.072,9,9.46,16.612,6,13.152" transform="translate(-1.869 -2.806)" fill="none" stroke="#fff" stroke-linecap="round" stroke-linejoin="round" stroke-width="3"/>
              </g>
              <g id="Group_18512" data-name="Group 18512" transform="translate(7 77)">
                <circle id="Ellipse_3079-5" data-name="Ellipse 3079" cx="9.604" cy="9.604" r="9.604" fill="#82e589"/>
                <path id="Icon_feather-check-5" data-name="Icon feather-check" d="M17.072,9,9.46,16.612,6,13.152" transform="translate(-1.869 -2.806)" fill="none" stroke="#fff" stroke-linecap="round" stroke-linejoin="round" stroke-width="3"/>
              </g>
              <g id="Group_18514" data-name="Group 18514" transform="translate(7 125)">
                <circle id="Ellipse_3079-6" data-name="Ellipse 3079" cx="9.604" cy="9.604" r="9.604" fill="#82e589"/>
                <path id="Icon_feather-check-6" data-name="Icon feather-check" d="M17.072,9,9.46,16.612,6,13.152" transform="translate(-1.869 -2.806)" fill="none" stroke="#fff" stroke-linecap="round" stroke-linejoin="round" stroke-width="3"/>
              </g>
            </g>
            <path id="Path_41707" data-name="Path 41707" d="M65.719,17.032A1.24,1.24,0,0,1,64.391,15.7V7.272q.176-.032.5-.08a4.471,4.471,0,0,1,.648-.048,1.758,1.758,0,0,1,1.04.24,1.127,1.127,0,0,1,.32.944V15h3.84a2.228,2.228,0,0,1,.184.416,1.713,1.713,0,0,1,.088.56,1.17,1.17,0,0,1-.232.792.8.8,0,0,1-.632.264Zm9.136-.048a3.15,3.15,0,0,1-.448.088,4.677,4.677,0,0,1-.64.04,1.765,1.765,0,0,1-1.032-.232,1.072,1.072,0,0,1-.312-.9V9.4a3.844,3.844,0,0,1,.448-.1,3.909,3.909,0,0,1,.64-.048,1.719,1.719,0,0,1,1.032.24,1.1,1.1,0,0,1,.312.912ZM72.279,7.1a1.278,1.278,0,0,1,.376-.928,1.453,1.453,0,0,1,1.968,0A1.278,1.278,0,0,1,75,7.1a1.3,1.3,0,0,1-.376.944,1.453,1.453,0,0,1-1.968,0A1.3,1.3,0,0,1,72.279,7.1ZM81.7,12.088a1.007,1.007,0,0,0-.336-.832,1.382,1.382,0,0,0-.9-.272,2.442,2.442,0,0,0-.7.1,3.27,3.27,0,0,0-.592.24v5.664a3.15,3.15,0,0,1-.448.088,4.677,4.677,0,0,1-.64.04,1.806,1.806,0,0,1-1.04-.232,1.058,1.058,0,0,1-.32-.9V11.032a1.164,1.164,0,0,1,.176-.672,1.943,1.943,0,0,1,.5-.48,4.154,4.154,0,0,1,1.32-.592A6.667,6.667,0,0,1,80.5,9.064a4.194,4.194,0,0,1,2.7.768,2.654,2.654,0,0,1,.952,2.192v4.96a3.834,3.834,0,0,1-.464.088,4.677,4.677,0,0,1-.64.04,1.765,1.765,0,0,1-1.032-.232,1.072,1.072,0,0,1-.312-.9Zm8.816.96,2.768,2.688a1.813,1.813,0,0,1-.408,1.032,1.2,1.2,0,0,1-.936.36,1.487,1.487,0,0,1-.816-.224,3.692,3.692,0,0,1-.784-.736l-1.9-2.256v3.072a3.15,3.15,0,0,1-.448.088,4.677,4.677,0,0,1-.64.04,1.806,1.806,0,0,1-1.04-.232,1.058,1.058,0,0,1-.32-.9V6.584q.176-.048.464-.1a3.91,3.91,0,0,1,.64-.048,1.719,1.719,0,0,1,1.032.24,1.1,1.1,0,0,1,.312.912V12.12l2.9-2.944a1.953,1.953,0,0,1,1.2.336,1.007,1.007,0,0,1,.448.832,1.1,1.1,0,0,1-.3.76,11.4,11.4,0,0,1-.92.872Zm10.24,1.7a2.184,2.184,0,0,1-.88,1.848,4.262,4.262,0,0,1-2.592.664,7.17,7.17,0,0,1-1.224-.1,3.644,3.644,0,0,1-.952-.288,1.708,1.708,0,0,1-.624-.48,1.063,1.063,0,0,1-.224-.672,1.176,1.176,0,0,1,.144-.6,1.29,1.29,0,0,1,.368-.408,6.053,6.053,0,0,0,1.056.48,4.148,4.148,0,0,0,1.376.208q1.136,0,1.136-.64a.481.481,0,0,0-.2-.416,2.009,2.009,0,0,0-.68-.256l-.64-.144a4.212,4.212,0,0,1-1.952-.84,2.017,2.017,0,0,1-.64-1.592,2.105,2.105,0,0,1,.92-1.8,4.141,4.141,0,0,1,2.472-.664,6.422,6.422,0,0,1,1.088.088,3.362,3.362,0,0,1,.88.264,1.669,1.669,0,0,1,.584.44.944.944,0,0,1,.216.616,1.221,1.221,0,0,1-.128.568,1.2,1.2,0,0,1-.336.408,2.328,2.328,0,0,0-.376-.176q-.248-.1-.536-.176a5.1,5.1,0,0,0-.608-.128,4.01,4.01,0,0,0-.592-.048,2.031,2.031,0,0,0-.872.152.487.487,0,0,0-.312.456.412.412,0,0,0,.176.352,1.953,1.953,0,0,0,.64.24l.608.144a4.3,4.3,0,0,1,2.08.928A2.093,2.093,0,0,1,100.759,14.744Z" transform="translate(536 117)"/>
            <rect id="Rectangle_18791" data-name="Rectangle 18791" width="409.035" height="8" rx="4" transform="translate(225 169)" fill="#ddd"/>
            <rect id="Rectangle_18808" data-name="Rectangle 18808" width="409.035" height="8" rx="4" transform="translate(225 217)" fill="#ddd"/>
            <rect id="Rectangle_18810" data-name="Rectangle 18810" width="409.035" height="8" rx="4" transform="translate(225 265)" fill="#ddd"/>
            <rect id="Rectangle_18799" data-name="Rectangle 18799" width="409.035" height="8" rx="4" transform="translate(225 193)" fill="#ddd"/>
            <rect id="Rectangle_18809" data-name="Rectangle 18809" width="409.035" height="8" rx="4" transform="translate(225 241)" fill="#ddd"/>
            <rect id="Rectangle_18811" data-name="Rectangle 18811" width="409.035" height="8" rx="4" transform="translate(225 289)" fill="#ddd"/>
          </g>
          <g id="Group_18738" data-name="Group 18738" transform="translate(20.426 -75.795)">
            <g transform="matrix(1, 0, 0, 1, 947.85, 224.39)" filter="url(#Rectangle_18818)">
              <rect id="Rectangle_18818-2" data-name="Rectangle 18818" width="211.035" height="171.582" rx="10" transform="translate(215.85 91.32)" fill="#fff"/>
            </g>
            <g id="Group_18707" data-name="Group 18707">
              <g id="Group_18706" data-name="Group 18706" transform="translate(-6.146 -2086)">
                <path id="Path_41524" data-name="Path 41524" d="M84.127,739H84.1a1.994,1.994,0,0,0-2,2v43.525h4.053V741A2.061,2.061,0,0,0,84.127,739Z" transform="translate(1098.146 1788.978)" fill="#ddd"/>
                <path id="Path_41606" data-name="Path 41606" d="M84.127,739h.03a1.994,1.994,0,0,1,2,2v43.525H82.1V741A2.061,2.061,0,0,1,84.127,739Z" transform="translate(1217.188 1788.978)" fill="#ddd"/>
                <path id="Path_41612" data-name="Path 41612" d="M84.127,739h.03a1.994,1.994,0,0,1,2,2v43.525H82.1V741A2.061,2.061,0,0,1,84.127,739Z" transform="translate(1282.188 1788.978)" fill="#ddd"/>
                <path id="Path_41525" data-name="Path 41525" d="M105.327,683h-.03a1.994,1.994,0,0,0-2,2V745.46h4.053V685.027A2.067,2.067,0,0,0,105.327,683Z" transform="translate(1087.734 1828.04)" fill="#ddd"/>
                <path id="Path_41607" data-name="Path 41607" d="M105.327,683h.03a1.994,1.994,0,0,1,2,2V745.46H103.3V685.027A2.067,2.067,0,0,1,105.327,683Z" transform="translate(1185.2 1828.04)" fill="#ddd"/>
                <path id="Path_41613" data-name="Path 41613" d="M105.327,683h.03a1.994,1.994,0,0,1,2,2V745.46H103.3V685.027A2.067,2.067,0,0,1,105.327,683Z" transform="translate(1250.2 1828.04)" fill="#ddd"/>
                <path id="Path_41526" data-name="Path 41526" d="M126.527,657.5h-.03a1.994,1.994,0,0,0-2,2v68.177h4.053V659.527A2.027,2.027,0,0,0,126.527,657.5Z" transform="translate(1077.322 1845.827)" fill="#ddd"/>
                <path id="Path_41608" data-name="Path 41608" d="M126.527,657.5h.03a1.994,1.994,0,0,1,2,2v68.176H124.5V659.527A2.027,2.027,0,0,1,126.527,657.5Z" transform="translate(1153.212 1845.827)" fill="#ddd"/>
                <path id="Path_41614" data-name="Path 41614" d="M126.527,657.5h.03a1.994,1.994,0,0,1,2,2v68.176H124.5V659.527A2.027,2.027,0,0,1,126.527,657.5Z" transform="translate(1218.212 1845.827)" fill="#ddd"/>
                <path id="Path_41527" data-name="Path 41527" d="M147.827,695.5h-.03a1.994,1.994,0,0,0-2,2v56.683h4.053V697.526A2.067,2.067,0,0,0,147.827,695.5Z" transform="translate(1066.861 1819.321)" fill="#ddd"/>
                <path id="Path_41609" data-name="Path 41609" d="M147.827,695.5h.03a1.994,1.994,0,0,1,2,2v56.683H145.8V697.526A2.067,2.067,0,0,1,147.827,695.5Z" transform="translate(1121.073 1819.321)" fill="#ddd"/>
                <path id="Path_41615" data-name="Path 41615" d="M147.827,695.5h.03a1.994,1.994,0,0,1,2,2v56.683H145.8V697.526A2.067,2.067,0,0,1,147.827,695.5Z" transform="translate(1186.073 1819.321)" fill="#ddd"/>
                <path id="Path_41528" data-name="Path 41528" d="M169.027,648.2H169a1.994,1.994,0,0,0-2,2v70.99h4.053V650.2A2.04,2.04,0,0,0,169.027,648.2Z" transform="translate(1056.449 1852.314)" fill="#ddd"/>
                <path id="Path_41610" data-name="Path 41610" d="M169.027,648.2h.03a1.994,1.994,0,0,1,2,2v70.99H167V650.2A2.04,2.04,0,0,1,169.027,648.2Z" transform="translate(1089.085 1852.314)" fill="#ddd"/>
                <path id="Path_41616" data-name="Path 41616" d="M169.027,648.2h.03a1.994,1.994,0,0,1,2,2v70.99H167V650.2A2.04,2.04,0,0,1,169.027,648.2Z" transform="translate(1154.085 1852.314)" fill="#ddd"/>
                <path id="Path_41529" data-name="Path 41529" d="M190.327,624.2h-.03a1.994,1.994,0,0,0-2,2v78.249h4.053V626.2A2.061,2.061,0,0,0,190.327,624.2Z" transform="translate(1045.988 1869.055)" fill="#ddd"/>
                <path id="Path_41611" data-name="Path 41611" d="M190.327,624.2h.03a1.994,1.994,0,0,1,2,2v78.249H188.3V626.2A2.061,2.061,0,0,1,190.327,624.2Z" transform="translate(1056.947 1869.055)" fill="#ddd"/>
                <path id="Path_41617" data-name="Path 41617" d="M190.327,624.2h.03a1.994,1.994,0,0,1,2,2v78.249H188.3V626.2A2.061,2.061,0,0,1,190.327,624.2Z" transform="translate(1121.947 1869.055)" fill="#ddd"/>
              </g>
              <g id="_001-clock" data-name="001-clock" transform="translate(1240.79 333.79)">
                <path id="Path_41477" data-name="Path 41477" d="M48.458,24.526h5.6a26.937,26.937,0,0,0-3.04-10.178L47.987,16.1l-1.008-1.743,3.012-1.74a27.326,27.326,0,0,0-8.453-8.484L39.764,7.179l-1.74-1.013L39.81,3.1A26.937,26.937,0,0,0,29.546.017V5.7H24.514V.016A26.959,26.959,0,0,0,14.249,3.1l1.786,3.067L14.3,7.177,12.522,4.129a27.326,27.326,0,0,0-8.453,8.484l3.012,1.74L6.073,16.1l-3.029-1.75A26.935,26.935,0,0,0,0,24.525H5.6v5.032H0a26.949,26.949,0,0,0,3.04,10.18l3.03-1.75,1.008,1.743L4.066,41.47a27.327,27.327,0,0,0,8.453,8.484l1.774-3.048,1.74,1.013-1.786,3.067a26.936,26.936,0,0,0,10.264,3.081V48.385h5.032v5.683a26.959,26.959,0,0,0,10.264-3.081l-1.786-3.067,1.74-1.013,1.774,3.048a27.314,27.314,0,0,0,8.453-8.484l-3.012-1.74,1.008-1.743,3.029,1.75a26.934,26.934,0,0,0,3.04-10.18h-5.6V24.526ZM26.437,34.455A2.052,2.052,0,0,1,24.388,36.5H12.2a1.963,1.963,0,0,1-1.524-.713,1.744,1.744,0,0,1-.342-1.473,7.544,7.544,0,0,1,.923-2.288c.656-1.255,2.159-2.556,4.572-3.936a31.445,31.445,0,0,0,3.731-2.364,2.623,2.623,0,0,0,1.1-1.983A1.772,1.772,0,0,0,20.1,22.4a2.38,2.38,0,0,0-1.722-.545,2.22,2.22,0,0,0-2.076.839,2.562,2.562,0,0,0-.271.817,2.165,2.165,0,0,1-2.159,1.658H12.439a1.944,1.944,0,0,1-1.505-.69A1.789,1.789,0,0,1,10.554,23a6.786,6.786,0,0,1,.955-2.5c1.273-1.939,3.515-2.923,6.664-2.923a9.649,9.649,0,0,1,5.916,1.674,5.641,5.641,0,0,1,.684,8.532A14.362,14.362,0,0,1,21.5,30.136l-1.718.976c-.726.414-1.295.748-1.7,1h6.309a2.052,2.052,0,0,1,2.049,2.049v.292Zm15.411-1.71a.628.628,0,0,0-.549.683v1.027A2.052,2.052,0,0,1,39.251,36.5H37.79a2.052,2.052,0,0,1-2.049-2.049V33.427a.683.683,0,0,0-.683-.683H29.164A2.052,2.052,0,0,1,27.114,30.7v-.269a5.393,5.393,0,0,1,.96-2.867l6.364-8.425a3.752,3.752,0,0,1,2.734-1.361H39.25A2.052,2.052,0,0,1,41.3,19.823v8.185a.627.627,0,0,0,.549.683,2.03,2.03,0,0,1,0,4.054Z" transform="translate(0 -0.016)" fill="#002443"/>
                <path id="Path_41478" data-name="Path 41478" d="M219.74,167.524h2.738a.684.684,0,0,0,.683-.683v-4.049l-3.4,4.708C219.751,167.508,219.746,167.517,219.74,167.524Z" transform="translate(-187.419 -138.85)" fill="#002443"/>
              </g>
            </g>
          </g>
          <g id="Group_18809" data-name="Group 18809">
            <path id="Path_41485" data-name="Path 41485" d="M584.012,0h58.657a15,15,0,0,1,15,15V65.885s-11.579-.224-33.912,0-33.978-9.143-40.393-25.259S582.065,0,584.012,0Z" transform="translate(1030.15 219)" fill="#002443"/>
            <g id="Group_18808" data-name="Group 18808">
              <path id="Path_30" data-name="Path 30" d="M43.973,57.881a3.851,3.851,0,0,1-3.846-3.838V44.615a5.7,5.7,0,0,1,5.689-5.689h5.17a1.1,1.1,0,0,0,0-2.2H36.966a1.1,1.1,0,0,0,0,2.2h1.092a1.373,1.373,0,1,1,0,2.746H36.966a3.846,3.846,0,0,1,0-7.693h14.01a3.846,3.846,0,0,1,0,7.693h-5.17a2.945,2.945,0,0,0-2.934,2.943v9.428a1.1,1.1,0,0,0,2.2,0v-9.1a1.373,1.373,0,0,1,2.746,0v9.1A3.851,3.851,0,0,1,43.973,57.881Z" transform="translate(1607.161 203.991)" fill="#33aac8"/>
              <path id="Path_31" data-name="Path 31" d="M17.646,0A17.654,17.654,0,1,0,35.3,17.653,17.655,17.655,0,0,0,17.646,0Zm0,32.868A15.216,15.216,0,1,1,32.86,17.653,15.216,15.216,0,0,1,17.646,32.868Z" transform="translate(1633.44 230.944)" fill="#fff"/>
            </g>
          </g>
        </g>
      </g>
    </g>
    <path id="Path_41394" data-name="Path 41394" d="M47.308-42.488C62.462,19.784,78.277,5.218,78.277,64.066s-13.865,48.879-30.969,48.879S18.879,90.714,18.879,31.866,32.154-104.76,47.308-42.488Z" transform="matrix(0.07, -0.998, 0.998, 0.07, 1561.097, 2857.107)" fill="#bef1fd" opacity="0.273"/>
    <g id="Group_18593" data-name="Group 18593" transform="translate(1153.056 2400.417)">
      <g id="Group_18560" data-name="Group 18560" transform="translate(383.87 214.047)">
        <path id="Path_41395" data-name="Path 41395" d="M410.621,432.1q.631,3.953,1.263,7.906a5.473,5.473,0,0,1,.1,1.549c-.254,2.013-2.534,3.106-3.414,4.934a1.216,1.216,0,0,0-.154.622c.061.688.956.9,1.645.921l6.058.226c.763.028,1.665-.01,2.089-.644a2.261,2.261,0,0,0,.286-.982l1.956-14.939" transform="translate(-386.576 -253.175)" fill="#f7b094"/>
        <path id="Path_41396" data-name="Path 41396" d="M488.249,432.1q-.642,3.953-1.285,7.906a5.442,5.442,0,0,0-.1,1.549c.26,2.013,2.576,3.106,3.471,4.934a1.2,1.2,0,0,1,.156.622c-.061.688-.971.9-1.673.921l-6.156.226c-.775.028-1.691-.01-2.123-.644a2.241,2.241,0,0,1-.29-.982q-.994-7.47-1.988-14.939" transform="translate(-394.278 -253.175)" fill="#f7b094"/>
        <g id="Group_18558" data-name="Group 18558" transform="translate(0 190.659)">
          <path id="Path_41397" data-name="Path 41397" d="M385.658,457.663c5.422.206,9.865.367,15.287.574a9.687,9.687,0,0,0,4.876-.658c.811-.423,1.621-1.1,2.518-.921.695.14,1.182.762,1.819,1.073a4.339,4.339,0,0,0,1.824.3l5.686.121a2.584,2.584,0,0,0,1.787-.406,2.5,2.5,0,0,0,.555-2.055,32.413,32.413,0,0,0-1.562-8.56c-.206-.629-.509-1.332-1.141-1.529a2.285,2.285,0,0,0-1.716.445c-2.147,1.206-4.968,2.059-6.951.6a7.963,7.963,0,0,0-1.532-1.144,3.74,3.74,0,0,0-2.093-.028,69.383,69.383,0,0,0-17.372,5.645,7.5,7.5,0,0,0-3.283,2.457,2.776,2.776,0,0,0,.473,3.717" transform="translate(-383.87 -445.339)" fill="#38303b"/>
        </g>
        <g id="Group_18559" data-name="Group 18559" transform="translate(81.854 189.945)">
          <path id="Path_41398" data-name="Path 41398" d="M512.538,457.689c-5.787.22-10.528.393-16.315.613a10.344,10.344,0,0,1-5.2-.7c-.866-.451-1.73-1.176-2.687-.983-.742.149-1.261.814-1.941,1.145a4.622,4.622,0,0,1-1.946.325l-6.069.129a2.755,2.755,0,0,1-1.907-.433,2.665,2.665,0,0,1-.593-2.193,34.6,34.6,0,0,1,1.667-9.136c.219-.672.544-1.422,1.218-1.632a2.442,2.442,0,0,1,1.831.475c2.292,1.287,5.3,2.2,7.418.638a8.5,8.5,0,0,1,1.635-1.221,3.992,3.992,0,0,1,2.233-.031,74.066,74.066,0,0,1,18.539,6.025,8,8,0,0,1,3.5,2.622c.792,1.249.733,3.158-.5,3.967" transform="translate(-475.868 -444.537)" fill="#38303b"/>
        </g>
        <path id="Path_41399" data-name="Path 41399" d="M476.454,269.229c-1.047,43.553,4,142.938,4,142.938l-10.233,1.118s-10.289-60.025-12.087-69.28-12.642-66.949-12.642-66.949L419.8,412.137l-9.532-.266s6.411-103.4,7.741-149.75c.153-5.332,6.332-27.3,6.332-27.3l47.885-3.773-1.349,9.417C471.1,240.476,476.617,262.424,476.454,269.229Z" transform="translate(-386.78 -231.051)" fill="#1e4e69"/>
        <path id="Path_41400" data-name="Path 41400" d="M478.587,435.811l9.022-.593a3.227,3.227,0,0,0,3.006-3.431h0a3.225,3.225,0,0,0-3.431-3.006l-9.021.593a3.225,3.225,0,0,0-3.006,3.43h0A3.225,3.225,0,0,0,478.587,435.811Z" transform="translate(-393.935 -252.853)" fill="#38303b"/>
        <path id="Path_41401" data-name="Path 41401" d="M410.311,437.739l9.057.3a3.222,3.222,0,0,0,3.329-3.18h0a3.222,3.222,0,0,0-3.114-3.261l-9.057-.3a3.222,3.222,0,0,0-3.33,3.18h0A3.223,3.223,0,0,0,410.311,437.739Z" transform="translate(-386.442 -253.131)" fill="#38303b"/>
      </g>
      <g id="Group_18568" data-name="Group 18568" transform="translate(388.444 134.044)">
        <path id="Path_41402" data-name="Path 41402" d="M432.024,233.679c-2.191,1.351-4.624,2.853-6.815,4.2a1.4,1.4,0,0,1-2.288-.433c-5.208-6.781-9.552-14.932-13.558-22.486-3.4-6.408-6.1-12.817-6.3-18.606a31.383,31.383,0,0,1,1.154-8.631c2.957-11.867,8.27-24.567,16.565-33.554,2.726-2.953,9.768-7.952,13.4-8.632,2.076-.39-5.5,6.347-3.7,7.451,2.819,1.726,4.5,7.21,4.014,10.478-1.759,11.892-8.863,22.2-13.505,33.289a12.793,12.793,0,0,0-1.141,3.967,13.547,13.547,0,0,0,.98,5.175c3.171,9.536,7.5,17.947,11.649,27.1Z" transform="translate(-390.559 -141.618)" fill="#0e374d"/>
        <path id="Path_41403" data-name="Path 41403" d="M423.284,198.543c.856-1.981,1.78-3.939,2.735-5.887q-2.146-11.281-5.306-22.336A63.455,63.455,0,0,0,423.284,198.543Z" transform="translate(-392.444 -144.352)" fill="#22536e" opacity="0.53"/>
        <path id="Path_41404" data-name="Path 41404" d="M431.2,245l3.655-2.254.2-.307a6.465,6.465,0,0,0,.029-.852c-2.145-4.71-4.326-9.238-6.37-13.828A106.912,106.912,0,0,0,431.2,245Z" transform="translate(-393.39 -150.686)" fill="#dedfe0" opacity="0.53"/>
        <g id="Group_18564" data-name="Group 18564" transform="translate(76.991 30.877)">
          <g id="Group_18561" data-name="Group 18561">
            <path id="Path_41405" data-name="Path 41405" d="M475.544,177.86c4.176,15.662,7.1,24.914,11.55,39.5,1.65,5.41,6.157,20.8,7.918,26.118,2.013,6.084,8.533,5.99,6.87-3.512-1.345-7.69-2.49-13.108-3.546-19.989-2.883-18.79-3.055-24.131-7.925-44.135" transform="translate(-475.544 -175.838)" fill="#f7b094"/>
          </g>
          <g id="Group_18563" data-name="Group 18563" transform="translate(19.474 64.345)">
            <g id="Group_18562" data-name="Group 18562">
              <path id="Path_41406" data-name="Path 41406" d="M497.432,251.2a32.6,32.6,0,0,1,1.357,9.185c.01,3.345-.485,6.784.4,10.013.171.628,1.257.695,1.618.116a11.549,11.549,0,0,0,1.424-3.364.938.938,0,0,1,1.637-.14,4.477,4.477,0,0,1,.473,1.5c.48,3.09,1.3,5.486,1.781,8.576a21,21,0,0,0,1.046,4.523c.253.579.767.234.92-.369.132-.521.2-2.6.265-2.344.146.582,1.177.682,1.38-.267a37.92,37.92,0,0,0,.21-12.392c-1.294-7.352-4.522-10.373-5.628-18.08" transform="translate(-497.432 -248.157)" fill="#f7b094"/>
            </g>
          </g>
        </g>
        <path id="Path_41407" data-name="Path 41407" d="M479.118,203.133l11.755,36.747a2.426,2.426,0,0,0,.769,1.326,2.325,2.325,0,0,0,1.461.266,27.7,27.7,0,0,0,8.3-1.692c-1.826-22.227-5.824-42.86-10.058-64.758-1.13-5.842-3.161-12.85-7.1-18.908A28.367,28.367,0,0,0,469.7,144c-3.993-1.472-.5,3.263-4.725,2.753-2.549-.308-5.372-.069-7.284,1.644a8.963,8.963,0,0,0-2.148,3.3c-2.7,6.467-1.865,13.832-.466,20.7a140.606,140.606,0,0,0,5.839,20.538" transform="translate(-396.152 -141.418)" fill="#0e374d"/>
        <path id="Path_41408" data-name="Path 41408" d="M487.523,172.984c-.34-1.365-2.216-7.774-3.614-7.926a33.152,33.152,0,0,0-1.4,8.71q-.527,7.452-1.056,14.906a110.681,110.681,0,0,0-.317,16.261l.983.552,2.32,7.25c1.066-10.59,2.7-18.905,3.316-29.53C488,178.933,488.558,177.137,487.523,172.984Z" transform="translate(-399.148 -143.772)" fill="#22536e" opacity="0.53"/>
        <path id="Path_41409" data-name="Path 41409" d="M464.738,144.616a4.46,4.46,0,0,0-.4-.19,30,30,0,0,0-25.543-.842c-.04.015-.081.027-.121.044a31.04,31.04,0,0,0-18.5,28.522l8.708,71.038,43.313-2.271,2.12-2.271c-.149-2.085-.176-11.988.093-14.061l6.789-52.434A31.079,31.079,0,0,0,464.738,144.616Z" transform="translate(-392.447 -141.134)" fill="#0e374d"/>
        <g id="Group_18565" data-name="Group 18565" transform="translate(24.84 91.91)">
          <path id="Path_41410" data-name="Path 41410" d="M473.952,244.434l-56.226,2.25-.8,8.124,58.536-.145Z" transform="translate(-416.93 -244.434)" fill="#39b3d0"/>
        </g>
        <path id="Path_41411" data-name="Path 41411" d="M428.615,223.928l3.965,22.5c1.748-1.125.649-1.621,2.32-2.857.742-.55,1.439-.952,1.477-1.875a30.731,30.731,0,0,0-1.761-4.429C432.968,233.635,430.811,229.149,428.615,223.928Z" transform="translate(-393.378 -150.263)" fill="#dedfe0" opacity="0.53"/>
        <g id="Group_18566" data-name="Group 18566" transform="translate(0 60.305)">
          <rect id="Rectangle_18813" data-name="Rectangle 18813" width="64.515" height="44.07" rx="2.298" transform="translate(0 30.632) rotate(-28.347)" fill="#dedfe0"/>
          <path id="Path_41412" data-name="Path 41412" d="M433.992,244a3.18,3.18,0,1,1-4.309-1.289A3.18,3.18,0,0,1,433.992,244Z" transform="translate(-393.312 -212.597)" fill="#f4f4f4"/>
        </g>
        <g id="Group_18567" data-name="Group 18567" transform="translate(12.489 46.107)">
          <path id="Path_41413" data-name="Path 41413" d="M418.621,209.1a13.027,13.027,0,0,0,1.356,4.521c5.654,12.892,12.956,28.351,17.446,38.419.775,1.736-3.635,7.042-3.635,7.042-7.825-11.864-17.554-26.494-23.921-39.2a38.833,38.833,0,0,1-3.539-8.929" transform="translate(-403.409 -194.735)" fill="#f7b094"/>
          <path id="Path_41414" data-name="Path 41414" d="M433.079,256.226c1.237,5.014,2.251,9.923,3.933,14.817,1.313.593,3.289.4,3.95-.885a2.43,2.43,0,0,0,2.759-.759c.147-.239.26-.584.505-.718.276-.151,1.376.254,2.169-.294a1.9,1.9,0,0,0,.962-1.771c.03-.5,1.463-.168,1.693-1.272.171-.819-.454-1.569-1.025-2.177l-8.957-9.53a4.67,4.67,0,0,0-2.648-1.747c-1.071-.119-2.27.967-1.827,1.958" transform="translate(-406.359 -199.453)" fill="#f7b094"/>
          <path id="Path_41415" data-name="Path 41415" d="M420.989,201.987a12.793,12.793,0,0,0-1.141,3.967,13.547,13.547,0,0,0,.98,5.175c3.171,9.536,7.5,17.947,11.649,27.1l-.454.682c-2.191,1.351-4.624,2.853-6.815,4.2a1.4,1.4,0,0,1-2.288-.433c-5.208-6.781-9.552-14.932-13.558-22.486-3.4-6.408-6.1-12.817-6.3-18.606a31.383,31.383,0,0,1,1.154-8.631" transform="translate(-403.048 -192.955)" fill="#0e374d"/>
        </g>
      </g>
      <g id="Group_18592" data-name="Group 18592" transform="translate(430.892 76.838)">
        <g id="Group_18588" data-name="Group 18588">
          <path id="Path_41416" data-name="Path 41416" d="M473.049,93.343c0,11.64-8.063,27.211-18.271,27.211S436.72,105.43,436.72,93.789c0-12.253,9.183-16.951,18.058-16.951C464.986,76.838,473.049,81.7,473.049,93.343Z" transform="translate(-436.72 -76.838)" fill="#38303b"/>
          <g id="Group_18571" data-name="Group 18571" transform="translate(10.316 40.89)">
            <g id="Group_18569" data-name="Group 18569" transform="translate(0 1.061)">
              <path id="Path_41417" data-name="Path 41417" d="M448.315,145.3c.537-.7,1.767-12.864,1.694-16.621-.023-1.175-.027-2.352,0-3.527a1.554,1.554,0,0,1,.143-.754.705.705,0,0,1,.421-.286c1.529-.474,3.065.563,4.607.949,1.885.472,3.837-.036,5.733.345a.767.767,0,0,1,.607.4,1.586,1.586,0,0,1,.1.537,124.537,124.537,0,0,0,3.145,18.321l-7.436,1.912" transform="translate(-448.315 -123.987)" fill="#f7b094"/>
            </g>
            <g id="Group_18570" data-name="Group 18570" transform="translate(1.466)">
              <path id="Path_41418" data-name="Path 41418" d="M450.12,123.2a.7.7,0,0,1,.42-.286c1.529-.474,3.065.563,4.607.949,1.885.472,3.837-.036,5.733.346a.764.764,0,0,1,.607.4,1.591,1.591,0,0,1,.1.537c.15,1.887.578,3.593.729,5.48a10.46,10.46,0,0,1-5.519,2.512,7.5,7.5,0,0,1-6.8-3.98q-.009-.837-.019-1.674c-.013-1.175-.027-2.352,0-3.527A1.555,1.555,0,0,1,450.12,123.2Z" transform="translate(-449.962 -122.795)" fill="#e89c82"/>
            </g>
          </g>
          <g id="Group_18576" data-name="Group 18576" transform="translate(0.761 9.62)">
            <g id="Group_18572" data-name="Group 18572" transform="translate(2.805)">
              <path id="Path_41419" data-name="Path 41419" d="M440.728,107.029c0,11.565,7.98,20.939,15.091,20.939s15.092-9.374,15.092-20.939S466.031,87.65,455.819,87.65C446.568,87.65,440.728,95.465,440.728,107.029Z" transform="translate(-440.728 -87.65)" fill="#f7b094"/>
            </g>
            <g id="Group_18575" data-name="Group 18575" transform="translate(0 15.934)">
              <g id="Group_18573" data-name="Group 18573">
                <path id="Path_41420" data-name="Path 41420" d="M441.205,113.511a5,5,0,0,1-3.62-4.121,3.559,3.559,0,0,1,3.436-3.827" transform="translate(-437.575 -105.558)" fill="#f7b094"/>
              </g>
              <g id="Group_18574" data-name="Group 18574" transform="translate(31.692)">
                <path id="Path_41421" data-name="Path 41421" d="M473.2,113.511a5,5,0,0,0,3.619-4.121,3.558,3.558,0,0,0-3.436-3.827" transform="translate(-473.195 -105.558)" fill="#f7b094"/>
              </g>
            </g>
          </g>
          <path id="Path_41422" data-name="Path 41422" d="M465.432,107.058c0,1.165.515,2.109,1.15,2.109s1.15-.944,1.15-2.109-.515-2.109-1.15-2.109S465.432,105.893,465.432,107.058Z" transform="translate(-439.886 -79.938)" fill="#38303b"/>
          <path id="Path_41423" data-name="Path 41423" d="M448.633,106.939c0,1.165.515,2.109,1.15,2.109s1.15-.944,1.15-2.109-.515-2.11-1.15-2.11S448.633,105.774,448.633,106.939Z" transform="translate(-438.034 -79.924)" fill="#38303b"/>
          <path id="Path_41424" data-name="Path 41424" d="M463.739,105.481a4.874,4.874,0,0,1,2.68-.629,4.338,4.338,0,0,1,2.545.735" transform="translate(-439.699 -79.927)" fill="none" stroke="#38303b" stroke-miterlimit="10" stroke-width="0.709"/>
          <path id="Path_41425" data-name="Path 41425" d="M452.116,105.481a4.876,4.876,0,0,0-2.68-.629,4.343,4.343,0,0,0-2.546.735" transform="translate(-437.842 -79.927)" fill="none" stroke="#38303b" stroke-miterlimit="10" stroke-width="0.709"/>
          <path id="Path_41426" data-name="Path 41426" d="M453.059,120.483" transform="translate(-438.522 -81.651)" fill="#e66e60"/>
          <g id="Group_18579" data-name="Group 18579" transform="translate(7.787 19.267)">
            <g id="Group_18577" data-name="Group 18577" transform="translate(15.033)">
              <path id="Path_41427" data-name="Path 41427" d="M462.427,100.393c-.114.114,0,.327.161.36a.737.737,0,0,0,.459-.115,6.512,6.512,0,0,1,5.675.018,2.143,2.143,0,0,0,.844.3.6.6,0,0,0,.647-.492.687.687,0,0,0-.113-.365,2.777,2.777,0,0,0-1.234-1.042,5.76,5.76,0,0,0-5.1.063,2.872,2.872,0,0,0-1.393,1.351" transform="translate(-462.369 -98.493)" fill="#38303b"/>
            </g>
            <g id="Group_18578" data-name="Group 18578">
              <path id="Path_41428" data-name="Path 41428" d="M453.259,100.393c.114.114,0,.327-.161.36a.737.737,0,0,1-.459-.115,6.514,6.514,0,0,0-5.676.018,2.134,2.134,0,0,1-.843.3.6.6,0,0,1-.648-.492.7.7,0,0,1,.113-.365,2.784,2.784,0,0,1,1.235-1.042,5.76,5.76,0,0,1,5.1.063,2.876,2.876,0,0,1,1.393,1.351" transform="translate(-445.473 -98.493)" fill="#38303b"/>
            </g>
          </g>
          <g id="Group_18582" data-name="Group 18582" transform="translate(13.162 39.042)">
            <g id="Group_18580" data-name="Group 18580" transform="translate(0.272 0.149)">
              <path id="Path_41429" data-name="Path 41429" d="M451.868,121.083c2.047,3.239,4.224,4.228,7.058,3.37a8.317,8.317,0,0,0,3.425-3.535,9.9,9.9,0,0,1-10.533-.033" transform="translate(-451.819 -120.885)" fill="#e66e60"/>
            </g>
            <g id="Group_18581" data-name="Group 18581">
              <path id="Path_41430" data-name="Path 41430" d="M451.834,121.064c2.275,1.582,5.019,2.077,8.677,1.1a3.306,3.306,0,0,0,2.069-1.371,17.382,17.382,0,0,1-11.067-.075Z" transform="translate(-451.513 -120.718)" fill="#fff"/>
            </g>
          </g>
          <g id="Group_18587" data-name="Group 18587" transform="translate(6.396 33.451)" opacity="0.43">
            <g id="Group_18584" data-name="Group 18584" opacity="0.54">
              <g id="Group_18583" data-name="Group 18583">
                <path id="Path_41431" data-name="Path 41431" d="M443.909,117.688a3.325,3.325,0,1,0,3.324-3.253A3.289,3.289,0,0,0,443.909,117.688Z" transform="translate(-443.909 -114.435)" fill="#e66e60"/>
              </g>
            </g>
            <g id="Group_18586" data-name="Group 18586" transform="translate(18.11)" opacity="0.54">
              <g id="Group_18585" data-name="Group 18585">
                <path id="Path_41432" data-name="Path 41432" d="M464.263,117.688a3.325,3.325,0,1,0,3.324-3.253A3.289,3.289,0,0,0,464.263,117.688Z" transform="translate(-464.263 -114.435)" fill="#e66e60"/>
              </g>
            </g>
          </g>
          <path id="Path_41433" data-name="Path 41433" d="M463.523,79.977a7.83,7.83,0,0,0,2.056.722,11.772,11.772,0,0,0,2.659.184l8.707-.057a1.305,1.305,0,0,1,.9.22c.408.359.3,1.055.109,1.583a8.037,8.037,0,0,1-4.306,4.618,10.2,10.2,0,0,0,6.612.327,5.574,5.574,0,0,1-2.359,4.745,9.053,9.053,0,0,1-4.976,1.517,16.747,16.747,0,0,1-10.747-3.372,1.979,1.979,0,0,1-.724,2.811,4.073,4.073,0,0,1-3.078.02A18.764,18.764,0,0,1,452.14,90.1a2.579,2.579,0,0,1-2.1,2.824,5.129,5.129,0,0,1-3.554-1,15.736,15.736,0,0,1-4.4-4.169" transform="translate(-437.312 -77.184)" fill="#38303b"/>
          <path id="Path_41434" data-name="Path 41434" d="M458.935,115.83a1.63,1.63,0,0,0,1.314-1.212,1.564,1.564,0,0,0-.685-1.62,2.9,2.9,0,0,1-.828-.537,1.433,1.433,0,0,1-.219-.79q-.271-3.5-.541-7" transform="translate(-439.064 -79.907)" fill="none" stroke="#e89c82" stroke-miterlimit="10" stroke-width="1"/>
        </g>
        <g id="Group_18590" data-name="Group 18590" transform="translate(3.988 56.011)">
          <path id="Path_41435" data-name="Path 41435" d="M457.047,158.311q-1.162-1.708-2.327-3.416a2.755,2.755,0,0,1-.263-3.612l2.048-3.9c.229-.435.564-.932,1.026-.879a1.077,1.077,0,0,1,.758.633c1.085,2.158,2.536,4.238,2.536,5.472,0,1.5-.908,2.713-1.754,4.29-.352.656-.646,1.624-1.247,2.017" transform="translate(-442.603 -140.53)" fill="#ea109a"/>
          <path id="Path_41436" data-name="Path 41436" d="M453.595,192.506l3.3-35.243a.518.518,0,1,1,1.034-.005l3.554,35.257a.733.733,0,0,1-.063.382l-3.3,6.982a.482.482,0,0,1-.9.018l-3.557-7A.732.732,0,0,1,453.595,192.506Z" transform="translate(-442.568 -141.655)" fill="#ea109a"/>
          <g id="Group_18589" data-name="Group 18589">
            <path id="Path_41437" data-name="Path 41437" d="M447.112,139.79a21.3,21.3,0,0,0,8.356,5.52c.183.066.4.166.419.36a.539.539,0,0,1-.044.222l-2.7,7.613a1.855,1.855,0,0,1-2.87.85,30.676,30.676,0,0,1-8.651-10.114,2.133,2.133,0,0,1-.321-1.794,2.066,2.066,0,0,1,.935-.859,18.533,18.533,0,0,1,3.966-1.695" transform="translate(-441.202 -139.79)" fill="#39b3d0"/>
            <path id="Path_41438" data-name="Path 41438" d="M465.9,139.79a19.536,19.536,0,0,1-7.682,5.52c-.168.066-.366.166-.384.36a.565.565,0,0,0,.04.222l2.417,7.414a1.851,1.851,0,0,0,2.945.849,30.167,30.167,0,0,0,7.71-9.914,2.285,2.285,0,0,0,.3-1.794,1.969,1.969,0,0,0-.859-.859,16.32,16.32,0,0,0-3.645-1.695" transform="translate(-443.035 -139.79)" fill="#39b3d0"/>
          </g>
        </g>
        <g id="Group_18591" data-name="Group 18591" transform="translate(3.1 22.966)">
          <path id="Path_41439" data-name="Path 41439" d="M470.721,107.333a4.683,4.683,0,1,1-4.683-4.683A4.682,4.682,0,0,1,470.721,107.333Z" transform="translate(-442.536 -102.65)" fill="none" stroke="#38303b" stroke-miterlimit="10" stroke-width="0.709"/>
          <path id="Path_41440" data-name="Path 41440" d="M453.373,107.333a4.683,4.683,0,1,1-4.683-4.683A4.682,4.682,0,0,1,453.373,107.333Z" transform="translate(-440.623 -102.65)" fill="none" stroke="#38303b" stroke-miterlimit="10" stroke-width="0.709"/>
          <path id="Path_41441" data-name="Path 41441" d="M454.632,107.787a3.594,3.594,0,0,1,2.993-1.369,3.5,3.5,0,0,1,2.841,1.6" transform="translate(-441.795 -103.065)" fill="none" stroke="#38303b" stroke-miterlimit="10" stroke-width="0.709"/>
          <path id="Path_41442" data-name="Path 41442" d="M475.036,105.372a19.693,19.693,0,0,1-2.988,1.635" transform="translate(-443.715 -102.95)" fill="none" stroke="#38303b" stroke-miterlimit="10" stroke-width="0.709"/>
          <path id="Path_41443" data-name="Path 41443" d="M440.2,105.664l3.1,1.526" transform="translate(-440.204 -102.982)" fill="none" stroke="#38303b" stroke-miterlimit="10" stroke-width="0.709"/>
        </g>
      </g>
    </g>
  </g>
</svg>
