<svg xmlns="http://www.w3.org/2000/svg" xmlns:xlink="http://www.w3.org/1999/xlink" width="814.293" height="546.027" viewBox="0 0 814.293 546.027">
  <defs>
    <filter id="Path_41237" x="47" y="50.404" width="643" height="428" filterUnits="userSpaceOnUse">
      <feOffset dy="10" input="SourceAlpha"/>
      <feGaussianBlur stdDeviation="10" result="blur"/>
      <feFlood flood-opacity="0.161"/>
      <feComposite operator="in" in2="blur"/>
      <feComposite in="SourceGraphic"/>
    </filter>
    <filter id="Rectangle_18784" x="83.72" y="130.404" width="164" height="272" filterUnits="userSpaceOnUse">
      <feOffset dy="5" input="SourceAlpha"/>
      <feGaussianBlur stdDeviation="5" result="blur-2"/>
      <feFlood flood-opacity="0.161"/>
      <feComposite operator="in" in2="blur-2"/>
      <feComposite in="SourceGraphic"/>
    </filter>
    <filter id="Rectangle_18511" x="248" y="286.716" width="484.035" height="201.582" filterUnits="userSpaceOnUse">
      <feOffset dy="5" input="SourceAlpha"/>
      <feGaussianBlur stdDeviation="5" result="blur-3"/>
      <feFlood flood-opacity="0.161"/>
      <feComposite operator="in" in2="blur-3"/>
      <feComposite in="SourceGraphic"/>
    </filter>
    <filter id="Rectangle_18818" x="362" y="93.716" width="241.035" height="201.582" filterUnits="userSpaceOnUse">
      <feOffset dy="5" input="SourceAlpha"/>
      <feGaussianBlur stdDeviation="5" result="blur-4"/>
      <feFlood flood-opacity="0.161"/>
      <feComposite operator="in" in2="blur-4"/>
      <feComposite in="SourceGraphic"/>
    </filter>
  </defs>
  <g id="features-vector-2" transform="translate(-120.707 -3151.596)">
    <g id="Group_18506" data-name="Group 18506" transform="translate(-839.293 780)">
      <g id="Group_18499" data-name="Group 18499" transform="translate(1121.875 2375.354) rotate(101)" opacity="0.2">
        <path id="Path_41315" data-name="Path 41315" d="M81.746,31.624a2.952,2.952,0,1,0,2.934,2.957A2.858,2.858,0,0,0,81.746,31.624Z" transform="translate(30.647 15.324)" fill="#838383"/>
        <path id="Path_41316" data-name="Path 41316" d="M101.029,31.624a2.954,2.954,0,1,0,2.872,3.022A2.865,2.865,0,0,0,101.029,31.624Z" transform="translate(40.861 15.324)" fill="#838383"/>
        <path id="Path_41317" data-name="Path 41317" d="M120.209,31.624a2.953,2.953,0,1,0,2.911,2.98A2.86,2.86,0,0,0,120.209,31.624Z" transform="translate(51.078 15.324)" fill="#838383"/>
        <path id="Path_41318" data-name="Path 41318" d="M33.678,47.138a2.952,2.952,0,1,0-2.944-2.963A2.847,2.847,0,0,0,33.678,47.138Z" transform="translate(5.108 20.432)" fill="#838383"/>
        <path id="Path_41319" data-name="Path 41319" d="M52.855,47.14a2.953,2.953,0,1,0-2.9-3.008A2.855,2.855,0,0,0,52.855,47.14Z" transform="translate(15.323 20.432)" fill="#838383"/>
        <path id="Path_41320" data-name="Path 41320" d="M72.094,41.234a2.952,2.952,0,1,0,2.976,2.918A2.856,2.856,0,0,0,72.094,41.234Z" transform="translate(25.539 20.432)" fill="#838383"/>
        <path id="Path_41321" data-name="Path 41321" d="M91.469,41.235A2.956,2.956,0,1,0,94.291,44.3,2.868,2.868,0,0,0,91.469,41.235Z" transform="translate(35.753 20.431)" fill="#838383"/>
        <path id="Path_41322" data-name="Path 41322" d="M110.617,41.234a2.953,2.953,0,1,0,2.893,3A2.861,2.861,0,0,0,110.617,41.234Z" transform="translate(45.97 20.432)" fill="#838383"/>
        <path id="Path_41323" data-name="Path 41323" d="M43.31,56.748a2.952,2.952,0,1,0-2.962-2.939A2.849,2.849,0,0,0,43.31,56.748Z" transform="translate(10.218 25.54)" fill="#838383"/>
        <path id="Path_41324" data-name="Path 41324" d="M59.572,53.583a2.951,2.951,0,1,0,3.155-2.735A2.876,2.876,0,0,0,59.572,53.583Z" transform="translate(20.432 25.539)" fill="#838383"/>
        <path id="Path_41325" data-name="Path 41325" d="M81.856,50.845a2.956,2.956,0,1,0,2.823,3.069A2.857,2.857,0,0,0,81.856,50.845Z" transform="translate(30.648 25.539)" fill="#838383"/>
        <path id="Path_41326" data-name="Path 41326" d="M100.908,50.844a2.952,2.952,0,1,0,2.991,2.9A2.852,2.852,0,0,0,100.908,50.844Z" transform="translate(40.864 25.539)" fill="#838383"/>
        <path id="Path_41327" data-name="Path 41327" d="M52.9,66.358A2.952,2.952,0,1,0,49.954,63.4,2.848,2.848,0,0,0,52.9,66.358Z" transform="translate(15.323 30.647)" fill="#838383"/>
        <path id="Path_41328" data-name="Path 41328" d="M72.065,60.454a2.952,2.952,0,1,0,3,2.887A2.859,2.859,0,0,0,72.065,60.454Z" transform="translate(25.539 30.647)" fill="#838383"/>
        <path id="Path_41329" data-name="Path 41329" d="M91.4,60.454a2.953,2.953,0,1,0,2.891,3A2.861,2.861,0,0,0,91.4,60.454Z" transform="translate(35.754 30.647)" fill="#838383"/>
        <path id="Path_41330" data-name="Path 41330" d="M62.4,75.972a2.956,2.956,0,1,0-2.836-3.077A2.862,2.862,0,0,0,62.4,75.972Z" transform="translate(20.43 35.755)" fill="#838383"/>
        <path id="Path_41331" data-name="Path 41331" d="M81.81,70.064a2.954,2.954,0,1,0,2.87,3.023A2.861,2.861,0,0,0,81.81,70.064Z" transform="translate(30.646 35.755)" fill="#838383"/>
        <path id="Path_41332" data-name="Path 41332" d="M72.076,79.674a2.952,2.952,0,1,0,2.994,2.9A2.859,2.859,0,0,0,72.076,79.674Z" transform="translate(25.539 40.863)" fill="#838383"/>
        <path id="Path_41333" data-name="Path 41333" d="M52.917,8.7A2.848,2.848,0,0,0,55.85,5.734a2.947,2.947,0,1,0-5.895.018A2.864,2.864,0,0,0,52.917,8.7Z" transform="translate(15.324 0.001)" fill="#838383"/>
        <path id="Path_41334" data-name="Path 41334" d="M75.071,5.954a2.954,2.954,0,1,0-5.893-.42,2.954,2.954,0,1,0,5.893.42Z" transform="translate(25.538 0)" fill="#838383"/>
        <path id="Path_41335" data-name="Path 41335" d="M91.4,2.794a2.862,2.862,0,0,0-3,2.9,2.949,2.949,0,1,0,5.9.1A2.843,2.843,0,0,0,91.4,2.794Z" transform="translate(35.754 0.001)" fill="#838383"/>
        <path id="Path_41336" data-name="Path 41336" d="M43.348,18.307a2.848,2.848,0,0,0,2.89-3,2.946,2.946,0,1,0-5.89.1A2.856,2.856,0,0,0,43.348,18.307Z" transform="translate(10.218 5.108)" fill="#838383"/>
        <path id="Path_41337" data-name="Path 41337" d="M62.567,12.4a2.85,2.85,0,0,0-3,2.9,2.946,2.946,0,1,0,5.89.1A2.844,2.844,0,0,0,62.567,12.4Z" transform="translate(20.433 5.108)" fill="#838383"/>
        <path id="Path_41338" data-name="Path 41338" d="M81.764,12.4a2.848,2.848,0,0,0-2.976,2.922,2.945,2.945,0,1,0,5.89.055A2.84,2.84,0,0,0,81.764,12.4Z" transform="translate(30.649 5.109)" fill="#838383"/>
        <path id="Path_41339" data-name="Path 41339" d="M100.947,12.4a2.851,2.851,0,0,0-2.94,2.959,2.946,2.946,0,1,0,5.892-.018A2.841,2.841,0,0,0,100.947,12.4Z" transform="translate(40.864 5.109)" fill="#838383"/>
        <path id="Path_41340" data-name="Path 41340" d="M33.656,27.92a2.953,2.953,0,1,0-2.922-2.986A2.853,2.853,0,0,0,33.656,27.92Z" transform="translate(5.108 10.216)" fill="#838383"/>
        <path id="Path_41341" data-name="Path 41341" d="M52.878,27.92a2.953,2.953,0,1,0-2.924-2.986A2.852,2.852,0,0,0,52.878,27.92Z" transform="translate(15.323 10.216)" fill="#838383"/>
        <path id="Path_41342" data-name="Path 41342" d="M72.25,22.015a2.956,2.956,0,1,0,2.821,3.071A2.869,2.869,0,0,0,72.25,22.015Z" transform="translate(25.538 10.216)" fill="#838383"/>
        <path id="Path_41343" data-name="Path 41343" d="M91.357,22.014a2.952,2.952,0,1,0,2.933,2.959A2.858,2.858,0,0,0,91.357,22.014Z" transform="translate(35.754 10.216)" fill="#838383"/>
        <path id="Path_41344" data-name="Path 41344" d="M110.6,22.014a2.953,2.953,0,1,0,2.914,2.979A2.86,2.86,0,0,0,110.6,22.014Z" transform="translate(45.97 10.216)" fill="#838383"/>
        <path id="Path_41345" data-name="Path 41345" d="M24.049,37.53a2.953,2.953,0,1,0-2.925-2.983A2.852,2.852,0,0,0,24.049,37.53Z" transform="translate(0 15.324)" fill="#838383"/>
        <path id="Path_41346" data-name="Path 41346" d="M43.178,37.532a2.956,2.956,0,1,0-2.835-3.078A2.862,2.862,0,0,0,43.178,37.532Z" transform="translate(10.214 15.323)" fill="#838383"/>
        <path id="Path_41347" data-name="Path 41347" d="M62.563,31.624a2.953,2.953,0,1,0,2.9,2.994A2.86,2.86,0,0,0,62.563,31.624Z" transform="translate(20.431 15.324)" fill="#838383"/>
      </g>
      <g id="Group_18500" data-name="Group 18500" transform="translate(1788.279 2789.711) rotate(135)" opacity="0.197">
        <path id="Path_41315-2" data-name="Path 41315" d="M83.2,31.624a4.405,4.405,0,1,0,4.379,4.413A4.265,4.265,0,0,0,83.2,31.624Z" transform="translate(74.113 37.059)" fill="#838383"/>
        <path id="Path_41316-2" data-name="Path 41316" d="M102.519,31.624a4.407,4.407,0,1,0,4.285,4.509A4.275,4.275,0,0,0,102.519,31.624Z" transform="translate(98.816 37.058)" fill="#838383"/>
        <path id="Path_41317-2" data-name="Path 41317" d="M121.678,31.624a4.406,4.406,0,1,0,4.344,4.447A4.267,4.267,0,0,0,121.678,31.624Z" transform="translate(123.522 37.058)" fill="#838383"/>
        <path id="Path_41318-2" data-name="Path 41318" d="M35.126,50.044a4.405,4.405,0,1,0-4.392-4.422A4.249,4.249,0,0,0,35.126,50.044Z" transform="translate(12.352 49.411)" fill="#838383"/>
        <path id="Path_41319-2" data-name="Path 41319" d="M54.283,50.047a4.407,4.407,0,1,0-4.328-4.488A4.261,4.261,0,0,0,54.283,50.047Z" transform="translate(37.056 49.41)" fill="#838383"/>
        <path id="Path_41320-2" data-name="Path 41320" d="M73.531,41.234a4.405,4.405,0,1,0,4.44,4.354A4.262,4.262,0,0,0,73.531,41.234Z" transform="translate(61.762 49.411)" fill="#838383"/>
        <path id="Path_41321-2" data-name="Path 41321" d="M92.983,41.235a4.411,4.411,0,1,0,4.212,4.58A4.28,4.28,0,0,0,92.983,41.235Z" transform="translate(86.463 49.409)" fill="#838383"/>
        <path id="Path_41322-2" data-name="Path 41322" d="M112.1,41.234a4.407,4.407,0,1,0,4.317,4.475A4.27,4.27,0,0,0,112.1,41.234Z" transform="translate(111.17 49.411)" fill="#838383"/>
        <path id="Path_41323-2" data-name="Path 41323" d="M44.768,59.654a4.405,4.405,0,1,0-4.42-4.386A4.252,4.252,0,0,0,44.768,59.654Z" transform="translate(24.71 61.763)" fill="#838383"/>
        <path id="Path_41324-2" data-name="Path 41324" d="M59.575,54.932a4.4,4.4,0,1,0,4.708-4.082A4.292,4.292,0,0,0,59.575,54.932Z" transform="translate(49.412 61.761)" fill="#838383"/>
        <path id="Path_41325-2" data-name="Path 41325" d="M83.367,50.845a4.411,4.411,0,1,0,4.212,4.58A4.263,4.263,0,0,0,83.367,50.845Z" transform="translate(74.117 61.761)" fill="#838383"/>
        <path id="Path_41326-2" data-name="Path 41326" d="M102.336,50.844a4.4,4.4,0,1,0,4.463,4.328A4.256,4.256,0,0,0,102.336,50.844Z" transform="translate(98.821 61.763)" fill="#838383"/>
        <path id="Path_41327-2" data-name="Path 41327" d="M54.349,69.264a4.405,4.405,0,1,0-4.395-4.42A4.25,4.25,0,0,0,54.349,69.264Z" transform="translate(37.057 74.115)" fill="#838383"/>
        <path id="Path_41328-2" data-name="Path 41328" d="M73.488,60.454a4.4,4.4,0,1,0,4.484,4.308A4.266,4.266,0,0,0,73.488,60.454Z" transform="translate(61.762 74.115)" fill="#838383"/>
        <path id="Path_41329-2" data-name="Path 41329" d="M92.878,60.454a4.407,4.407,0,1,0,4.315,4.477A4.269,4.269,0,0,0,92.878,60.454Z" transform="translate(86.465 74.115)" fill="#838383"/>
        <path id="Path_41330-2" data-name="Path 41330" d="M63.8,78.88a4.411,4.411,0,1,0-4.232-4.591A4.271,4.271,0,0,0,63.8,78.88Z" transform="translate(49.406 86.466)" fill="#838383"/>
        <path id="Path_41331-2" data-name="Path 41331" d="M83.3,70.065a4.408,4.408,0,1,0,4.283,4.511A4.27,4.27,0,0,0,83.3,70.065Z" transform="translate(74.113 86.467)" fill="#838383"/>
        <path id="Path_41332-2" data-name="Path 41332" d="M73.5,79.674A4.4,4.4,0,1,0,77.972,84,4.266,4.266,0,0,0,73.5,79.674Z" transform="translate(61.762 98.819)" fill="#838383"/>
        <path id="Path_41333-2" data-name="Path 41333" d="M54.375,11.6a4.25,4.25,0,0,0,4.376-4.422,4.4,4.4,0,1,0-8.8.027A4.274,4.274,0,0,0,54.375,11.6Z" transform="translate(37.058 0.002)" fill="#838383"/>
        <path id="Path_41334-2" data-name="Path 41334" d="M77.975,7.511a4.408,4.408,0,1,0-8.794-.626,4.408,4.408,0,1,0,8.794.626Z" transform="translate(61.759 0)" fill="#838383"/>
        <path id="Path_41335-2" data-name="Path 41335" d="M92.878,2.794A4.271,4.271,0,0,0,88.394,7.12a4.4,4.4,0,1,0,8.8.151A4.243,4.243,0,0,0,92.878,2.794Z" transform="translate(86.465 0.002)" fill="#838383"/>
        <path id="Path_41336-2" data-name="Path 41336" d="M44.825,21.212a4.25,4.25,0,0,0,4.312-4.484,4.4,4.4,0,1,0-8.789.155A4.262,4.262,0,0,0,44.825,21.212Z" transform="translate(24.709 12.354)" fill="#838383"/>
        <path id="Path_41337-2" data-name="Path 41337" d="M64.043,12.4a4.252,4.252,0,0,0-4.475,4.326,4.4,4.4,0,1,0,8.789.153A4.243,4.243,0,0,0,64.043,12.4Z" transform="translate(49.414 12.354)" fill="#838383"/>
        <path id="Path_41338-2" data-name="Path 41338" d="M83.229,12.4a4.25,4.25,0,0,0-4.44,4.36,4.395,4.395,0,1,0,8.789.082A4.238,4.238,0,0,0,83.229,12.4Z" transform="translate(74.118 12.354)" fill="#838383"/>
        <path id="Path_41339-2" data-name="Path 41339" d="M102.395,12.4a4.255,4.255,0,0,0-4.388,4.415,4.4,4.4,0,1,0,8.792-.027A4.239,4.239,0,0,0,102.395,12.4Z" transform="translate(98.821 12.354)" fill="#838383"/>
        <path id="Path_41340-2" data-name="Path 41340" d="M35.095,30.826a4.257,4.257,0,0,0,4.438-4.365,4.4,4.4,0,1,0-8.8-.091A4.282,4.282,0,0,0,35.095,30.826Z" transform="translate(12.352 24.706)" fill="#838383"/>
        <path id="Path_41341-2" data-name="Path 41341" d="M54.317,30.826a4.256,4.256,0,0,0,4.436-4.365,4.4,4.4,0,1,0-8.8-.091A4.283,4.283,0,0,0,54.317,30.826Z" transform="translate(37.057 24.706)" fill="#838383"/>
        <path id="Path_41342-2" data-name="Path 41342" d="M73.766,22.015A4.411,4.411,0,1,0,73.4,30.83,4.271,4.271,0,0,0,77.975,26.6,4.251,4.251,0,0,0,73.766,22.015Z" transform="translate(61.758 24.705)" fill="#838383"/>
        <path id="Path_41343-2" data-name="Path 41343" d="M92.816,22.014A4.265,4.265,0,0,0,88.394,26.4a4.4,4.4,0,1,0,8.8.027A4.238,4.238,0,0,0,92.816,22.014Z" transform="translate(86.465 24.706)" fill="#838383"/>
        <path id="Path_41344-2" data-name="Path 41344" d="M112.064,22.014a4.267,4.267,0,0,0-4.45,4.36,4.4,4.4,0,1,0,8.8.085A4.24,4.24,0,0,0,112.064,22.014Z" transform="translate(111.17 24.706)" fill="#838383"/>
        <path id="Path_41345-2" data-name="Path 41345" d="M25.489,40.436a4.406,4.406,0,0,0,.085-8.812,4.406,4.406,0,1,0-.085,8.812Z" transform="translate(0 37.058)" fill="#838383"/>
        <path id="Path_41346-2" data-name="Path 41346" d="M44.575,40.44a4.411,4.411,0,1,0-4.23-4.594A4.271,4.271,0,0,0,44.575,40.44Z" transform="translate(24.702 37.057)" fill="#838383"/>
        <path id="Path_41347-2" data-name="Path 41347" d="M64.039,31.624a4.407,4.407,0,1,0,4.324,4.468A4.268,4.268,0,0,0,64.039,31.624Z" transform="translate(49.409 37.058)" fill="#838383"/>
      </g>
      <g id="Group_18424" data-name="Group 18424" transform="translate(-8.28 2223)">
        <path id="Path_41234" data-name="Path 41234" d="M132.5,29.909c70.627,81.1,144.335,62.132,144.335,138.775S212.214,232.343,132.5,232.343,0,203.389,0,126.746,61.873-51.193,132.5,29.909Z" transform="matrix(-0.966, -0.259, 0.259, -0.966, 1722.223, 445.476)" fill="#bef1fd" opacity="0.273"/>
        <path id="Path_41235" data-name="Path 41235" d="M132.5,29.909c70.627,81.1,144.335,62.132,144.335,138.775S212.214,232.343,132.5,232.343,0,203.389,0,126.746,61.873-51.193,132.5,29.909Z" transform="translate(968.28 461.449)" fill="#bef1fd" opacity="0.273"/>
        <g transform="matrix(1, 0, 0, 1, 968.28, 148.6)" filter="url(#Path_41237)">
          <path id="Path_41237-2" data-name="Path 41237" d="M568,0H15A15,15,0,0,0,0,15V353a15,15,0,0,0,15,15H568a15,15,0,0,0,15-15V15A15,15,0,0,0,568,0Z" transform="translate(77 70.4)" fill="#fff"/>
        </g>
        <g id="Group_18396" data-name="Group 18396" transform="translate(1073 304)">
          <g id="Group_18621" data-name="Group 18621" transform="translate(-6 -15)">
            <g transform="matrix(1, 0, 0, 1, -98.72, -140.4)" filter="url(#Rectangle_18784)">
              <rect id="Rectangle_18784-2" data-name="Rectangle 18784" width="134" height="242" rx="10" transform="translate(98.72 140.4)" fill="#fff"/>
            </g>
            <rect id="Rectangle_18785" data-name="Rectangle 18785" width="93" height="10" rx="5" transform="translate(19 124)" fill="#ddd"/>
            <rect id="Rectangle_18793" data-name="Rectangle 18793" width="93" height="10" rx="5" transform="translate(19 24)" fill="#ddd"/>
            <rect id="Rectangle_18786" data-name="Rectangle 18786" width="93" height="10" rx="5" transform="translate(19 144)" fill="#ddd"/>
            <rect id="Rectangle_18794" data-name="Rectangle 18794" width="93" height="10" rx="5" transform="translate(19 44)" fill="#ddd"/>
            <rect id="Rectangle_18787" data-name="Rectangle 18787" width="93" height="10" rx="5" transform="translate(19 164)" fill="#ddd"/>
            <rect id="Rectangle_18795" data-name="Rectangle 18795" width="93" height="10" rx="5" transform="translate(19 64)" fill="#ddd"/>
            <rect id="Rectangle_18788" data-name="Rectangle 18788" width="93" height="10" rx="5" transform="translate(19 184)" fill="#ddd"/>
            <rect id="Rectangle_18796" data-name="Rectangle 18796" width="93" height="10" rx="5" transform="translate(19 84)" fill="#ddd"/>
            <rect id="Rectangle_18789" data-name="Rectangle 18789" width="93" height="10" rx="5" transform="translate(19 204)" fill="#ddd"/>
            <rect id="Rectangle_18797" data-name="Rectangle 18797" width="93" height="10" rx="5" transform="translate(19 104)" fill="#ddd"/>
          </g>
        </g>
        <g id="Group_18425" data-name="Group 18425" transform="translate(1038.28 297)">
          <g id="Group_18415" data-name="Group 18415" transform="translate(193 158)">
            <g id="Group_18388" data-name="Group 18388" transform="translate(0 -9.688)">
              <g transform="matrix(1, 0, 0, 1, -263, -296.72)" filter="url(#Rectangle_18511)">
                <rect id="Rectangle_18511-2" data-name="Rectangle 18511" width="454.035" height="171.582" rx="10" transform="translate(263 296.72)" fill="#fff"/>
              </g>
            </g>
            <g id="Group_18414" data-name="Group 18414" transform="translate(7 5)">
              <circle id="Ellipse_3079" data-name="Ellipse 3079" cx="9.604" cy="9.604" r="9.604" fill="#82e589"/>
              <path id="Icon_feather-check" data-name="Icon feather-check" d="M17.072,9,9.46,16.612,6,13.152" transform="translate(-1.869 -2.806)" fill="none" stroke="#fff" stroke-linecap="round" stroke-linejoin="round" stroke-width="3"/>
            </g>
            <g id="Group_18513" data-name="Group 18513" transform="translate(7 53)">
              <circle id="Ellipse_3079-2" data-name="Ellipse 3079" cx="9.604" cy="9.604" r="9.604" fill="#82e589"/>
              <path id="Icon_feather-check-2" data-name="Icon feather-check" d="M17.072,9,9.46,16.612,6,13.152" transform="translate(-1.869 -2.806)" fill="none" stroke="#fff" stroke-linecap="round" stroke-linejoin="round" stroke-width="3"/>
            </g>
            <g id="Group_18515" data-name="Group 18515" transform="translate(7 101)">
              <circle id="Ellipse_3079-3" data-name="Ellipse 3079" cx="9.604" cy="9.604" r="9.604" fill="#82e589"/>
              <path id="Icon_feather-check-3" data-name="Icon feather-check" d="M17.072,9,9.46,16.612,6,13.152" transform="translate(-1.869 -2.806)" fill="none" stroke="#fff" stroke-linecap="round" stroke-linejoin="round" stroke-width="3"/>
            </g>
            <g id="Group_18432" data-name="Group 18432" transform="translate(7 29)">
              <circle id="Ellipse_3079-4" data-name="Ellipse 3079" cx="9.604" cy="9.604" r="9.604" fill="#82e589"/>
              <path id="Icon_feather-check-4" data-name="Icon feather-check" d="M17.072,9,9.46,16.612,6,13.152" transform="translate(-1.869 -2.806)" fill="none" stroke="#fff" stroke-linecap="round" stroke-linejoin="round" stroke-width="3"/>
            </g>
            <g id="Group_18512" data-name="Group 18512" transform="translate(7 77)">
              <circle id="Ellipse_3079-5" data-name="Ellipse 3079" cx="9.604" cy="9.604" r="9.604" fill="#82e589"/>
              <path id="Icon_feather-check-5" data-name="Icon feather-check" d="M17.072,9,9.46,16.612,6,13.152" transform="translate(-1.869 -2.806)" fill="none" stroke="#fff" stroke-linecap="round" stroke-linejoin="round" stroke-width="3"/>
            </g>
            <g id="Group_18514" data-name="Group 18514" transform="translate(7 125)">
              <circle id="Ellipse_3079-6" data-name="Ellipse 3079" cx="9.604" cy="9.604" r="9.604" fill="#82e589"/>
              <path id="Icon_feather-check-6" data-name="Icon feather-check" d="M17.072,9,9.46,16.612,6,13.152" transform="translate(-1.869 -2.806)" fill="none" stroke="#fff" stroke-linecap="round" stroke-linejoin="round" stroke-width="3"/>
            </g>
          </g>
          <path id="Path_41706" data-name="Path 41706" d="M2.448,17.032a1.308,1.308,0,0,1-.968-.36,1.308,1.308,0,0,1-.36-.968V7.272q.176-.032.5-.08a4.471,4.471,0,0,1,.648-.048,1.758,1.758,0,0,1,1.04.24,1.127,1.127,0,0,1,.32.944V15h3.84a2.228,2.228,0,0,1,.184.416,1.713,1.713,0,0,1,.088.56,1.17,1.17,0,0,1-.232.792.8.8,0,0,1-.632.264Zm9.136-.048a3.15,3.15,0,0,1-.448.088,4.677,4.677,0,0,1-.64.04,1.765,1.765,0,0,1-1.032-.232,1.072,1.072,0,0,1-.312-.9V9.4A3.844,3.844,0,0,1,9.6,9.3a3.91,3.91,0,0,1,.64-.048,1.719,1.719,0,0,1,1.032.24,1.1,1.1,0,0,1,.312.912ZM9.008,7.1a1.278,1.278,0,0,1,.376-.928,1.316,1.316,0,0,1,.984-.384,1.316,1.316,0,0,1,.984.384,1.278,1.278,0,0,1,.376.928,1.3,1.3,0,0,1-.376.944,1.316,1.316,0,0,1-.984.384,1.316,1.316,0,0,1-.984-.384A1.3,1.3,0,0,1,9.008,7.1Zm9.424,4.992a1.007,1.007,0,0,0-.336-.832,1.382,1.382,0,0,0-.9-.272,2.442,2.442,0,0,0-.7.1,3.27,3.27,0,0,0-.592.24v5.664a3.15,3.15,0,0,1-.448.088,4.677,4.677,0,0,1-.64.04,1.806,1.806,0,0,1-1.04-.232,1.058,1.058,0,0,1-.32-.9V11.032a1.164,1.164,0,0,1,.176-.672,1.943,1.943,0,0,1,.5-.48,4.154,4.154,0,0,1,1.32-.592,6.667,6.667,0,0,1,1.784-.224,4.194,4.194,0,0,1,2.7.768,2.654,2.654,0,0,1,.952,2.192v4.96a3.834,3.834,0,0,1-.464.088,4.677,4.677,0,0,1-.64.04,1.765,1.765,0,0,1-1.032-.232,1.072,1.072,0,0,1-.312-.9Zm8.816.96,2.768,2.688a1.813,1.813,0,0,1-.408,1.032,1.2,1.2,0,0,1-.936.36,1.487,1.487,0,0,1-.816-.224,3.692,3.692,0,0,1-.784-.736l-1.9-2.256v3.072a3.15,3.15,0,0,1-.448.088,4.677,4.677,0,0,1-.64.04,1.806,1.806,0,0,1-1.04-.232,1.058,1.058,0,0,1-.32-.9V6.584q.176-.048.464-.1a3.91,3.91,0,0,1,.64-.048,1.719,1.719,0,0,1,1.032.24,1.1,1.1,0,0,1,.312.912V12.12l2.9-2.944a1.953,1.953,0,0,1,1.2.336,1.007,1.007,0,0,1,.448.832,1.1,1.1,0,0,1-.3.76,11.4,11.4,0,0,1-.92.872Zm10.24,1.7a2.184,2.184,0,0,1-.88,1.848,4.262,4.262,0,0,1-2.592.664,7.17,7.17,0,0,1-1.224-.1,3.644,3.644,0,0,1-.952-.288,1.708,1.708,0,0,1-.624-.48,1.063,1.063,0,0,1-.224-.672,1.176,1.176,0,0,1,.144-.6,1.29,1.29,0,0,1,.368-.408,6.053,6.053,0,0,0,1.056.48,4.148,4.148,0,0,0,1.376.208q1.136,0,1.136-.64a.481.481,0,0,0-.2-.416,2.009,2.009,0,0,0-.68-.256l-.64-.144A4.212,4.212,0,0,1,31.6,13.1a2.017,2.017,0,0,1-.64-1.592,2.105,2.105,0,0,1,.92-1.8,4.141,4.141,0,0,1,2.472-.664,6.422,6.422,0,0,1,1.088.088,3.362,3.362,0,0,1,.88.264,1.669,1.669,0,0,1,.584.44.944.944,0,0,1,.216.616,1.221,1.221,0,0,1-.128.568,1.2,1.2,0,0,1-.336.408,2.328,2.328,0,0,0-.376-.176q-.248-.1-.536-.176a5.1,5.1,0,0,0-.608-.128,4.01,4.01,0,0,0-.592-.048,2.031,2.031,0,0,0-.872.152.487.487,0,0,0-.312.456.412.412,0,0,0,.176.352,1.953,1.953,0,0,0,.64.24l.608.144a4.3,4.3,0,0,1,2.08.928A2.093,2.093,0,0,1,37.488,14.744Z" transform="translate(205 116)"/>
          <rect id="Rectangle_18791" data-name="Rectangle 18791" width="409.035" height="8" rx="4" transform="translate(225 169)" fill="#ddd"/>
          <rect id="Rectangle_18808" data-name="Rectangle 18808" width="409.035" height="8" rx="4" transform="translate(225 217)" fill="#ddd"/>
          <rect id="Rectangle_18810" data-name="Rectangle 18810" width="409.035" height="8" rx="4" transform="translate(225 265)" fill="#ddd"/>
          <rect id="Rectangle_18799" data-name="Rectangle 18799" width="409.035" height="8" rx="4" transform="translate(225 193)" fill="#ddd"/>
          <rect id="Rectangle_18809" data-name="Rectangle 18809" width="409.035" height="8" rx="4" transform="translate(225 241)" fill="#ddd"/>
          <rect id="Rectangle_18811" data-name="Rectangle 18811" width="409.035" height="8" rx="4" transform="translate(225 289)" fill="#ddd"/>
        </g>
        <circle id="Ellipse_3092" data-name="Ellipse 3092" cx="7.346" cy="7.346" r="7.346" transform="translate(1065.573 233)" fill="#fff"/>
        <circle id="Ellipse_3093" data-name="Ellipse 3093" cx="7.346" cy="7.346" r="7.346" transform="translate(1084.904 233)" fill="#fff"/>
        <circle id="Ellipse_3094" data-name="Ellipse 3094" cx="7.346" cy="7.346" r="7.346" transform="translate(1104.234 233)" fill="#fff"/>
        <path id="Path_41487" data-name="Path 41487" d="M653.89,0H595.233a15,15,0,0,0-15,15V65.885s11.579-.224,33.912,0,33.978-9.143,40.393-25.259S655.837,0,653.89,0Z" transform="translate(465.293 219.392)" fill="#002443"/>
        <g id="Group_18709" data-name="Group 18709" transform="translate(181.573 -63.403)">
          <g transform="matrix(1, 0, 0, 1, 786.71, 212)" filter="url(#Rectangle_18818)">
            <rect id="Rectangle_18818-2" data-name="Rectangle 18818" width="211.035" height="171.582" rx="10" transform="translate(377 103.72)" fill="#fff"/>
          </g>
          <g id="Group_18707" data-name="Group 18707">
            <g id="Group_18706" data-name="Group 18706" transform="translate(-6.146 -2086)">
              <path id="Path_41524" data-name="Path 41524" d="M84.127,739H84.1a1.994,1.994,0,0,0-2,2v43.525h4.053V741A2.061,2.061,0,0,0,84.127,739Z" transform="translate(1098.146 1788.978)" fill="#ddd"/>
              <path id="Path_41606" data-name="Path 41606" d="M84.127,739h.03a1.994,1.994,0,0,1,2,2v43.525H82.1V741A2.061,2.061,0,0,1,84.127,739Z" transform="translate(1217.188 1788.978)" fill="#ddd"/>
              <path id="Path_41612" data-name="Path 41612" d="M84.127,739h.03a1.994,1.994,0,0,1,2,2v43.525H82.1V741A2.061,2.061,0,0,1,84.127,739Z" transform="translate(1282.188 1788.978)" fill="#ddd"/>
              <path id="Path_41525" data-name="Path 41525" d="M105.327,683h-.03a1.994,1.994,0,0,0-2,2V745.46h4.053V685.027A2.067,2.067,0,0,0,105.327,683Z" transform="translate(1087.734 1828.04)" fill="#ddd"/>
              <path id="Path_41607" data-name="Path 41607" d="M105.327,683h.03a1.994,1.994,0,0,1,2,2V745.46H103.3V685.027A2.067,2.067,0,0,1,105.327,683Z" transform="translate(1185.2 1828.04)" fill="#ddd"/>
              <path id="Path_41613" data-name="Path 41613" d="M105.327,683h.03a1.994,1.994,0,0,1,2,2V745.46H103.3V685.027A2.067,2.067,0,0,1,105.327,683Z" transform="translate(1250.2 1828.04)" fill="#ddd"/>
              <path id="Path_41526" data-name="Path 41526" d="M126.527,657.5h-.03a1.994,1.994,0,0,0-2,2v68.177h4.053V659.527A2.027,2.027,0,0,0,126.527,657.5Z" transform="translate(1077.322 1845.827)" fill="#ddd"/>
              <path id="Path_41608" data-name="Path 41608" d="M126.527,657.5h.03a1.994,1.994,0,0,1,2,2v68.176H124.5V659.527A2.027,2.027,0,0,1,126.527,657.5Z" transform="translate(1153.212 1845.827)" fill="#ddd"/>
              <path id="Path_41614" data-name="Path 41614" d="M126.527,657.5h.03a1.994,1.994,0,0,1,2,2v68.176H124.5V659.527A2.027,2.027,0,0,1,126.527,657.5Z" transform="translate(1218.212 1845.827)" fill="#ddd"/>
              <path id="Path_41527" data-name="Path 41527" d="M147.827,695.5h-.03a1.994,1.994,0,0,0-2,2v56.683h4.053V697.526A2.067,2.067,0,0,0,147.827,695.5Z" transform="translate(1066.861 1819.321)" fill="#ddd"/>
              <path id="Path_41609" data-name="Path 41609" d="M147.827,695.5h.03a1.994,1.994,0,0,1,2,2v56.683H145.8V697.526A2.067,2.067,0,0,1,147.827,695.5Z" transform="translate(1121.073 1819.321)" fill="#ddd"/>
              <path id="Path_41615" data-name="Path 41615" d="M147.827,695.5h.03a1.994,1.994,0,0,1,2,2v56.683H145.8V697.526A2.067,2.067,0,0,1,147.827,695.5Z" transform="translate(1186.073 1819.321)" fill="#ddd"/>
              <path id="Path_41528" data-name="Path 41528" d="M169.027,648.2H169a1.994,1.994,0,0,0-2,2v70.99h4.053V650.2A2.04,2.04,0,0,0,169.027,648.2Z" transform="translate(1056.449 1852.314)" fill="#ddd"/>
              <path id="Path_41610" data-name="Path 41610" d="M169.027,648.2h.03a1.994,1.994,0,0,1,2,2v70.99H167V650.2A2.04,2.04,0,0,1,169.027,648.2Z" transform="translate(1089.085 1852.314)" fill="#ddd"/>
              <path id="Path_41616" data-name="Path 41616" d="M169.027,648.2h.03a1.994,1.994,0,0,1,2,2v70.99H167V650.2A2.04,2.04,0,0,1,169.027,648.2Z" transform="translate(1154.085 1852.314)" fill="#ddd"/>
              <path id="Path_41529" data-name="Path 41529" d="M190.327,624.2h-.03a1.994,1.994,0,0,0-2,2v78.249h4.053V626.2A2.061,2.061,0,0,0,190.327,624.2Z" transform="translate(1045.988 1869.055)" fill="#ddd"/>
              <path id="Path_41611" data-name="Path 41611" d="M190.327,624.2h.03a1.994,1.994,0,0,1,2,2v78.249H188.3V626.2A2.061,2.061,0,0,1,190.327,624.2Z" transform="translate(1056.947 1869.055)" fill="#ddd"/>
              <path id="Path_41617" data-name="Path 41617" d="M190.327,624.2h.03a1.994,1.994,0,0,1,2,2v78.249H188.3V626.2A2.061,2.061,0,0,1,190.327,624.2Z" transform="translate(1121.947 1869.055)" fill="#ddd"/>
            </g>
          </g>
        </g>
        <path id="Path_41705" data-name="Path 41705" d="M9.14,22.7a4.66,4.66,0,0,1-1.008-.918,2.453,2.453,0,0,1-.5-1.638q0-1.944,2.376-2.772l4.212-1.512H15.44a2.847,2.847,0,0,1,3.024,3.024v19.08q-.4.108-1.044.216a8.8,8.8,0,0,1-1.44.108,3.956,3.956,0,0,1-2.34-.54,2.435,2.435,0,0,1-.72-2.052V21.368Zm26.712,4.356a10.48,10.48,0,0,0-1.062-5.274A3.219,3.219,0,0,0,31.928,20,3.142,3.142,0,0,0,29.1,21.782a10.79,10.79,0,0,0-1.026,5.274,11.188,11.188,0,0,0,.99,5.346,3.125,3.125,0,0,0,2.862,1.746,3.2,3.2,0,0,0,2.9-1.746A10.851,10.851,0,0,0,35.852,27.056ZM31.964,38.54a9.962,9.962,0,0,1-3.834-.72,7.844,7.844,0,0,1-2.988-2.16,10.122,10.122,0,0,1-1.926-3.582,16.556,16.556,0,0,1-.684-5.022,16.029,16.029,0,0,1,.7-4.986A10.175,10.175,0,0,1,25.2,18.488a8.032,8.032,0,0,1,2.988-2.16,10.188,10.188,0,0,1,7.524,0,8.032,8.032,0,0,1,2.988,2.16,10.4,10.4,0,0,1,1.98,3.582,15.658,15.658,0,0,1,.72,4.986,16.16,16.16,0,0,1-.7,5.022A10.341,10.341,0,0,1,38.75,35.66a7.844,7.844,0,0,1-2.988,2.16A9.866,9.866,0,0,1,31.964,38.54Zm25.56-11.484a10.48,10.48,0,0,0-1.062-5.274A3.219,3.219,0,0,0,53.6,20a3.142,3.142,0,0,0-2.826,1.782,10.79,10.79,0,0,0-1.026,5.274,11.188,11.188,0,0,0,.99,5.346A3.125,3.125,0,0,0,53.6,34.148,3.2,3.2,0,0,0,56.5,32.4,10.851,10.851,0,0,0,57.524,27.056ZM53.636,38.54a9.962,9.962,0,0,1-3.834-.72,7.844,7.844,0,0,1-2.988-2.16,10.122,10.122,0,0,1-1.926-3.582,16.555,16.555,0,0,1-.684-5.022,16.029,16.029,0,0,1,.7-4.986,10.175,10.175,0,0,1,1.962-3.582,8.032,8.032,0,0,1,2.988-2.16,10.188,10.188,0,0,1,7.524,0,8.032,8.032,0,0,1,2.988,2.16,10.4,10.4,0,0,1,1.98,3.582,15.658,15.658,0,0,1,.72,4.986,16.161,16.161,0,0,1-.7,5.022,10.342,10.342,0,0,1-1.944,3.582,7.844,7.844,0,0,1-2.988,2.16A9.866,9.866,0,0,1,53.636,38.54ZM77,21.4a6.3,6.3,0,0,1-.414,2.34,5.062,5.062,0,0,1-1.17,1.782,4.956,4.956,0,0,1-1.8,1.116,6.614,6.614,0,0,1-2.268.378,5.69,5.69,0,0,1-4.068-1.494A5.393,5.393,0,0,1,65.7,21.4a5.346,5.346,0,0,1,1.584-4.086,5.69,5.69,0,0,1,4.068-1.494,6.614,6.614,0,0,1,2.268.378,4.956,4.956,0,0,1,1.8,1.116,5.1,5.1,0,0,1,1.17,1.764A6.161,6.161,0,0,1,77,21.4Zm-7.308,0a2.621,2.621,0,0,0,.468,1.71,1.483,1.483,0,0,0,1.188.558,1.433,1.433,0,0,0,1.17-.558,2.7,2.7,0,0,0,.45-1.71,2.617,2.617,0,0,0-.45-1.692,1.451,1.451,0,0,0-1.17-.54,1.5,1.5,0,0,0-1.188.54A2.544,2.544,0,0,0,69.692,21.4Zm14.364-5.616a7.341,7.341,0,0,1,2.052.612,1.341,1.341,0,0,1,.9,1.224,2.508,2.508,0,0,1-.27,1.1,8.371,8.371,0,0,1-.7,1.17l-12.6,18.36a4.926,4.926,0,0,1-2.088-.594,1.426,1.426,0,0,1-.828-1.242,2.463,2.463,0,0,1,.252-1.044,7.594,7.594,0,0,1,.684-1.152Zm7.776,16.884a6.3,6.3,0,0,1-.414,2.34,5.062,5.062,0,0,1-1.17,1.782,4.956,4.956,0,0,1-1.8,1.116,6.614,6.614,0,0,1-2.268.378,5.69,5.69,0,0,1-4.068-1.494,5.393,5.393,0,0,1-1.584-4.122,5.346,5.346,0,0,1,1.584-4.086,5.69,5.69,0,0,1,4.068-1.494,6.614,6.614,0,0,1,2.268.378,4.956,4.956,0,0,1,1.8,1.116,5.1,5.1,0,0,1,1.17,1.764A6.161,6.161,0,0,1,91.832,32.672Zm-7.308,0a2.7,2.7,0,0,0,.468,1.728,1.513,1.513,0,0,0,2.376,0,2.7,2.7,0,0,0,.468-1.728A2.556,2.556,0,0,0,87.368,31a1.544,1.544,0,0,0-2.376,0A2.556,2.556,0,0,0,84.524,32.672Z" transform="translate(1408.28 269)" fill="#002443"/>
        <g id="Group_18810" data-name="Group 18810" transform="translate(1064.573 231.336)">
          <path id="Path_30" data-name="Path 30" d="M43.973,57.881a3.851,3.851,0,0,1-3.846-3.838V44.615a5.7,5.7,0,0,1,5.689-5.689h5.17a1.1,1.1,0,0,0,0-2.2H36.966a1.1,1.1,0,0,0,0,2.2h1.092a1.373,1.373,0,1,1,0,2.746H36.966a3.846,3.846,0,0,1,0-7.693h14.01a3.846,3.846,0,0,1,0,7.693h-5.17a2.945,2.945,0,0,0-2.934,2.943v9.428a1.1,1.1,0,0,0,2.2,0v-9.1a1.373,1.373,0,0,1,2.746,0v9.1A3.851,3.851,0,0,1,43.973,57.881Z" transform="translate(-26.269 -26.953)" fill="#33aac8"/>
          <path id="Path_31" data-name="Path 31" d="M17.646,0A17.654,17.654,0,1,0,35.3,17.653,17.655,17.655,0,0,0,17.646,0Zm0,32.868A15.216,15.216,0,1,1,32.86,17.653,15.216,15.216,0,0,1,17.646,32.868Z" transform="translate(0.01)" fill="#fff"/>
        </g>
      </g>
    </g>
    <g id="Group_18620" data-name="Group 18620" transform="translate(-18.078 3269.228)">
      <path id="Path_41444" data-name="Path 41444" d="M272.259,143.935c-2.712-4.854,6.167-17.714,6.984-23.5a6.86,6.86,0,0,0-.146-3.308c-.453-1.252-1.513-2.274-2.115-3.478-1.9-3.786,1.057-7.941,2.05-11.974,1.132-4.595-.23-9.809,2.771-13.735a18.043,18.043,0,0,1,3.859-3.393l6.654-4.825c3.413-2.474,7.585-5.116,11.915-4.179,3.272.708,5.464,3.246,7.984,5.174,2.928,2.24,6.524,3.762,9.446,6.007a17.346,17.346,0,0,1,6.979,15.78c-.271,2.022-.931,3.992-1.266,6.008a19.188,19.188,0,0,0,1.353,10.788c1.222,2.819,3.1,5.39,4.5,8.148s1.994,13.777-.433,17.489" transform="translate(-3.625)" fill="#803c3b"/>
      <g id="Group_18603" data-name="Group 18603" transform="translate(238.696 131.856)">
        <g id="Group_18596" data-name="Group 18596" transform="translate(39.749 129.889)">
          <g id="legs">
            <path id="Path_41445" data-name="Path 41445" d="M323.239,431.554c.732-17.3,2-47.556,2.728-64.852,1.149-27.164.721-48.975,1.871-76.138.1-2.267-.209-5.2-2.139-5.768a3.527,3.527,0,0,0-2.266.311c-5.75,2.286-10.387,7.908-12.032,14.582l-.891,6.484c1.578,38.355,3.637,83.691,4.243,125.381" transform="translate(-286.322 -284.71)" fill="#f7b094"/>
            <path id="Path_41446" data-name="Path 41446" d="M289.95,430.431c-.786-17.3-2.1-40.056-2.886-57.352q-1.852-40.745-3.705-81.49c-.1-2.267.225-5.2,2.3-5.768a4.041,4.041,0,0,1,2.434.311,21.538,21.538,0,0,1,12.928,14.582l1.963,8.35c-1.7,38.355-4.352,82.987-5.456,121.367" transform="translate(-283.342 -284.822)" fill="#f7b094"/>
          </g>
          <g id="Group_18594" data-name="Group 18594" transform="translate(1.759 141.843)">
            <path id="Path_41447" data-name="Path 41447" d="M286.859,456.5a1.718,1.718,0,0,1-1.52-1.8,11.96,11.96,0,0,1,1.3-6.2,8.283,8.283,0,0,1,5.254-4.309,6.738,6.738,0,0,1,7.531,3.993,14.316,14.316,0,0,1,1.162,5.916c.014,1.1-.637,2.01-1.457,2.035Z" transform="translate(-285.318 -444.029)" fill="#38303b"/>
          </g>
          <g id="Group_18595" data-name="Group 18595" transform="translate(25.096 141.843)">
            <path id="Path_41448" data-name="Path 41448" d="M326.159,456.511a1.453,1.453,0,0,0,1.3-1.477,11.514,11.514,0,0,0-1.331-6.537,8.6,8.6,0,0,0-5.5-4.309,7.138,7.138,0,0,0-7.884,3.993,14.191,14.191,0,0,0-1.218,6.347,1.481,1.481,0,0,0,1.249,1.6Z" transform="translate(-311.531 -444.029)" fill="#38303b"/>
          </g>
        </g>
        <path id="Path_41449" data-name="Path 41449" d="M265.971,161.607c.545-3.983,3.016-7.494,6.035-10.166a35.184,35.184,0,0,1,16.821-7.728,81.444,81.444,0,0,1,18.69-.894c6.432.271,12.861,1.715,18.252,5.215,2.144,1.392,4.288,2.374,6.116,4.158,3.07,2.992,6.332,6.377,6.661,10.64a12.719,12.719,0,0,1-2.386,7.774,21.93,21.93,0,0,1-8.554,7.584,43.943,43.943,0,0,1-8.8,2.911,146.1,146.1,0,0,1-15.567,3.36,30.411,30.411,0,0,1-9.632.109c-7.409-1.344-13.257-6.829-18.64-12.066" transform="translate(-241.688 -139.241)" fill="#f7b094"/>
        <path id="Path_41450" data-name="Path 41450" d="M283.241,328.652c-9.844-41.84-12.675-76.779-.55-113.876.383-1.171,1.26-3.552,2.218-4.327,1.2-.97,2.446.174,3.987.213l33.9.861c8.116,18.877,10.168,39.917,8.916,60.427s-3.287,37.847-7.7,57.915C320.217,334.714,284.454,333.8,283.241,328.652Z" transform="translate(-242.643 -146.633)" fill="#0e374d"/>
        <g id="Group_18597" data-name="Group 18597" transform="translate(0 72.442)">
          <rect id="Rectangle_18814" data-name="Rectangle 18814" width="64.526" height="38.715" rx="2.154" transform="translate(0 17.847) rotate(-16.056)" fill="#ea109a"/>
          <rect id="Rectangle_18815" data-name="Rectangle 18815" width="8.686" height="26.059" transform="matrix(0.961, -0.277, 0.277, 0.961, 48.99, 10.849)" fill="#ffedd7"/>
          <path id="Path_41451" data-name="Path 41451" d="M298.061,235.788a1.062,1.062,0,0,0-.114,1.073,3.3,3.3,0,0,0,.643.958c.991,1.149,2.193,2.4,3.513,2.263a.446.446,0,0,0,.43-.285.668.668,0,0,0-.1-.457,1.911,1.911,0,0,0-1.634-1.056,1.586,1.586,0,0,0-1.419,1.13,3.209,3.209,0,0,0,.671,2.812A7.928,7.928,0,0,0,302.27,244a4.851,4.851,0,0,1-1.084.436.9.9,0,0,0-.559,1.016,1.274,1.274,0,0,0,.4.561,7.285,7.285,0,0,0,1.87,1.263,2.262,2.262,0,0,0-1.031.635,1.148,1.148,0,0,0-.088,1.29c.34.5,1.038.448,1.4.928a1.1,1.1,0,0,0-.423,1.142,1.192,1.192,0,0,0,.844.929" transform="translate(-245.186 -221.897)" fill="none" stroke="#000" stroke-miterlimit="10" stroke-width="0.283"/>
        </g>
        <g id="Group_18598" data-name="Group 18598" transform="translate(20.09 21.73)">
          <path id="Path_41452" data-name="Path 41452" d="M278.775,174.966c-3.17,15.345-5.453,24.427-8.9,38.735-1.279,5.309-7.261,5.336-8.242-5.336-1.3-14.2,1.017-29.247,3.968-45.139" transform="translate(-261.262 -163.226)" fill="#f7b094"/>
        </g>
        <g id="Group_18602" data-name="Group 18602" transform="translate(82.366 22.071)">
          <g id="Group_18599" data-name="Group 18599">
            <path id="Path_41453" data-name="Path 41453" d="M331.21,175.35c3.453,15.345,5.94,24.427,9.695,38.734,1.393,5.31,5.178,20.4,6.684,25.627,1.721,5.976,8.045,6.132,6.795-3.144-1.012-7.507-1.916-12.8-2.678-19.516-2.079-18.33-2.185-33.86-6.146-53.442" transform="translate(-331.21 -163.609)" fill="#f7b094"/>
          </g>
          <g id="Group_18601" data-name="Group 18601" transform="translate(16.394 73.172)">
            <g id="Group_18600" data-name="Group 18600">
              <path id="Path_41454" data-name="Path 41454" d="M349.624,248.485a31.663,31.663,0,0,1,.966,8.957c-.118,3.242-.729,6.559,0,9.723.142.616,1.194.722,1.564.174a11.208,11.208,0,0,0,1.51-3.208.91.91,0,0,1,1.593-.073,4.366,4.366,0,0,1,.4,1.473c.348,3.014,1.052,5.369,1.4,8.382a20.356,20.356,0,0,0,.842,4.427c.223.571.735.256.906-.323.148-.5.293-2.518.346-2.263.119.57,1.115.705,1.348-.207a36.794,36.794,0,0,0,.676-12.008c-.974-7.177-3.99-10.23-4.768-17.745" transform="translate(-349.624 -245.796)" fill="#f7b094"/>
            </g>
          </g>
        </g>
        <path id="Path_41455" data-name="Path 41455" d="M335.282,153.861a38.528,38.528,0,0,0-12.577-9.777,8.921,8.921,0,0,0-2.411-1.308c-6.979-2.684-9.85-3.637-18.488-3.94a41.68,41.68,0,0,0-21.046,5.41,38.519,38.519,0,0,0-12.269,9.614c-1.916,2.275-3.631,5.407-2.346,8.088a9.008,9.008,0,0,0,2.22,2.6,119.732,119.732,0,0,1,9.261,9.477c.031.27.053.53.085.8.876,7.389,5.228,23.114,5.758,30.536.04.561-.709.025-.909,1.515l39.7-.606a18.9,18.9,0,0,1-.455-7.274c.793-7.666,3.98-17.167,4.88-25.58a119.653,119.653,0,0,1,8.72-8.869,9.008,9.008,0,0,0,2.22-2.6C338.913,159.268,337.2,156.135,335.282,153.861Z" transform="translate(-241.658 -138.818)" fill="#39b3d0"/>
        <path id="Path_41456" data-name="Path 41456" d="M272.222,208.4a34.418,34.418,0,0,0,.111,7.7c2.383,13.883,5.865,27.676,7.8,38.536.333,1.872-5.228,5.962-5.228,5.962a388.237,388.237,0,0,1-12.573-42.453,75.914,75.914,0,0,1-.909-13.412" transform="translate(-241.187 -146.049)" fill="#f7b094"/>
        <path id="Path_41457" data-name="Path 41457" d="M274.62,257.8c-.008,5.167-.207,10.18.247,15.338,1.132.893,3.1,1.186,4.049.093a2.43,2.43,0,0,0,2.862-.072c.2-.2.394-.5.664-.576.3-.08,1.274.579,2.178.238a1.9,1.9,0,0,0,1.36-1.488c.15-.475,1.462.189,1.952-.828a2.677,2.677,0,0,0-.47-2.361l-6.4-11.415a4.666,4.666,0,0,0-2.15-2.334c-1.011-.375-2.438.392-2.246,1.461" transform="translate(-242.631 -151.486)" fill="#f7b094"/>
      </g>
      <g id="Group_18619" data-name="Group 18619" transform="translate(281.55 77.704)">
        <g id="Group_18618" data-name="Group 18618">
          <g id="Group_18612" data-name="Group 18612" transform="translate(0 8.425)">
            <g id="Group_18606" data-name="Group 18606" transform="translate(9.467 31.909)">
              <g id="Group_18604" data-name="Group 18604" transform="translate(0 1.052)">
                <path id="Path_41458" data-name="Path 41458" d="M313.684,143.525a107.24,107.24,0,0,1-3.035-16.71,1.586,1.586,0,0,0-.1-.533.756.756,0,0,0-.6-.4c-1.879-.379-3.811.126-5.68-.343-1.528-.383-3.048-1.413-4.564-.943a.7.7,0,0,0-.417.285,1.531,1.531,0,0,0-.142.749c-.025,1.166-.012,2.334,0,3.5.04,3.563-1.717,12.932-1.678,16.495" transform="translate(-297.463 -124.48)" fill="#f7b094"/>
              </g>
              <g id="Group_18605" data-name="Group 18605" transform="translate(1.454)">
                <path id="Path_41459" data-name="Path 41459" d="M299.252,123.7a.7.7,0,0,1,.417-.285c1.515-.47,3.037.56,4.565.943,1.868.469,3.8-.037,5.68.343a.758.758,0,0,1,.6.4,1.586,1.586,0,0,1,.1.533c.149,1.873.573,3.566.722,5.438a10.353,10.353,0,0,1-5.468,2.493,7.424,7.424,0,0,1-6.741-3.949q-.009-.831-.019-1.662c-.013-1.166-.026-2.333,0-3.5A1.541,1.541,0,0,1,299.252,123.7Z" transform="translate(-299.096 -123.298)" fill="#e89c82"/>
              </g>
            </g>
            <g id="Group_18611" data-name="Group 18611">
              <g id="Group_18607" data-name="Group 18607" transform="translate(2.779)">
                <path id="Path_41460" data-name="Path 41460" d="M289.952,107.585c0,11.458,7.907,20.747,14.952,20.747s14.953-9.289,14.953-20.747S311.95,87.457,304.9,87.457,289.952,96.127,289.952,107.585Z" transform="translate(-289.952 -87.457)" fill="#f7b094"/>
              </g>
              <g id="Group_18610" data-name="Group 18610" transform="translate(0 16.714)">
                <g id="Group_18608" data-name="Group 18608">
                  <path id="Path_41461" data-name="Path 41461" d="M290.427,114.11a4.951,4.951,0,0,1-3.587-4.084,3.526,3.526,0,0,1,3.4-3.791" transform="translate(-286.83 -106.231)" fill="#f7b094"/>
                </g>
                <g id="Group_18609" data-name="Group 18609" transform="translate(31.401)">
                  <path id="Path_41462" data-name="Path 41462" d="M322.1,114.11a4.948,4.948,0,0,0,3.586-4.084,3.526,3.526,0,0,0-3.4-3.791" transform="translate(-322.1 -106.231)" fill="#f7b094"/>
                </g>
              </g>
            </g>
          </g>
          <g id="Group_18613" data-name="Group 18613" transform="translate(24.506 24.286)">
            <path id="Path_41463" data-name="Path 41463" d="M314.355,107.362c0,1.154.51,2.09,1.14,2.09s1.14-.936,1.14-2.09-.51-2.09-1.14-2.09S314.355,106.208,314.355,107.362Z" transform="translate(-314.355 -105.272)" fill="#38303b"/>
          </g>
          <g id="Group_18614" data-name="Group 18614" transform="translate(9.695 24.181)">
            <path id="Path_41464" data-name="Path 41464" d="M297.72,107.244c0,1.154.51,2.09,1.141,2.09s1.14-.936,1.14-2.09-.51-2.09-1.14-2.09S297.72,106.09,297.72,107.244Z" transform="translate(-297.72 -105.154)" fill="#38303b"/>
          </g>
          <g id="Group_18615" data-name="Group 18615" transform="translate(6.269 19.205)">
            <path id="Path_41465" data-name="Path 41465" d="M293.9,101.686c-.087.195.061.306.14.259.165-.1.212-.336.669-.627a6.19,6.19,0,0,1,5.612-.344,9.339,9.339,0,0,0,.989.516.257.257,0,0,0,.3-.208.668.668,0,0,0-.135-.354,2.761,2.761,0,0,0-1.287-.951,5.707,5.707,0,0,0-5.042.387,3.016,3.016,0,0,0-1.238,1.305" transform="translate(-293.872 -99.565)" fill="#803c3b"/>
          </g>
          <path id="Path_41466" data-name="Path 41466" d="M312.737,106.612a2.991,2.991,0,0,1,5.177.232" transform="translate(-289.672 -80.982)" fill="none" stroke="#38303b" stroke-miterlimit="10" stroke-width="0.709"/>
          <path id="Path_41467" data-name="Path 41467" d="M301.232,106.612a2.991,2.991,0,0,0-5.177.232" transform="translate(-287.842 -80.982)" fill="none" stroke="#38303b" stroke-miterlimit="10" stroke-width="0.709"/>
          <path id="Path_41468" data-name="Path 41468" d="M307.318,116.963a1.85,1.85,0,0,0,1.643-2.907c-.216-.31-.523-.546-.75-.848a4.205,4.205,0,0,1-.615-2.26l-.451-5.886" transform="translate(-289.058 -80.963)" fill="none" stroke="#e89c82" stroke-miterlimit="10" stroke-width="1"/>
          <g id="Group_18616" data-name="Group 18616" transform="translate(22.056 19.205)">
            <path id="Path_41469" data-name="Path 41469" d="M319.317,101.686c.088.195-.061.306-.14.259-.165-.1-.211-.336-.669-.627a6.19,6.19,0,0,0-5.612-.344,9.336,9.336,0,0,1-.989.516.258.258,0,0,1-.3-.208.675.675,0,0,1,.135-.354,2.763,2.763,0,0,1,1.287-.951,5.7,5.7,0,0,1,5.041.387,3.013,3.013,0,0,1,1.239,1.305" transform="translate(-311.604 -99.565)" fill="#803c3b"/>
          </g>
          <path id="Path_41470" data-name="Path 41470" d="M302.574,122.974a3.709,3.709,0,0,0,2.285-.7,1.514,1.514,0,0,1,.484-.289c.543-.146,1.094.408,1.637.264.347-.093.525-.354.886-.323a1.166,1.166,0,0,1,.548.234,2.933,2.933,0,0,0,2.4.685l-.023.03c-.483.049-.894.634-1.3.988a4.761,4.761,0,0,1-1.5,1.129,3.767,3.767,0,0,1-2.941-.2c-.9-.444-1.59-1.285-2.468-1.764" transform="translate(-288.557 -82.813)" fill="#e66e60"/>
          <path id="Path_41471" data-name="Path 41471" d="M301.746,122.762a11.589,11.589,0,0,0,9.463-.1" transform="translate(-288.466 -82.893)" fill="none" stroke="#ce564d" stroke-miterlimit="10" stroke-width="0.283"/>
          <g id="Group_18617" data-name="Group 18617" transform="translate(25.937)">
            <path id="Path_41472" data-name="Path 41472" d="M318.932,84a16.951,16.951,0,0,1,6.3-3.924A19.369,19.369,0,0,0,320,86.27" transform="translate(-316.289 -78.222)" fill="#803c3b"/>
            <path id="Path_41473" data-name="Path 41473" d="M315.963,83.24a33.319,33.319,0,0,1,3.02-5.246l-.475,6.388" transform="translate(-315.963 -77.994)" fill="#803c3b"/>
          </g>
          <path id="Path_41474" data-name="Path 41474" d="M305.21,85.487a16.231,16.231,0,0,0,6.4,8.826,42.524,42.524,0,0,0,9.9,4.992.344.344,0,0,0,.24.03c.108-.043.141-.176.156-.291.475-3.551-1.376-7.042-3.782-9.7a17.418,17.418,0,0,0-10.443-5.872,2.277,2.277,0,0,0-2.1.514" transform="translate(-288.846 -78.591)" fill="#803c3b"/>
          <path id="Path_41475" data-name="Path 41475" d="M308.128,84.715c-.895,3.681-3.811,6.915-7.365,9.34A57.957,57.957,0,0,1,288.846,99.8a.507.507,0,0,1-.294.048.328.328,0,0,1-.209-.281c-.8-3.535,1.278-7.179,4.087-10.024a23.125,23.125,0,0,1,12.534-6.665,3.285,3.285,0,0,1,2.621.363" transform="translate(-286.977 -78.519)" fill="#803c3b"/>
        </g>
        <path id="Path_41476" data-name="Path 41476" d="M319.309,141.365a34.879,34.879,0,0,0-30.053-.1c1.96,6.735,12.8,14.426,15.739,14.316C307.848,155.478,317.44,147.617,319.309,141.365Z" transform="translate(-287.096 -84.567)" fill="#f7b094"/>
      </g>
    </g>
  </g>
</svg>
