<svg id="homepage-testimonials-quote" xmlns="http://www.w3.org/2000/svg" width="56.161" height="56.179" viewBox="0 0 56.161 56.179">
  <path id="Path_41488" data-name="Path 41488" d="M26.582,6.75H15.174A8.449,8.449,0,0,0,6.75,15.174V37.639a8.449,8.449,0,0,0,8.424,8.424h6.792a1.412,1.412,0,0,1,1.4,1.509,21.407,21.407,0,0,1-5.493,13,1.4,1.4,0,0,0,1.035,2.352h7a1.363,1.363,0,0,0,1.106-.544c1.3-1.685,5-7.3,5-16.48v-33.7A5.32,5.32,0,0,0,26.582,6.75Z" transform="translate(-6.75 -6.75)" fill="#39b3d0"/>
  <path id="Path_41489" data-name="Path 41489" d="M38.957,6.75H27.549a8.449,8.449,0,0,0-8.424,8.424V37.639a8.449,8.449,0,0,0,8.424,8.424h6.792a1.412,1.412,0,0,1,1.4,1.509,21.407,21.407,0,0,1-5.493,13,1.4,1.4,0,0,0,1.035,2.352h7a1.363,1.363,0,0,0,1.106-.544c1.3-1.685,5-7.3,5-16.48v-33.7A5.32,5.32,0,0,0,38.957,6.75Z" transform="translate(11.764 -6.75)" fill="#39b3d0"/>
</svg>
