<svg id="Group_28" data-name="Group 28" xmlns="http://www.w3.org/2000/svg" width="58.46" height="58.46" viewBox="0 0 58.46 58.46">
  <path id="Path_16" data-name="Path 16" d="M51.089,73.554A6.375,6.375,0,0,1,44.72,67.2V51.589A9.43,9.43,0,0,1,54.14,42.17H62.7a1.822,1.822,0,0,0,0-3.64H39.489a1.822,1.822,0,0,0,0,3.64H41.3a2.273,2.273,0,0,1,0,4.547H39.489a6.369,6.369,0,0,1,0-12.737h23.2a6.369,6.369,0,0,1,0,12.737h-8.56a4.876,4.876,0,0,0-4.859,4.872V67.2a1.822,1.822,0,0,0,3.64,0V52.134a2.273,2.273,0,0,1,4.547,0V67.2A6.375,6.375,0,0,1,51.089,73.554Z" transform="translate(-21.776 -22.345)" fill="#33aac8"/>
  <path id="Path_17" data-name="Path 17" d="M29.224,0A29.23,29.23,0,1,0,58.45,29.228,29.231,29.231,0,0,0,29.224,0Zm0,54.42a25.193,25.193,0,1,1,25.19-25.192A25.194,25.194,0,0,1,29.224,54.42Z" transform="translate(0.01)" fill="#002443"/>
</svg>
