<svg xmlns="http://www.w3.org/2000/svg" width="322.714" height="74.088" viewBox="0 0 322.714 74.088">
  <g id="Layer_2" data-name="Layer 2" transform="translate(6 1.633)">
    <g id="Layer_1" data-name="Layer 1" transform="translate(-6 -1.633)">
      <g id="Group_14" data-name="Group 14">
        <g id="Group_13" data-name="Group 13" transform="translate(92.529 1.333)">
          <path id="Path_25" data-name="Path 25" d="M236.909,65.62a3.905,3.905,0,0,0-3-1.376h-3.35a6.61,6.61,0,0,1-5.32-2.66,10.164,10.164,0,0,1-2.17-6.6V30.655h8.375a4.738,4.738,0,0,0,3.35-1.185,3.853,3.853,0,0,0,1.28-2.951,4.1,4.1,0,0,0-1.28-3.155,4.773,4.773,0,0,0-3.35-1.18h-8.37V8A5.016,5.016,0,0,0,214.6,4.455,4.625,4.625,0,0,0,213.252,7.4l-.022,48.256v.026a20.455,20.455,0,0,0,2.256,9.052,17.492,17.492,0,0,0,6.253,6.865,16.212,16.212,0,0,0,8.817,2.512h1.77a6.244,6.244,0,0,0,4.187-1.38,4.435,4.435,0,0,0,1.627-3.545A5.138,5.138,0,0,0,236.909,65.62Z" transform="translate(-213.23 -3.071)" fill="#fff"/>
          <path id="Path_26" data-name="Path 26" d="M327.861,42.785q2.955,1.579,2.955,3.94a3.472,3.472,0,0,1-.1.989,3.794,3.794,0,0,1-3.94,3.15,8.062,8.062,0,0,1-1.475-.2,39.22,39.22,0,0,0-6.4-.686q-7.09,0-11.429,3.25a10.388,10.388,0,0,0-4.339,8.765v28.76A5.046,5.046,0,0,1,301.9,94.4a4.861,4.861,0,0,1-3.7,1.3,5.05,5.05,0,0,1-3.641-1.228,4.963,4.963,0,0,1-1.3-3.7V46.725a4.868,4.868,0,0,1,1.3-3.641,5.066,5.066,0,0,1,3.641-1.3q4.925.017,4.925,4.942V48.6a20.785,20.785,0,0,1,7.29-5.42,22.156,22.156,0,0,1,9.26-1.97A17.571,17.571,0,0,1,327.861,42.785Z" transform="translate(-258.533 -24.66)" fill="#fff"/>
          <path id="Path_27" data-name="Path 27" d="M423.447,45.31a26.526,26.526,0,0,1,9.755,9.85A27.48,27.48,0,0,1,436.794,69.1V91.063a5.025,5.025,0,1,1-10.045,0V87.4a24.577,24.577,0,0,1-40.94-4.387,29.4,29.4,0,0,1-3.3-13.938,27.771,27.771,0,0,1,3.549-13.938,25.892,25.892,0,0,1,9.811-9.828,27.289,27.289,0,0,1,13.842-3.593,26.751,26.751,0,0,1,13.738,3.593ZM418.622,85.1a17.014,17.014,0,0,0,6.253-6.6,19.435,19.435,0,0,0,2.269-9.407,19.734,19.734,0,0,0-2.269-9.468,17.216,17.216,0,0,0-30.387,0,19.418,19.418,0,0,0-2.313,9.455,19.127,19.127,0,0,0,2.313,9.407,17.4,17.4,0,0,0,6.3,6.6,17.678,17.678,0,0,0,17.83,0Z" transform="translate(-309.053 -24.947)" fill="#fff"/>
          <path id="Path_28" data-name="Path 28" d="M572.019,92.308a3.935,3.935,0,0,1-1.228,2.946,4.417,4.417,0,0,1-3.2,1.18,4.155,4.155,0,0,1-3.549-1.575l-15.665-18.7L533.5,94.876a4.686,4.686,0,0,1-3.545,1.575,3.97,3.97,0,0,1-4.235-4.135,5.64,5.64,0,0,1,1.38-3.645l15.265-19.092-16.25-19.231a5.775,5.775,0,0,1-1.48-3.745,3.975,3.975,0,0,1,1.133-2.855,4.221,4.221,0,0,1,3.2-1.185,4.6,4.6,0,0,1,3.745,1.675l16.155,19.309,14.476-19.309a4.339,4.339,0,0,1,3.645-1.675,4.01,4.01,0,0,1,3.1,1.232,4.287,4.287,0,0,1,1.128,3.007,6.291,6.291,0,0,1-1.38,3.94l-14.875,19.4,15.66,18.719A4.877,4.877,0,0,1,572.019,92.308Z" transform="translate(-389.512 -25.424)" fill="#fff"/>
          <path id="Path_29" data-name="Path 29" d="M691.785,42.762q2.955,1.579,2.955,3.94a3.477,3.477,0,0,1-.1.989,3.794,3.794,0,0,1-3.94,3.15,8.013,8.013,0,0,1-1.471-.2,39.267,39.267,0,0,0-6.4-.686q-7.095,0-11.425,3.25a10.388,10.388,0,0,0-4.339,8.765v28.76a5.208,5.208,0,0,1-8.57,3.719,4.876,4.876,0,0,1-1.28-3.7V46.7a4.916,4.916,0,0,1,1.28-3.641,5.024,5.024,0,0,1,3.645-1.3q4.929,0,4.925,4.925v1.875a20.785,20.785,0,0,1,7.29-5.42,22.156,22.156,0,0,1,9.26-1.97A17.691,17.691,0,0,1,691.785,42.762Z" transform="translate(-464.558 -24.638)" fill="#fff"/>
        </g>
        <path id="Path_30" data-name="Path 30" d="M55.892,84.132a8.08,8.08,0,0,1-8.071-8.054V56.3A11.95,11.95,0,0,1,59.758,44.359H70.606a2.308,2.308,0,0,0,0-4.613H41.191a2.308,2.308,0,0,0,0,4.613h2.291a2.881,2.881,0,1,1,0,5.762H41.191a8.071,8.071,0,0,1,0-16.142h29.4a8.071,8.071,0,0,1,0,16.142H59.741A6.179,6.179,0,0,0,53.584,56.3V76.079a2.308,2.308,0,0,0,4.613,0V56.986a2.881,2.881,0,0,1,5.762,0V76.079A8.08,8.08,0,0,1,55.892,84.132Z" transform="translate(-18.744 -19.235)" fill="#33aac8"/>
        <path id="Path_31" data-name="Path 31" d="M37.038,0A37.044,37.044,0,1,0,74.078,37.041,37.045,37.045,0,0,0,37.038,0Zm0,68.967A31.928,31.928,0,1,1,68.962,37.041,31.929,31.929,0,0,1,37.038,68.967Z" transform="translate(0.01)" fill="#fff"/>
      </g>
    </g>
  </g>
</svg>
