<svg id="Layer_2" data-name="Layer 2" xmlns="http://www.w3.org/2000/svg" width="254.644" height="58.46" viewBox="0 0 254.644 58.46">
  <g id="Layer_1" data-name="Layer 1" transform="translate(0)">
    <g id="Group_10" data-name="Group 10">
      <g id="Group_9" data-name="Group 9" transform="translate(73.012 1.052)">
        <path id="Path_11" data-name="Path 11" d="M231.914,52.427a3.082,3.082,0,0,0-2.369-1.085H226.9a5.216,5.216,0,0,1-4.2-2.1,8.021,8.021,0,0,1-1.712-5.208v-19.2H227.6a3.739,3.739,0,0,0,2.643-.935,3.04,3.04,0,0,0,1.01-2.328,3.236,3.236,0,0,0-1.01-2.489,3.766,3.766,0,0,0-2.643-.931H221V6.96a3.958,3.958,0,0,0-6.687-2.8,3.65,3.65,0,0,0-1.061,2.325l-.017,38.078v.021a16.141,16.141,0,0,0,1.78,7.142,13.8,13.8,0,0,0,4.934,5.417,12.792,12.792,0,0,0,6.957,1.982h1.4a4.927,4.927,0,0,0,3.3-1.089,3.5,3.5,0,0,0,1.284-2.8A4.054,4.054,0,0,0,231.914,52.427Z" transform="translate(-213.23 -3.071)" fill="#002443"/>
        <path id="Path_12" data-name="Path 12" d="M320.563,42.452q2.332,1.246,2.332,3.109a2.738,2.738,0,0,1-.079.781,2.994,2.994,0,0,1-3.109,2.486,6.361,6.361,0,0,1-1.164-.157,30.946,30.946,0,0,0-5.054-.541,14.671,14.671,0,0,0-9.019,2.565,8.2,8.2,0,0,0-3.424,6.916V80.3a3.982,3.982,0,0,1-.969,2.876,3.836,3.836,0,0,1-2.917,1.027,3.984,3.984,0,0,1-2.873-.969,3.916,3.916,0,0,1-1.027-2.917V45.561a3.841,3.841,0,0,1,1.027-2.873,4,4,0,0,1,2.873-1.027q3.886.014,3.886,3.9V47.04a16.4,16.4,0,0,1,5.752-4.276,17.483,17.483,0,0,1,7.307-1.554A13.865,13.865,0,0,1,320.563,42.452Z" transform="translate(-265.858 -28.151)" fill="#002443"/>
        <path id="Path_13" data-name="Path 13" d="M414.811,44.552a20.931,20.931,0,0,1,7.7,7.772,21.684,21.684,0,0,1,2.835,11V80.654a3.965,3.965,0,1,1-7.926,0v-2.89a19.393,19.393,0,0,1-32.3-3.462,23.2,23.2,0,0,1-2.606-11,21.914,21.914,0,0,1,2.8-11,20.431,20.431,0,0,1,7.742-7.755,21.533,21.533,0,0,1,10.922-2.835A21.109,21.109,0,0,1,414.811,44.552ZM411,75.953a13.425,13.425,0,0,0,4.934-5.208,15.336,15.336,0,0,0,1.791-7.423,15.572,15.572,0,0,0-1.791-7.471,13.585,13.585,0,0,0-23.978,0,15.322,15.322,0,0,0-1.825,7.461,15.093,15.093,0,0,0,1.825,7.423,13.727,13.727,0,0,0,4.975,5.208,13.949,13.949,0,0,0,14.069,0Z" transform="translate(-324.546 -28.484)" fill="#002443"/>
        <path id="Path_14" data-name="Path 14" d="M562.025,81.814a3.105,3.105,0,0,1-.969,2.325,3.486,3.486,0,0,1-2.523.931,3.279,3.279,0,0,1-2.8-1.243l-12.36-14.754L531.634,83.841a3.7,3.7,0,0,1-2.8,1.243,3.133,3.133,0,0,1-3.342-3.263,4.451,4.451,0,0,1,1.089-2.876l12.045-15.065L525.807,48.7a4.557,4.557,0,0,1-1.168-2.955,3.137,3.137,0,0,1,.894-2.253,3.331,3.331,0,0,1,2.527-.935,3.633,3.633,0,0,1,2.955,1.322L543.762,59.12l11.422-15.237a3.424,3.424,0,0,1,2.876-1.322,3.164,3.164,0,0,1,2.448.972,3.383,3.383,0,0,1,.89,2.373,4.965,4.965,0,0,1-1.089,3.109L548.572,64.324,560.929,79.1A3.848,3.848,0,0,1,562.025,81.814Z" transform="translate(-418.014 -29.038)" fill="#002443"/>
        <path id="Path_15" data-name="Path 15" d="M684.492,42.426q2.332,1.246,2.332,3.109a2.74,2.74,0,0,1-.079.781,2.994,2.994,0,0,1-3.109,2.486,6.325,6.325,0,0,1-1.161-.157,30.981,30.981,0,0,0-5.054-.541,14.646,14.646,0,0,0-9.015,2.565,8.2,8.2,0,0,0-3.424,6.916V80.278a4.11,4.11,0,0,1-6.762,2.934,3.848,3.848,0,0,1-1.01-2.917V45.535a3.879,3.879,0,0,1,1.01-2.873,3.964,3.964,0,0,1,2.876-1.027q3.89,0,3.886,3.886V47a16.4,16.4,0,0,1,5.752-4.277,17.483,17.483,0,0,1,7.307-1.554A13.961,13.961,0,0,1,684.492,42.426Z" transform="translate(-505.194 -28.125)" fill="#002443"/>
      </g>
      <path id="Path_16" data-name="Path 16" d="M51.089,73.554A6.375,6.375,0,0,1,44.72,67.2V51.589A9.43,9.43,0,0,1,54.14,42.17H62.7a1.822,1.822,0,0,0,0-3.64H39.489a1.822,1.822,0,0,0,0,3.64H41.3a2.273,2.273,0,0,1,0,4.547H39.489a6.369,6.369,0,0,1,0-12.737h23.2a6.369,6.369,0,0,1,0,12.737h-8.56a4.876,4.876,0,0,0-4.859,4.872V67.2a1.822,1.822,0,0,0,3.64,0V52.134a2.273,2.273,0,0,1,4.547,0V67.2A6.375,6.375,0,0,1,51.089,73.554Z" transform="translate(-21.776 -22.345)" fill="#33aac8"/>
      <path id="Path_17" data-name="Path 17" d="M29.224,0A29.23,29.23,0,1,0,58.45,29.228,29.231,29.231,0,0,0,29.224,0Zm0,54.42a25.193,25.193,0,1,1,25.19-25.192A25.194,25.194,0,0,1,29.224,54.42Z" transform="translate(0.01)" fill="#002443"/>
    </g>
  </g>
</svg>
